<svg width="1920" height="780" viewBox="0 0 1920 780" fill="none" xmlns="http://www.w3.org/2000/svg">
    <path
        d="M0 76L142.986 40.2536C206.682 24.3296 273.318 24.3296 337.014 40.2536L382.986 51.7464C446.682 67.6704 513.318 67.6704 577.014 51.7464L622.986 40.2536C686.682 24.3296 753.318 24.3296 817.014 40.2536L862.986 51.7464C926.682 67.6704 993.318 67.6704 1057.01 51.7464L1102.99 40.2536C1166.68 24.3296 1233.32 24.3296 1297.01 40.2536L1342.99 51.7464C1406.68 67.6704 1473.32 67.6704 1537.01 51.7464L1582.99 40.2536C1646.68 24.3296 1713.32 24.3296 1777.01 40.2536L1920 76V780H0L0 76Z"
        fill="#131313" />
    <rect x="100" y="131" width="12" height="12" fill="#BEF907" />
    <rect x="1808" y="131" width="12" height="12" fill="#BEF907" />
    <rect x="520" y="54" width="21" height="21" fill="#F3F4F1" />
    <rect x="1174" y="33" width="21" height="21" fill="#F3F4F1" />
    <rect x="1409" y="84" width="21" height="21" fill="#F3F4F1" />
    <rect x="1724" y="16" width="21" height="21" fill="#131313" />
    <rect width="21" height="21" transform="matrix(-1 0 0 1 1005 63)" fill="#F3F4F1" />
    <rect x="552" y="38" width="21" height="21" fill="#131313" />
    <rect x="1206" y="17" width="21" height="21" fill="#131313" />
    <rect x="1441" y="68" width="21" height="21" fill="#131313" />
    <rect x="1756" width="21" height="21" fill="#131313" />
    <rect x="103" y="45" width="21" height="21" fill="#F3F4F1" />
    <rect width="21" height="21" transform="matrix(-1 0 0 1 973 47)" fill="#131313" />
    <rect width="21" height="21" transform="matrix(-1 0 0 1 1026 43)" fill="#131313" />
    <rect width="21" height="21" transform="matrix(-1 0 0 1 1047 22)" fill="#131313" />
    <rect x="124" y="26" width="21" height="21" fill="#131313" />
    <rect x="145" y="45" width="21" height="21" fill="#F3F4F1" />
    <rect x="166" y="66" width="21" height="21" fill="#F3F4F1" />
    <rect x="586" y="49" width="21" height="21" fill="#F3F4F1" />
    <rect x="1240" y="28" width="21" height="21" fill="#F3F4F1" />
    <rect x="1475" y="79" width="21" height="21" fill="#F3F4F1" />
    <rect x="1790" y="11" width="21" height="21" fill="#131313" />
    <rect x="605" y="70" width="21" height="21" fill="#F3F4F1" />
    <rect x="1259" y="49" width="21" height="21" fill="#F3F4F1" />
    <rect x="1494" y="100" width="21" height="21" fill="#F3F4F1" />
    <rect x="1809" y="32" width="21" height="21" fill="#131313" />
    <rect x="187" y="45" width="21" height="21" fill="#F3F4F1" />
    <rect x="208" y="24" width="21" height="21" fill="#F3F4F1" />
    <rect width="21" height="21" transform="matrix(-1 0 0 1 939 58)" fill="#F3F4F1" />
    <rect width="21" height="21" transform="matrix(-1 0 0 1 920 79)" fill="#F3F4F1" />
    <rect width="21" height="21" transform="matrix(-1 0 0 1 899 58)" fill="#F3F4F1" />
</svg>
    