<svg width="1076" height="135" viewBox="0 0 1076 135" fill="none" xmlns="http://www.w3.org/2000/svg">
    <path
        d="M64.6719 72.6094L74.5938 17.6484C74.6458 17.4401 74.776 17.3359 74.9844 17.3359H86.5859C86.7943 17.3359 86.9245 17.4401 86.9766 17.6484L96.5078 72.6094C96.5339 72.8698 96.4297 73 96.1953 73H87.3281C87.0677 73 86.9245 72.8698 86.8984 72.6094L86.0391 66.75H75.1406L74.2812 72.6094C74.2552 72.8698 74.125 73 73.8906 73H64.9844C64.776 73 64.6719 72.8698 64.6719 72.6094ZM80.3359 35.7344L76.7422 58.1953H84.4375L81.1562 35.7344L80.6875 32.7656L80.3359 35.7344ZM127.68 73H101.82C101.612 73 101.508 72.8698 101.508 72.6094L101.586 17.7266C101.586 17.4661 101.716 17.3359 101.977 17.3359H110.883C111.143 17.3359 111.273 17.4661 111.273 17.7266L111.195 63.1562H127.68C127.94 63.1562 128.07 63.2865 128.07 63.5469V72.6094C128.07 72.8698 127.94 73 127.68 73ZM159.477 73H133.617C133.409 73 133.305 72.8698 133.305 72.6094L133.383 17.7266C133.383 17.4661 133.513 17.3359 133.773 17.3359H142.68C142.94 17.3359 143.07 17.4661 143.07 17.7266L142.992 63.1562H159.477C159.737 63.1562 159.867 63.2865 159.867 63.5469V72.6094C159.867 72.8698 159.737 73 159.477 73ZM181.234 49.875H165.766C165.505 49.875 165.375 49.7708 165.375 49.5625V40.8516C165.375 40.6432 165.505 40.5391 165.766 40.5391H181.234C181.495 40.5391 181.625 40.6432 181.625 40.8516V49.5625C181.625 49.7708 181.495 49.875 181.234 49.875ZM198.773 73H189.711C189.451 73 189.32 72.8698 189.32 72.6094L189.398 17.6484C189.398 17.4401 189.503 17.3359 189.711 17.3359H198.695C198.904 17.3359 199.008 17.4401 199.008 17.6484L199.086 72.6094C199.086 72.8698 198.982 73 198.773 73ZM214.828 73H206.82C206.404 73 206.195 72.8177 206.195 72.4531L206.117 17.9609C206.117 17.5443 206.326 17.3359 206.742 17.3359H213.969L227.484 48.8594L227.094 17.9609C227.094 17.5443 227.328 17.3359 227.797 17.3359H235.727C236.039 17.3359 236.195 17.5443 236.195 17.9609L236.273 72.5312C236.273 72.8438 236.143 73 235.883 73H228.852L214.984 43.5469L215.57 72.375C215.57 72.7917 215.323 73 214.828 73ZM259.359 49.875H243.891C243.63 49.875 243.5 49.7708 243.5 49.5625V40.8516C243.5 40.6432 243.63 40.5391 243.891 40.5391H259.359C259.62 40.5391 259.75 40.6432 259.75 40.8516V49.5625C259.75 49.7708 259.62 49.875 259.359 49.875ZM282.25 73.7812C279.411 73.7812 276.794 73.0521 274.398 71.5938C272.029 70.1354 270.115 68.1953 268.656 65.7734C267.224 63.3255 266.508 60.6432 266.508 57.7266L266.586 32.375C266.586 29.4062 267.302 26.737 268.734 24.3672C270.141 21.9714 272.042 20.0573 274.438 18.625C276.833 17.1667 279.438 16.4375 282.25 16.4375C285.167 16.4375 287.784 17.1536 290.102 18.5859C292.445 20.0182 294.32 21.9453 295.727 24.3672C297.159 26.763 297.875 29.4323 297.875 32.375L297.953 57.7266C297.953 60.6432 297.25 63.3125 295.844 65.7344C294.411 68.1823 292.51 70.1354 290.141 71.5938C287.771 73.0521 285.141 73.7812 282.25 73.7812ZM282.25 64.1328C283.865 64.1328 285.271 63.4818 286.469 62.1797C287.667 60.8516 288.266 59.3672 288.266 57.7266L288.188 32.375C288.188 30.6042 287.628 29.1068 286.508 27.8828C285.388 26.6589 283.969 26.0469 282.25 26.0469C280.609 26.0469 279.203 26.6458 278.031 27.8438C276.859 29.0417 276.273 30.5521 276.273 32.375V57.7266C276.273 59.4714 276.859 60.9818 278.031 62.2578C279.203 63.5078 280.609 64.1328 282.25 64.1328ZM312.719 73H304.711C304.294 73 304.086 72.8177 304.086 72.4531L304.008 17.9609C304.008 17.5443 304.216 17.3359 304.633 17.3359H311.859L325.375 48.8594L324.984 17.9609C324.984 17.5443 325.219 17.3359 325.688 17.3359H333.617C333.93 17.3359 334.086 17.5443 334.086 17.9609L334.164 72.5312C334.164 72.8438 334.034 73 333.773 73H326.742L312.875 43.5469L313.461 72.375C313.461 72.7917 313.214 73 312.719 73ZM367.289 73H341.43C341.221 73 341.117 72.8698 341.117 72.6094L341.195 17.6484C341.195 17.4401 341.299 17.3359 341.508 17.3359H367.211C367.419 17.3359 367.523 17.4661 367.523 17.7266V26.6719C367.523 26.8802 367.419 26.9844 367.211 26.9844H350.805V39.4844H367.211C367.419 39.4844 367.523 39.5885 367.523 39.7969L367.602 48.8594C367.602 49.0677 367.497 49.1719 367.289 49.1719H350.805V63.1562H367.289C367.497 63.1562 367.602 63.2865 367.602 63.5469V72.6875C367.602 72.8958 367.497 73 367.289 73ZM410.219 73.7812C407.328 73.7812 404.685 73.0521 402.289 71.5938C399.919 70.1354 398.031 68.1823 396.625 65.7344C395.245 63.2604 394.555 60.513 394.555 57.4922L394.633 32.5312C394.633 29.5625 395.31 26.8802 396.664 24.4844C398.018 22.0625 399.88 20.1224 402.25 18.6641C404.646 17.1797 407.302 16.4375 410.219 16.4375C413.188 16.4375 415.831 17.1536 418.148 18.5859C420.492 20.0182 422.354 21.9583 423.734 24.4062C425.141 26.8281 425.844 29.5365 425.844 32.5312V36.2031C425.844 36.4115 425.74 36.5156 425.531 36.5156H416.547C416.339 36.5156 416.234 36.4115 416.234 36.2031V32.5312C416.234 30.7604 415.661 29.237 414.516 27.9609C413.37 26.6849 411.938 26.0469 410.219 26.0469C408.318 26.0469 406.859 26.6979 405.844 28C404.828 29.3021 404.32 30.8125 404.32 32.5312V57.4922C404.32 59.4453 404.893 61.0469 406.039 62.2969C407.185 63.5208 408.578 64.1328 410.219 64.1328C411.938 64.1328 413.37 63.4557 414.516 62.1016C415.661 60.7214 416.234 59.1849 416.234 57.4922V53.7812C416.234 53.5729 416.339 53.4688 416.547 53.4688H425.609C425.818 53.4688 425.922 53.5729 425.922 53.7812V57.4922C425.922 60.487 425.219 63.2214 423.812 65.6953C422.38 68.1432 420.492 70.1094 418.148 71.5938C415.805 73.0521 413.161 73.7812 410.219 73.7812ZM446.547 73.7812C443.708 73.7812 441.091 73.0521 438.695 71.5938C436.326 70.1354 434.411 68.1953 432.953 65.7734C431.521 63.3255 430.805 60.6432 430.805 57.7266L430.883 32.375C430.883 29.4062 431.599 26.737 433.031 24.3672C434.438 21.9714 436.339 20.0573 438.734 18.625C441.13 17.1667 443.734 16.4375 446.547 16.4375C449.464 16.4375 452.081 17.1536 454.398 18.5859C456.742 20.0182 458.617 21.9453 460.023 24.3672C461.456 26.763 462.172 29.4323 462.172 32.375L462.25 57.7266C462.25 60.6432 461.547 63.3125 460.141 65.7344C458.708 68.1823 456.807 70.1354 454.438 71.5938C452.068 73.0521 449.438 73.7812 446.547 73.7812ZM446.547 64.1328C448.161 64.1328 449.568 63.4818 450.766 62.1797C451.964 60.8516 452.562 59.3672 452.562 57.7266L452.484 32.375C452.484 30.6042 451.924 29.1068 450.805 27.8828C449.685 26.6589 448.266 26.0469 446.547 26.0469C444.906 26.0469 443.5 26.6458 442.328 27.8438C441.156 29.0417 440.57 30.5521 440.57 32.375V57.7266C440.57 59.4714 441.156 60.9818 442.328 62.2578C443.5 63.5078 444.906 64.1328 446.547 64.1328ZM484.438 49.875H468.969C468.708 49.875 468.578 49.7708 468.578 49.5625V40.8516C468.578 40.6432 468.708 40.5391 468.969 40.5391H484.438C484.698 40.5391 484.828 40.6432 484.828 40.8516V49.5625C484.828 49.7708 484.698 49.875 484.438 49.875ZM507.172 73H492.836C492.628 73 492.523 72.8698 492.523 72.6094L492.68 17.6484C492.68 17.4401 492.784 17.3359 492.992 17.3359H508.383C511.378 17.3359 514.099 18.0651 516.547 19.5234C518.943 20.9818 520.831 22.9219 522.211 25.3438C523.591 27.7396 524.281 30.3438 524.281 33.1562C524.281 35.4479 523.76 37.5833 522.719 39.5625C521.677 41.5417 520.44 43.1432 519.008 44.3672C520.544 45.9036 521.742 47.6875 522.602 49.7188C523.461 51.75 523.891 53.8854 523.891 56.125C523.891 59.224 523.148 62.0495 521.664 64.6016C520.154 67.1536 518.135 69.1979 515.609 70.7344C513.083 72.2448 510.271 73 507.172 73ZM508.383 26.8281H502.289V39.4062H508.383C510.232 39.4062 511.729 38.7552 512.875 37.4531C514.021 36.125 514.594 34.6927 514.594 33.1562C514.594 31.4635 513.982 29.9922 512.758 28.7422C511.534 27.4661 510.076 26.8281 508.383 26.8281ZM507.172 49.0938H502.289L502.211 63.2344H507.172C509.099 63.2344 510.753 62.5312 512.133 61.125C513.513 59.7188 514.203 58.0521 514.203 56.125C514.203 54.1979 513.513 52.5443 512.133 51.1641C510.753 49.7839 509.099 49.0938 507.172 49.0938ZM544.359 73.7812C541.547 73.7812 538.943 73.0521 536.547 71.5938C534.151 70.1354 532.237 68.1823 530.805 65.7344C529.398 63.2604 528.695 60.5651 528.695 57.6484L528.852 17.6484C528.852 17.4401 528.956 17.3359 529.164 17.3359H538.148C538.357 17.3359 538.461 17.4401 538.461 17.6484V57.6484C538.461 59.4453 539.034 60.9818 540.18 62.2578C541.326 63.5078 542.719 64.1328 544.359 64.1328C546.078 64.1328 547.51 63.5078 548.656 62.2578C549.802 60.9818 550.375 59.4453 550.375 57.6484V17.6484C550.375 17.4401 550.479 17.3359 550.688 17.3359H559.672C559.88 17.3359 559.984 17.4401 559.984 17.6484L560.141 57.6484C560.141 60.5911 559.438 63.2995 558.031 65.7734C556.599 68.2214 554.698 70.1745 552.328 71.6328C549.958 73.0651 547.302 73.7812 544.359 73.7812ZM575.883 73H566.82C566.56 73 566.43 72.8698 566.43 72.6094L566.508 17.6484C566.508 17.4401 566.612 17.3359 566.82 17.3359H575.805C576.013 17.3359 576.117 17.4401 576.117 17.6484L576.195 72.6094C576.195 72.8698 576.091 73 575.883 73ZM609.398 73H583.539C583.331 73 583.227 72.8698 583.227 72.6094L583.305 17.7266C583.305 17.4661 583.435 17.3359 583.695 17.3359H592.602C592.862 17.3359 592.992 17.4661 592.992 17.7266L592.914 63.1562H609.398C609.659 63.1562 609.789 63.2865 609.789 63.5469V72.6094C609.789 72.8698 609.659 73 609.398 73ZM629.75 72.9219L615.414 73C615.154 73 615.023 72.8698 615.023 72.6094L615.18 17.6484C615.18 17.4401 615.284 17.3359 615.492 17.3359L630.453 17.2578C633.422 17.1797 636.104 17.8568 638.5 19.2891C640.922 20.7214 642.849 22.6615 644.281 25.1094C645.74 27.5312 646.469 30.2135 646.469 33.1562V56.125C646.469 59.1979 645.727 62.0104 644.242 64.5625C642.732 67.0885 640.727 69.1068 638.227 70.6172C635.727 72.1016 632.901 72.8698 629.75 72.9219ZM630.453 26.8281L624.867 26.9062L624.789 63.1562H629.75C631.729 63.1562 633.396 62.4661 634.75 61.0859C636.104 59.7057 636.781 58.0521 636.781 56.125V33.0781C636.781 31.3854 636.156 29.9141 634.906 28.6641C633.656 27.388 632.172 26.776 630.453 26.8281ZM662.211 73H653.148C652.888 73 652.758 72.8698 652.758 72.6094L652.836 17.6484C652.836 17.4401 652.94 17.3359 653.148 17.3359H662.133C662.341 17.3359 662.445 17.4401 662.445 17.6484L662.523 72.6094C662.523 72.8698 662.419 73 662.211 73ZM678.266 73H670.258C669.841 73 669.633 72.8177 669.633 72.4531L669.555 17.9609C669.555 17.5443 669.763 17.3359 670.18 17.3359H677.406L690.922 48.8594L690.531 17.9609C690.531 17.5443 690.766 17.3359 691.234 17.3359H699.164C699.477 17.3359 699.633 17.5443 699.633 17.9609L699.711 72.5312C699.711 72.8438 699.581 73 699.32 73H692.289L678.422 43.5469L679.008 72.375C679.008 72.7917 678.76 73 678.266 73ZM721.312 73.7812C718.422 73.7812 715.818 73.0651 713.5 71.6328C711.156 70.2005 709.268 68.2734 707.836 65.8516C706.43 63.4297 705.727 60.7214 705.727 57.7266V32.375C705.727 29.4583 706.443 26.8021 707.875 24.4062C709.281 21.9844 711.169 20.0573 713.539 18.625C715.909 17.1667 718.5 16.4375 721.312 16.4375C724.255 16.4375 726.911 17.1406 729.281 18.5469C731.651 19.9792 733.526 21.8932 734.906 24.2891C736.312 26.6849 737.016 29.3802 737.016 32.375V36.0469C737.016 36.2552 736.885 36.3594 736.625 36.3594H727.641C727.432 36.3594 727.328 36.2552 727.328 36.0469V33C727.328 30.9688 726.755 29.2891 725.609 27.9609C724.464 26.6328 723.031 25.9688 721.312 25.9688C719.776 25.9688 718.409 26.6068 717.211 27.8828C716.013 29.1589 715.414 30.6562 715.414 32.375V57.7266C715.414 59.4714 716 60.9818 717.172 62.2578C718.344 63.5078 719.724 64.1328 721.312 64.1328C723.031 64.1328 724.464 63.5208 725.609 62.2969C726.755 61.0469 727.328 59.5234 727.328 57.7266V53.7812H721.742C721.456 53.7812 721.312 53.651 721.312 53.3906V44.4453C721.312 44.1849 721.456 44.0547 721.742 44.0547H736.703C736.911 44.0547 737.016 44.1849 737.016 44.4453V57.7266C737.016 60.7214 736.312 63.4297 734.906 65.8516C733.474 68.2734 731.586 70.2005 729.242 71.6328C726.898 73.0651 724.255 73.7812 721.312 73.7812ZM772.172 73H764.164C763.747 73 763.539 72.8177 763.539 72.4531L763.461 17.9609C763.461 17.5443 763.669 17.3359 764.086 17.3359H771.312L784.828 48.8594L784.438 17.9609C784.438 17.5443 784.672 17.3359 785.141 17.3359H793.07C793.383 17.3359 793.539 17.5443 793.539 17.9609L793.617 72.5312C793.617 72.8438 793.487 73 793.227 73H786.195L772.328 43.5469L772.914 72.375C772.914 72.7917 772.667 73 772.172 73ZM826.742 73H800.883C800.674 73 800.57 72.8698 800.57 72.6094L800.648 17.6484C800.648 17.4401 800.753 17.3359 800.961 17.3359H826.664C826.872 17.3359 826.977 17.4661 826.977 17.7266V26.6719C826.977 26.8802 826.872 26.9844 826.664 26.9844H810.258V39.4844H826.664C826.872 39.4844 826.977 39.5885 826.977 39.7969L827.055 48.8594C827.055 49.0677 826.951 49.1719 826.742 49.1719H810.258V63.1562H826.742C826.951 63.1562 827.055 63.2865 827.055 63.5469V72.6875C827.055 72.8958 826.951 73 826.742 73ZM851.234 73H842.211C841.977 73 841.859 72.8698 841.859 72.6094V26.9844H831.469C831.208 26.9844 831.078 26.8542 831.078 26.5938L831.156 17.6484C831.156 17.4401 831.26 17.3359 831.469 17.3359H861.859C862.146 17.3359 862.289 17.4401 862.289 17.6484V26.5938C862.289 26.8542 862.185 26.9844 861.977 26.9844H851.469L851.547 72.6094C851.547 72.8698 851.443 73 851.234 73ZM883.266 73H873.578C873.344 73 873.214 72.8698 873.188 72.6094L863.734 17.6484C863.682 17.4401 863.76 17.3359 863.969 17.3359H872.953C873.161 17.3359 873.292 17.4401 873.344 17.6484L878.461 53.7812L883.734 17.6484C883.786 17.4401 883.943 17.3359 884.203 17.3359H891.43C891.638 17.3359 891.768 17.4401 891.82 17.6484L897.016 53.7812L902.211 17.6484C902.263 17.4401 902.393 17.3359 902.602 17.3359H911.508C911.768 17.3359 911.872 17.4401 911.82 17.6484L902.289 72.6094C902.263 72.7135 902.185 72.8047 902.055 72.8828L901.898 73H892.211C892.055 73 891.924 72.8698 891.82 72.6094L887.719 43.8984L883.656 72.6094C883.63 72.8698 883.5 73 883.266 73ZM931.312 73.7812C928.474 73.7812 925.857 73.0521 923.461 71.5938C921.091 70.1354 919.177 68.1953 917.719 65.7734C916.286 63.3255 915.57 60.6432 915.57 57.7266L915.648 32.375C915.648 29.4062 916.365 26.737 917.797 24.3672C919.203 21.9714 921.104 20.0573 923.5 18.625C925.896 17.1667 928.5 16.4375 931.312 16.4375C934.229 16.4375 936.846 17.1536 939.164 18.5859C941.508 20.0182 943.383 21.9453 944.789 24.3672C946.221 26.763 946.938 29.4323 946.938 32.375L947.016 57.7266C947.016 60.6432 946.312 63.3125 944.906 65.7344C943.474 68.1823 941.573 70.1354 939.203 71.5938C936.833 73.0521 934.203 73.7812 931.312 73.7812ZM931.312 64.1328C932.927 64.1328 934.333 63.4818 935.531 62.1797C936.729 60.8516 937.328 59.3672 937.328 57.7266L937.25 32.375C937.25 30.6042 936.69 29.1068 935.57 27.8828C934.451 26.6589 933.031 26.0469 931.312 26.0469C929.672 26.0469 928.266 26.6458 927.094 27.8438C925.922 29.0417 925.336 30.5521 925.336 32.375V57.7266C925.336 59.4714 925.922 60.9818 927.094 62.2578C928.266 63.5078 929.672 64.1328 931.312 64.1328ZM962.445 73H953.383C953.174 73 953.07 72.8698 953.07 72.6094L953.227 17.6484C953.227 17.4401 953.331 17.3359 953.539 17.3359H969.711C972.602 17.3359 975.258 18.0391 977.68 19.4453C980.102 20.8516 982.029 22.7396 983.461 25.1094C984.919 27.4792 985.648 30.1615 985.648 33.1562C985.648 35.1094 985.349 36.8802 984.75 38.4688C984.151 40.0573 983.448 41.3984 982.641 42.4922C981.859 43.5859 981.143 44.3932 980.492 44.9141C983.383 48.1172 984.828 51.8802 984.828 56.2031L984.906 72.6094C984.906 72.8698 984.776 73 984.516 73H975.453C975.245 73 975.141 72.9219 975.141 72.7656V56.2031C975.141 54.276 974.464 52.6094 973.109 51.2031C971.755 49.7969 970.089 49.0938 968.109 49.0938H962.836L962.758 72.6094C962.758 72.8698 962.654 73 962.445 73ZM969.711 26.9062H962.836V39.4844H969.711C971.352 39.4844 972.81 38.8724 974.086 37.6484C975.388 36.4245 976.039 34.9271 976.039 33.1562C976.039 31.4635 975.414 30.0052 974.164 28.7812C972.914 27.5312 971.43 26.9062 969.711 26.9062ZM1001.04 73H991.977C991.768 73 991.664 72.8698 991.664 72.6094L991.82 17.7266C991.82 17.4661 991.924 17.3359 992.133 17.3359H1001.12C1001.33 17.3359 1001.43 17.4661 1001.43 17.7266V36.6719L1013.97 17.6484C1014.18 17.4401 1014.37 17.3359 1014.55 17.3359H1023.73C1023.97 17.3359 1024.02 17.4401 1023.89 17.6484L1010.06 39.7188L1025.57 72.6875C1025.7 72.8958 1025.57 73 1025.18 73H1015.41C1015.15 73 1015 72.8958 1014.95 72.6875L1004.12 49.1719L1001.35 53.5469V72.6094C1001.35 72.8698 1001.25 73 1001.04 73Z"
        fill="#131313" />
    <rect x="1040.5" y="30.5" width="11" height="11" stroke="#131313" stroke-dasharray="2 2" />
    <rect x="1052" y="42" width="12" height="12" fill="#131313" />
    <rect x="1054" y="44" width="8" height="8" fill="#BEF907" />
    <rect x="1064.5" y="30.5" width="11" height="11" stroke="#131313" stroke-dasharray="2 2" />
    <rect x="1040.5" y="54.5" width="11" height="11" stroke="#131313" stroke-dasharray="2 2" />
    <rect x="1064.5" y="54.5" width="11" height="11" stroke="#131313" stroke-dasharray="2 2" />
    <rect x="-0.5" y="0.5" width="11" height="11" transform="matrix(-1 0 0 1 35 24)"
        stroke="#5700EF" stroke-dasharray="2 2" />
    <rect width="12" height="12" transform="matrix(-1 0 0 1 24 36)" fill="#5700EF" />
    <rect x="-0.5" y="0.5" width="11" height="11" transform="matrix(-1 0 0 1 11 24)"
        stroke="#5700EF" stroke-dasharray="2 2" />
    <rect x="-0.5" y="0.5" width="11" height="11" transform="matrix(-1 0 0 1 35 48)"
        stroke="#5700EF" stroke-dasharray="2 2" />
    <rect x="-0.5" y="0.5" width="11" height="11" transform="matrix(-1 0 0 1 11 48)"
        stroke="#5700EF" stroke-dasharray="2 2" />
    <rect x="0.5" y="24.5" width="11" height="11" stroke="#131313" stroke-dasharray="2 2" />
    <rect x="12" y="36" width="12" height="12" fill="#131313" />
    <rect x="14" y="38" width="8" height="8" fill="#BEF907" />
    <rect x="24.5" y="24.5" width="11" height="11" stroke="#131313" stroke-dasharray="2 2" />
    <rect x="0.5" y="48.5" width="11" height="11" stroke="#131313" stroke-dasharray="2 2" />
    <rect x="24.5" y="48.5" width="11" height="11" stroke="#131313" stroke-dasharray="2 2" />
    <path
        d="M358.737 130.192C357.606 130.192 356.662 129.963 355.905 129.504C355.147 129.035 354.577 128.368 354.193 127.504C353.809 126.629 353.617 125.6 353.617 124.416C353.617 123.061 353.835 121.963 354.273 121.12C354.721 120.267 355.318 119.637 356.065 119.232C356.811 118.816 357.643 118.608 358.561 118.608C359.126 118.608 359.665 118.677 360.177 118.816C360.689 118.944 361.174 119.141 361.633 119.408V120.832L361.297 120.992C360.934 120.715 360.529 120.496 360.081 120.336C359.643 120.176 359.163 120.096 358.641 120.096C358.001 120.096 357.43 120.235 356.929 120.512C356.438 120.789 356.049 121.243 355.761 121.872C355.483 122.501 355.345 123.349 355.345 124.416C355.345 125.909 355.638 126.997 356.225 127.68C356.822 128.363 357.675 128.704 358.785 128.704C359.254 128.704 359.707 128.64 360.145 128.512C360.582 128.384 361.009 128.176 361.425 127.888L361.761 128.048V129.472C361.323 129.707 360.854 129.883 360.353 130C359.851 130.128 359.313 130.192 358.737 130.192ZM367.049 130.192C366.366 130.192 365.726 130.053 365.129 129.776C364.531 129.499 364.051 129.045 363.689 128.416C363.326 127.787 363.145 126.955 363.145 125.92C363.145 125.131 363.246 124.469 363.449 123.936C363.662 123.392 363.95 122.949 364.312 122.608C364.686 122.267 365.107 122.021 365.577 121.872C366.046 121.723 366.537 121.648 367.049 121.648C367.561 121.648 368.051 121.723 368.521 121.872C368.99 122.021 369.406 122.267 369.769 122.608C370.131 122.949 370.419 123.392 370.633 123.936C370.846 124.469 370.953 125.131 370.953 125.92C370.953 126.955 370.771 127.787 370.409 128.416C370.046 129.045 369.566 129.499 368.969 129.776C368.382 130.053 367.742 130.192 367.049 130.192ZM367.049 128.832C367.774 128.832 368.334 128.608 368.729 128.16C369.123 127.712 369.321 126.955 369.321 125.888C369.321 125.173 369.23 124.608 369.049 124.192C368.878 123.765 368.622 123.461 368.281 123.28C367.95 123.099 367.539 123.008 367.049 123.008C366.558 123.008 366.142 123.099 365.801 123.28C365.47 123.461 365.214 123.765 365.033 124.192C364.862 124.608 364.777 125.173 364.777 125.888C364.777 126.955 364.974 127.712 365.369 128.16C365.763 128.608 366.323 128.832 367.049 128.832ZM378.533 130L378.693 128.72V124.72C378.693 124.155 378.533 123.733 378.213 123.456C377.893 123.179 377.403 123.04 376.741 123.04C376.283 123.04 375.888 123.099 375.557 123.216C375.237 123.333 374.971 123.472 374.757 123.632C374.544 123.792 374.379 123.936 374.261 124.064V123.168L375.909 121.808C376.112 121.755 376.32 121.717 376.533 121.696C376.757 121.664 376.987 121.648 377.221 121.648C377.755 121.648 378.251 121.739 378.709 121.92C379.179 122.101 379.557 122.411 379.845 122.848C380.144 123.285 380.293 123.893 380.293 124.672V128.72L380.453 130H378.533ZM372.965 130L373.125 128.72V123.088L372.965 121.84H374.453L374.725 122.784V128.72L374.885 130H372.965ZM388.268 130L388.428 128.72V124.72C388.428 124.155 388.268 123.733 387.948 123.456C387.628 123.179 387.137 123.04 386.476 123.04C386.017 123.04 385.622 123.099 385.292 123.216C384.972 123.333 384.705 123.472 384.492 123.632C384.278 123.792 384.113 123.936 383.996 124.064V123.168L385.644 121.808C385.846 121.755 386.054 121.717 386.268 121.696C386.492 121.664 386.721 121.648 386.956 121.648C387.489 121.648 387.985 121.739 388.444 121.92C388.913 122.101 389.292 122.411 389.58 122.848C389.878 123.285 390.028 123.893 390.028 124.672V128.72L390.188 130H388.268ZM382.7 130L382.86 128.72V123.088L382.7 121.84H384.188L384.46 122.784V128.72L384.62 130H382.7ZM392.098 125.92C392.098 124.864 392.268 124.027 392.61 123.408C392.962 122.779 393.426 122.331 394.002 122.064C394.578 121.787 395.202 121.648 395.874 121.648C396.642 121.648 397.282 121.797 397.794 122.096C398.306 122.395 398.69 122.816 398.946 123.36C399.202 123.904 399.33 124.549 399.33 125.296C399.33 125.52 399.319 125.728 399.298 125.92C399.276 126.101 399.25 126.293 399.218 126.496H393.058V126.144L394.498 125.28H397.746C397.746 124.811 397.692 124.405 397.586 124.064C397.49 123.723 397.303 123.461 397.026 123.28C396.759 123.088 396.364 122.992 395.842 122.992C395.319 122.992 394.903 123.099 394.594 123.312C394.284 123.525 394.06 123.84 393.922 124.256C393.794 124.672 393.73 125.184 393.73 125.792C393.73 126.453 393.799 126.992 393.938 127.408C394.076 127.813 394.263 128.117 394.498 128.32C394.743 128.523 395.02 128.661 395.33 128.736C395.65 128.8 395.991 128.832 396.354 128.832C396.812 128.832 397.223 128.789 397.586 128.704C397.959 128.619 398.306 128.491 398.626 128.32L398.914 128.48V129.792C398.594 129.909 398.236 130.005 397.842 130.08C397.447 130.155 396.994 130.192 396.482 130.192C395.927 130.192 395.388 130.128 394.866 130C394.343 129.883 393.874 129.675 393.458 129.376C393.042 129.067 392.711 128.635 392.466 128.08C392.22 127.515 392.098 126.795 392.098 125.92ZM405.245 130.192C404.744 130.192 404.237 130.128 403.725 130C403.224 129.861 402.76 129.632 402.333 129.312C401.917 128.981 401.581 128.544 401.325 128C401.069 127.445 400.941 126.752 400.941 125.92C400.941 125.12 401.059 124.448 401.293 123.904C401.528 123.36 401.843 122.923 402.237 122.592C402.643 122.261 403.101 122.021 403.613 121.872C404.125 121.723 404.659 121.648 405.213 121.648C405.619 121.648 405.976 121.68 406.285 121.744C406.605 121.808 406.899 121.899 407.165 122.016V123.328L406.893 123.488C406.648 123.328 406.381 123.211 406.093 123.136C405.816 123.051 405.501 123.008 405.149 123.008C404.68 123.008 404.248 123.099 403.853 123.28C403.459 123.461 403.144 123.765 402.909 124.192C402.685 124.608 402.573 125.179 402.573 125.904C402.573 126.48 402.648 126.96 402.797 127.344C402.947 127.717 403.144 128.016 403.389 128.24C403.635 128.453 403.912 128.608 404.221 128.704C404.541 128.789 404.861 128.832 405.181 128.832C405.587 128.832 405.939 128.779 406.237 128.672C406.547 128.565 406.803 128.448 407.005 128.32L407.277 128.48V129.792C406.979 129.92 406.659 130.016 406.317 130.08C405.987 130.155 405.629 130.192 405.245 130.192ZM409.98 127.664V120.688L409.9 119.568H411.66L411.58 120.688V127.568C411.58 128.037 411.687 128.363 411.9 128.544C412.114 128.725 412.439 128.816 412.876 128.816C413.1 128.816 413.292 128.795 413.452 128.752C413.612 128.709 413.767 128.651 413.916 128.576L414.188 128.736V129.952C413.954 130.027 413.703 130.085 413.436 130.128C413.18 130.171 412.924 130.192 412.668 130.192C412.188 130.192 411.746 130.117 411.34 129.968C410.935 129.819 410.604 129.563 410.348 129.2C410.103 128.827 409.98 128.315 409.98 127.664ZM408.604 123.264V121.84H409.532L410.78 122.32L412.028 121.84H413.98V123.264L413.18 123.184H409.404L408.604 123.264ZM421.656 130V118.8H423.288V130H421.656ZM420.184 130V128.448L421.144 128.608H423.8L424.76 128.448V130H420.184ZM420.184 120.352V118.8H424.76V120.352L423.8 120.192H421.144L420.184 120.352ZM430.136 130.192C429.442 130.192 428.824 130.027 428.28 129.696C427.736 129.365 427.304 128.88 426.984 128.24C426.674 127.6 426.52 126.827 426.52 125.92C426.52 124.96 426.685 124.165 427.016 123.536C427.346 122.896 427.784 122.421 428.328 122.112C428.872 121.803 429.458 121.648 430.088 121.648C430.365 121.648 430.626 121.675 430.872 121.728C431.117 121.771 431.346 121.824 431.56 121.888L433.288 123.248V124.208C433.106 123.995 432.888 123.797 432.632 123.616C432.376 123.435 432.072 123.291 431.72 123.184C431.378 123.067 430.973 123.008 430.504 123.008C429.97 123.008 429.528 123.104 429.176 123.296C428.834 123.488 428.578 123.797 428.408 124.224C428.237 124.651 428.152 125.216 428.152 125.92C428.152 126.912 428.338 127.648 428.712 128.128C429.085 128.597 429.704 128.832 430.568 128.832C431.016 128.832 431.389 128.779 431.688 128.672C431.997 128.555 432.248 128.416 432.44 128.256C432.642 128.085 432.802 127.909 432.92 127.728L433 128.576L431.544 130C431.341 130.053 431.117 130.096 430.872 130.128C430.637 130.171 430.392 130.192 430.136 130.192ZM432.696 130L432.456 129.072V119.632L432.296 118.352H434.216L434.056 119.632V128.72L434.216 130H432.696ZM436.223 125.92C436.223 124.864 436.393 124.027 436.735 123.408C437.087 122.779 437.551 122.331 438.127 122.064C438.703 121.787 439.327 121.648 439.999 121.648C440.767 121.648 441.407 121.797 441.919 122.096C442.431 122.395 442.815 122.816 443.071 123.36C443.327 123.904 443.455 124.549 443.455 125.296C443.455 125.52 443.444 125.728 443.423 125.92C443.401 126.101 443.375 126.293 443.343 126.496H437.183V126.144L438.623 125.28H441.871C441.871 124.811 441.817 124.405 441.711 124.064C441.615 123.723 441.428 123.461 441.151 123.28C440.884 123.088 440.489 122.992 439.967 122.992C439.444 122.992 439.028 123.099 438.719 123.312C438.409 123.525 438.185 123.84 438.047 124.256C437.919 124.672 437.855 125.184 437.855 125.792C437.855 126.453 437.924 126.992 438.063 127.408C438.201 127.813 438.388 128.117 438.623 128.32C438.868 128.523 439.145 128.661 439.455 128.736C439.775 128.8 440.116 128.832 440.479 128.832C440.937 128.832 441.348 128.789 441.711 128.704C442.084 128.619 442.431 128.491 442.751 128.32L443.039 128.48V129.792C442.719 129.909 442.361 130.005 441.967 130.08C441.572 130.155 441.119 130.192 440.607 130.192C440.052 130.192 439.513 130.128 438.991 130C438.468 129.883 437.999 129.675 437.583 129.376C437.167 129.067 436.836 128.635 436.591 128.08C436.345 127.515 436.223 126.795 436.223 125.92ZM450.557 130L450.317 129.056V124.896C450.317 124.491 450.263 124.149 450.157 123.872C450.061 123.584 449.847 123.365 449.517 123.216C449.197 123.067 448.706 122.992 448.045 122.992C447.661 122.992 447.303 123.029 446.973 123.104C446.642 123.168 446.311 123.291 445.981 123.472L445.709 123.312V122.016C446.178 121.867 446.621 121.771 447.037 121.728C447.463 121.675 447.847 121.648 448.189 121.648C449.159 121.648 449.911 121.771 450.445 122.016C450.989 122.261 451.367 122.629 451.581 123.12C451.805 123.6 451.917 124.192 451.917 124.896V128.72L452.061 130H450.557ZM447.997 130.192C447.517 130.192 447.042 130.117 446.573 129.968C446.114 129.808 445.73 129.536 445.421 129.152C445.122 128.768 444.973 128.24 444.973 127.568C444.973 127.035 445.069 126.597 445.261 126.256C445.463 125.915 445.725 125.653 446.045 125.472C446.375 125.28 446.743 125.147 447.149 125.072C447.554 124.997 447.959 124.96 448.365 124.96C448.599 124.96 448.823 124.971 449.037 124.992C449.261 125.003 449.479 125.029 449.693 125.072L450.717 125.696V126.544C450.429 126.395 450.119 126.293 449.789 126.24C449.469 126.176 449.106 126.144 448.701 126.144C447.986 126.144 447.453 126.245 447.101 126.448C446.749 126.64 446.573 127.008 446.573 127.552C446.573 128.032 446.711 128.379 446.989 128.592C447.266 128.805 447.709 128.912 448.317 128.912C448.989 128.912 449.511 128.805 449.885 128.592C450.269 128.379 450.562 128.123 450.765 127.824L451.005 128.496L449.405 130.016C449.191 130.069 448.962 130.112 448.717 130.144C448.482 130.176 448.242 130.192 447.997 130.192ZM459.608 122.032V123.392L459.336 123.552C459.048 123.381 458.722 123.248 458.36 123.152C458.008 123.056 457.608 123.008 457.16 123.008C456.882 123.008 456.616 123.035 456.36 123.088C456.104 123.131 455.89 123.221 455.72 123.36C455.56 123.488 455.48 123.675 455.48 123.92C455.48 124.197 455.592 124.421 455.816 124.592C456.04 124.752 456.322 124.885 456.664 124.992C457.016 125.099 457.384 125.211 457.768 125.328C458.162 125.445 458.53 125.6 458.872 125.792C459.224 125.973 459.506 126.224 459.72 126.544C459.944 126.864 460.056 127.28 460.056 127.792C460.056 128.411 459.896 128.896 459.576 129.248C459.266 129.589 458.85 129.835 458.328 129.984C457.816 130.123 457.256 130.192 456.648 130.192C456.061 130.192 455.533 130.144 455.064 130.048C454.605 129.952 454.216 129.851 453.896 129.744V128.368L454.168 128.208C454.466 128.389 454.813 128.539 455.208 128.656C455.602 128.773 456.098 128.832 456.696 128.832C457.016 128.832 457.309 128.811 457.576 128.768C457.853 128.715 458.077 128.619 458.248 128.48C458.418 128.331 458.504 128.123 458.504 127.856C458.504 127.547 458.392 127.307 458.168 127.136C457.954 126.955 457.672 126.811 457.32 126.704C456.978 126.597 456.61 126.491 456.216 126.384C455.832 126.277 455.464 126.139 455.112 125.968C454.76 125.787 454.472 125.541 454.248 125.232C454.034 124.912 453.928 124.491 453.928 123.968C453.928 123.499 454.013 123.115 454.184 122.816C454.365 122.517 454.61 122.283 454.92 122.112C455.24 121.941 455.597 121.824 455.992 121.76C456.397 121.685 456.813 121.648 457.24 121.648C457.72 121.648 458.157 121.685 458.552 121.76C458.946 121.824 459.298 121.915 459.608 122.032ZM462.685 132.192L462.125 131.872V131.616L463.085 130.128L462.973 130.032L462.812 130.192C462.525 130.192 462.301 130.091 462.141 129.888C461.981 129.675 461.901 129.429 461.901 129.152C461.901 128.853 461.997 128.603 462.189 128.4C462.381 128.187 462.647 128.08 462.989 128.08C463.373 128.08 463.661 128.208 463.853 128.464C464.055 128.72 464.157 129.045 464.157 129.44C464.157 129.92 464.018 130.4 463.741 130.88C463.463 131.36 463.111 131.797 462.685 132.192ZM473.07 130L473.23 128.72V119.472H474.862V128.72L475.022 130H473.07ZM469.838 120.432V118.8H478.253V120.432L477.294 120.272H470.798L469.838 120.432ZM484.275 130L484.035 129.056V124.896C484.035 124.491 483.982 124.149 483.875 123.872C483.779 123.584 483.566 123.365 483.235 123.216C482.915 123.067 482.425 122.992 481.763 122.992C481.379 122.992 481.022 123.029 480.691 123.104C480.361 123.168 480.03 123.291 479.699 123.472L479.427 123.312V122.016C479.897 121.867 480.339 121.771 480.755 121.728C481.182 121.675 481.566 121.648 481.907 121.648C482.878 121.648 483.63 121.771 484.163 122.016C484.707 122.261 485.086 122.629 485.299 123.12C485.523 123.6 485.635 124.192 485.635 124.896V128.72L485.779 130H484.275ZM481.715 130.192C481.235 130.192 480.761 130.117 480.291 129.968C479.833 129.808 479.449 129.536 479.139 129.152C478.841 128.768 478.691 128.24 478.691 127.568C478.691 127.035 478.787 126.597 478.979 126.256C479.182 125.915 479.443 125.653 479.763 125.472C480.094 125.28 480.462 125.147 480.867 125.072C481.273 124.997 481.678 124.96 482.083 124.96C482.318 124.96 482.542 124.971 482.755 124.992C482.979 125.003 483.198 125.029 483.411 125.072L484.435 125.696V126.544C484.147 126.395 483.838 126.293 483.507 126.24C483.187 126.176 482.825 126.144 482.419 126.144C481.705 126.144 481.171 126.245 480.819 126.448C480.467 126.64 480.291 127.008 480.291 127.552C480.291 128.032 480.43 128.379 480.707 128.592C480.985 128.805 481.427 128.912 482.035 128.912C482.707 128.912 483.23 128.805 483.603 128.592C483.987 128.379 484.281 128.123 484.483 127.824L484.723 128.496L483.123 130.016C482.91 130.069 482.681 130.112 482.435 130.144C482.201 130.176 481.961 130.192 481.715 130.192ZM491.2 128.704V130C491.04 130.064 490.87 130.112 490.688 130.144C490.518 130.176 490.32 130.192 490.096 130.192C489.734 130.192 489.392 130.133 489.072 130.016C488.752 129.899 488.491 129.691 488.288 129.392C488.096 129.093 488 128.672 488 128.128V119.632L487.84 118.352H489.76L489.6 119.632V128C489.6 128.245 489.67 128.427 489.808 128.544C489.947 128.661 490.123 128.72 490.336 128.72C490.464 128.72 490.576 128.704 490.672 128.672C490.768 128.629 490.854 128.587 490.928 128.544L491.2 128.704ZM492.613 125.92C492.613 124.864 492.784 124.027 493.125 123.408C493.477 122.779 493.941 122.331 494.517 122.064C495.093 121.787 495.717 121.648 496.389 121.648C497.157 121.648 497.797 121.797 498.309 122.096C498.821 122.395 499.205 122.816 499.461 123.36C499.717 123.904 499.845 124.549 499.845 125.296C499.845 125.52 499.835 125.728 499.813 125.92C499.792 126.101 499.765 126.293 499.733 126.496H493.573V126.144L495.013 125.28H498.261C498.261 124.811 498.208 124.405 498.101 124.064C498.005 123.723 497.819 123.461 497.541 123.28C497.275 123.088 496.88 122.992 496.357 122.992C495.835 122.992 495.419 123.099 495.109 123.312C494.8 123.525 494.576 123.84 494.437 124.256C494.309 124.672 494.245 125.184 494.245 125.792C494.245 126.453 494.315 126.992 494.453 127.408C494.592 127.813 494.779 128.117 495.013 128.32C495.259 128.523 495.536 128.661 495.845 128.736C496.165 128.8 496.507 128.832 496.869 128.832C497.328 128.832 497.739 128.789 498.101 128.704C498.475 128.619 498.821 128.491 499.141 128.32L499.429 128.48V129.792C499.109 129.909 498.752 130.005 498.357 130.08C497.963 130.155 497.509 130.192 496.997 130.192C496.443 130.192 495.904 130.128 495.381 130C494.859 129.883 494.389 129.675 493.973 129.376C493.557 129.067 493.227 128.635 492.981 128.08C492.736 127.515 492.613 126.795 492.613 125.92ZM507.33 130L507.49 128.72V124.72C507.49 124.155 507.33 123.733 507.01 123.456C506.69 123.179 506.199 123.04 505.538 123.04C505.079 123.04 504.685 123.099 504.354 123.216C504.034 123.333 503.767 123.472 503.554 123.632C503.341 123.792 503.175 123.936 503.058 124.064V123.168L504.706 121.808C504.909 121.755 505.117 121.717 505.33 121.696C505.554 121.664 505.783 121.648 506.018 121.648C506.551 121.648 507.047 121.739 507.506 121.92C507.975 122.101 508.354 122.411 508.642 122.848C508.941 123.285 509.09 123.893 509.09 124.672V128.72L509.25 130H507.33ZM501.762 130L501.922 128.72V123.088L501.762 121.84H503.25L503.522 122.784V128.72L503.682 130H501.762ZM512.137 127.664V120.688L512.057 119.568H513.817L513.737 120.688V127.568C513.737 128.037 513.843 128.363 514.057 128.544C514.27 128.725 514.595 128.816 515.033 128.816C515.257 128.816 515.449 128.795 515.609 128.752C515.769 128.709 515.923 128.651 516.073 128.576L516.345 128.736V129.952C516.11 130.027 515.859 130.085 515.593 130.128C515.337 130.171 515.081 130.192 514.825 130.192C514.345 130.192 513.902 130.117 513.497 129.968C513.091 129.819 512.761 129.563 512.505 129.2C512.259 128.827 512.137 128.315 512.137 127.664ZM510.761 123.264V121.84H511.689L512.937 122.32L514.185 121.84H516.137V123.264L515.337 123.184H511.561L510.761 123.264ZM523.561 122.032V123.392L523.289 123.552C523.001 123.381 522.675 123.248 522.313 123.152C521.961 123.056 521.561 123.008 521.113 123.008C520.835 123.008 520.569 123.035 520.313 123.088C520.057 123.131 519.843 123.221 519.673 123.36C519.513 123.488 519.433 123.675 519.433 123.92C519.433 124.197 519.545 124.421 519.769 124.592C519.993 124.752 520.275 124.885 520.617 124.992C520.969 125.099 521.337 125.211 521.721 125.328C522.115 125.445 522.483 125.6 522.825 125.792C523.177 125.973 523.459 126.224 523.673 126.544C523.897 126.864 524.009 127.28 524.009 127.792C524.009 128.411 523.849 128.896 523.529 129.248C523.219 129.589 522.803 129.835 522.281 129.984C521.769 130.123 521.209 130.192 520.601 130.192C520.014 130.192 519.486 130.144 519.017 130.048C518.558 129.952 518.169 129.851 517.849 129.744V128.368L518.121 128.208C518.419 128.389 518.766 128.539 519.161 128.656C519.555 128.773 520.051 128.832 520.649 128.832C520.969 128.832 521.262 128.811 521.529 128.768C521.806 128.715 522.03 128.619 522.201 128.48C522.371 128.331 522.457 128.123 522.457 127.856C522.457 127.547 522.345 127.307 522.121 127.136C521.907 126.955 521.625 126.811 521.273 126.704C520.931 126.597 520.563 126.491 520.169 126.384C519.785 126.277 519.417 126.139 519.065 125.968C518.713 125.787 518.425 125.541 518.201 125.232C517.987 124.912 517.881 124.491 517.881 123.968C517.881 123.499 517.966 123.115 518.137 122.816C518.318 122.517 518.563 122.283 518.873 122.112C519.193 121.941 519.55 121.824 519.945 121.76C520.35 121.685 520.766 121.648 521.193 121.648C521.673 121.648 522.11 121.685 522.505 121.76C522.899 121.824 523.251 121.915 523.561 122.032ZM529.113 130L533.241 118.8H535.225L539.353 130H537.513L537.145 128.72L534.457 121.008L534.297 120H534.169L534.009 121.008L531.321 128.72L530.953 130H529.113ZM531.113 126.976V125.52H537.337V126.976H531.113ZM546.377 130L546.537 128.72V124.72C546.537 124.155 546.377 123.733 546.057 123.456C545.737 123.179 545.246 123.04 544.585 123.04C544.126 123.04 543.732 123.099 543.401 123.216C543.081 123.333 542.814 123.472 542.601 123.632C542.388 123.792 542.222 123.936 542.105 124.064V123.168L543.753 121.808C543.956 121.755 544.164 121.717 544.377 121.696C544.601 121.664 544.83 121.648 545.065 121.648C545.598 121.648 546.094 121.739 546.553 121.92C547.022 122.101 547.401 122.411 547.689 122.848C547.988 123.285 548.137 123.893 548.137 124.672V128.72L548.297 130H546.377ZM540.809 130L540.969 128.72V123.088L540.809 121.84H542.297L542.569 122.784V128.72L542.729 130H540.809ZM553.807 130.192C553.114 130.192 552.495 130.027 551.951 129.696C551.407 129.365 550.975 128.88 550.655 128.24C550.346 127.6 550.191 126.827 550.191 125.92C550.191 124.96 550.357 124.165 550.687 123.536C551.018 122.896 551.455 122.421 551.999 122.112C552.543 121.803 553.13 121.648 553.759 121.648C554.037 121.648 554.298 121.675 554.543 121.728C554.789 121.771 555.018 121.824 555.231 121.888L556.959 123.248V124.208C556.778 123.995 556.559 123.797 556.303 123.616C556.047 123.435 555.743 123.291 555.391 123.184C555.05 123.067 554.645 123.008 554.175 123.008C553.642 123.008 553.199 123.104 552.847 123.296C552.506 123.488 552.25 123.797 552.079 124.224C551.909 124.651 551.823 125.216 551.823 125.92C551.823 126.912 552.01 127.648 552.383 128.128C552.757 128.597 553.375 128.832 554.239 128.832C554.687 128.832 555.061 128.779 555.359 128.672C555.669 128.555 555.919 128.416 556.111 128.256C556.314 128.085 556.474 127.909 556.591 127.728L556.671 128.576L555.215 130C555.013 130.053 554.789 130.096 554.543 130.128C554.309 130.171 554.063 130.192 553.807 130.192ZM556.367 130L556.127 129.072V119.632L555.967 118.352H557.887L557.727 119.632V128.72L557.887 130H556.367ZM564.469 130L564.629 128.72V120.08L564.469 118.8H571.109V120.416L570.149 120.256H566.277V123.84H570.741V125.44L569.781 125.312H566.277V128.72L566.437 130H564.469ZM575.837 130.192C575.474 130.192 575.106 130.144 574.733 130.048C574.359 129.963 574.018 129.813 573.709 129.6C573.41 129.376 573.17 129.077 572.989 128.704C572.818 128.32 572.733 127.829 572.733 127.232V123.12L572.573 121.84H574.493L574.333 123.12V127.072C574.333 127.541 574.413 127.909 574.573 128.176C574.733 128.432 574.957 128.608 575.245 128.704C575.533 128.8 575.869 128.848 576.253 128.848C576.882 128.848 577.373 128.757 577.725 128.576C578.077 128.395 578.381 128.171 578.637 127.904V128.784L577.245 130C577.042 130.053 576.823 130.096 576.589 130.128C576.354 130.171 576.103 130.192 575.837 130.192ZM578.541 130L578.301 129.008V123.12L578.141 121.84H580.061L579.901 123.12V128.736L580.061 130H578.541ZM587.861 130L588.021 128.72V124.72C588.021 124.155 587.861 123.733 587.541 123.456C587.221 123.179 586.731 123.04 586.069 123.04C585.611 123.04 585.216 123.099 584.885 123.216C584.565 123.333 584.299 123.472 584.085 123.632C583.872 123.792 583.707 123.936 583.589 124.064V123.168L585.237 121.808C585.44 121.755 585.648 121.717 585.861 121.696C586.085 121.664 586.315 121.648 586.549 121.648C587.083 121.648 587.579 121.739 588.037 121.92C588.507 122.101 588.885 122.411 589.173 122.848C589.472 123.285 589.621 123.893 589.621 124.672V128.72L589.781 130H587.861ZM582.293 130L582.453 128.72V123.088L582.293 121.84H583.781L584.053 122.784V128.72L584.213 130H582.293ZM595.292 130.192C594.598 130.192 593.98 130.027 593.436 129.696C592.892 129.365 592.46 128.88 592.14 128.24C591.83 127.6 591.676 126.827 591.676 125.92C591.676 124.96 591.841 124.165 592.172 123.536C592.502 122.896 592.94 122.421 593.484 122.112C594.028 121.803 594.614 121.648 595.244 121.648C595.521 121.648 595.782 121.675 596.028 121.728C596.273 121.771 596.502 121.824 596.716 121.888L598.444 123.248V124.208C598.262 123.995 598.044 123.797 597.788 123.616C597.532 123.435 597.228 123.291 596.876 123.184C596.534 123.067 596.129 123.008 595.66 123.008C595.126 123.008 594.684 123.104 594.332 123.296C593.99 123.488 593.734 123.797 593.564 124.224C593.393 124.651 593.308 125.216 593.308 125.92C593.308 126.912 593.494 127.648 593.868 128.128C594.241 128.597 594.86 128.832 595.724 128.832C596.172 128.832 596.545 128.779 596.844 128.672C597.153 128.555 597.404 128.416 597.596 128.256C597.798 128.085 597.958 127.909 598.076 127.728L598.156 128.576L596.7 130C596.497 130.053 596.273 130.096 596.028 130.128C595.793 130.171 595.548 130.192 595.292 130.192ZM597.852 130L597.612 129.072V119.632L597.452 118.352H599.372L599.212 119.632V128.72L599.372 130H597.852ZM603.571 120.576C603.283 120.576 603.038 120.485 602.835 120.304C602.643 120.123 602.547 119.872 602.547 119.552C602.547 119.232 602.643 118.981 602.835 118.8C603.038 118.619 603.283 118.528 603.571 118.528C603.849 118.528 604.083 118.619 604.275 118.8C604.478 118.981 604.579 119.232 604.579 119.552C604.579 119.872 604.478 120.123 604.275 120.304C604.083 120.485 603.849 120.576 603.571 120.576ZM602.819 130L602.979 128.72V123.152H601.267V121.84H604.739L604.579 123.12V128.72L604.739 130H602.819ZM612.674 130L612.834 128.72V124.72C612.834 124.155 612.674 123.733 612.354 123.456C612.034 123.179 611.543 123.04 610.882 123.04C610.423 123.04 610.029 123.099 609.698 123.216C609.378 123.333 609.111 123.472 608.898 123.632C608.685 123.792 608.519 123.936 608.402 124.064V123.168L610.05 121.808C610.253 121.755 610.461 121.717 610.674 121.696C610.898 121.664 611.127 121.648 611.362 121.648C611.895 121.648 612.391 121.739 612.85 121.92C613.319 122.101 613.698 122.411 613.986 122.848C614.285 123.285 614.434 123.893 614.434 124.672V128.72L614.594 130H612.674ZM607.106 130L607.266 128.72V123.088L607.106 121.84H608.594L608.866 122.784V128.72L609.026 130H607.106ZM619.848 133.52C619.379 133.52 618.931 133.477 618.504 133.392C618.088 133.317 617.704 133.216 617.352 133.088V131.792L617.624 131.632C617.902 131.781 618.216 131.909 618.568 132.016C618.931 132.123 619.352 132.171 619.832 132.16C620.323 132.16 620.76 132.091 621.144 131.952C621.528 131.813 621.832 131.589 622.056 131.28C622.291 130.981 622.408 130.571 622.408 130.048V122.928L622.84 121.84H624.12L623.96 123.12V130.048C623.96 130.72 623.843 131.28 623.608 131.728C623.374 132.176 623.059 132.528 622.664 132.784C622.28 133.051 621.843 133.237 621.352 133.344C620.862 133.461 620.36 133.52 619.848 133.52ZM620.04 130.192C619.4 130.192 618.808 130.032 618.264 129.712C617.731 129.392 617.299 128.912 616.968 128.272C616.648 127.632 616.488 126.843 616.488 125.904C616.488 124.955 616.648 124.171 616.968 123.552C617.288 122.923 617.715 122.448 618.248 122.128C618.782 121.808 619.374 121.648 620.024 121.648C620.291 121.648 620.542 121.669 620.776 121.712C621.011 121.755 621.23 121.813 621.432 121.888L623.208 123.344V124.208C623.027 123.995 622.803 123.797 622.536 123.616C622.27 123.435 621.96 123.291 621.608 123.184C621.256 123.067 620.862 123.008 620.424 123.008C619.902 123.008 619.47 123.104 619.128 123.296C618.787 123.488 618.531 123.797 618.36 124.224C618.2 124.651 618.12 125.205 618.12 125.888C618.12 126.88 618.307 127.621 618.68 128.112C619.054 128.592 619.678 128.832 620.552 128.832C620.99 128.832 621.352 128.784 621.64 128.688C621.939 128.581 622.179 128.443 622.36 128.272C622.552 128.101 622.712 127.92 622.84 127.728V128.512L621.416 129.968C621.203 130.032 620.979 130.085 620.744 130.128C620.51 130.171 620.275 130.192 620.04 130.192ZM630.703 130L630.863 128.72V120.08L630.703 118.8H637.343V120.416L636.383 120.256H632.511V123.84H636.975V125.44L636.015 125.312H632.511V128.72L632.671 130H630.703ZM642.595 130.192C641.913 130.192 641.273 130.053 640.675 129.776C640.078 129.499 639.598 129.045 639.235 128.416C638.873 127.787 638.691 126.955 638.691 125.92C638.691 125.131 638.793 124.469 638.995 123.936C639.209 123.392 639.497 122.949 639.859 122.608C640.233 122.267 640.654 122.021 641.123 121.872C641.593 121.723 642.083 121.648 642.595 121.648C643.107 121.648 643.598 121.723 644.067 121.872C644.537 122.021 644.953 122.267 645.315 122.608C645.678 122.949 645.966 123.392 646.179 123.936C646.393 124.469 646.499 125.131 646.499 125.92C646.499 126.955 646.318 127.787 645.955 128.416C645.593 129.045 645.113 129.499 644.515 129.776C643.929 130.053 643.289 130.192 642.595 130.192ZM642.595 128.832C643.321 128.832 643.881 128.608 644.275 128.16C644.67 127.712 644.867 126.955 644.867 125.888C644.867 125.173 644.777 124.608 644.595 124.192C644.425 123.765 644.169 123.461 643.827 123.28C643.497 123.099 643.086 123.008 642.595 123.008C642.105 123.008 641.689 123.099 641.347 123.28C641.017 123.461 640.761 123.765 640.579 124.192C640.409 124.608 640.323 125.173 640.323 125.888C640.323 126.955 640.521 127.712 640.915 128.16C641.31 128.608 641.87 128.832 642.595 128.832ZM648.512 130L648.672 128.72V123.12L648.512 121.84H649.792L650.048 122.784H650.272V128.72L650.416 130H648.512ZM649.776 124.928V123.232L651.248 121.856C651.621 121.717 652.005 121.648 652.4 121.648C652.592 121.648 652.784 121.664 652.976 121.696C653.179 121.728 653.381 121.787 653.584 121.872V123.2L653.296 123.36C653.104 123.275 652.917 123.221 652.736 123.2C652.565 123.179 652.405 123.168 652.256 123.168C651.691 123.168 651.2 123.317 650.784 123.616C650.368 123.904 650.032 124.341 649.776 124.928ZM662.827 130.192C662.176 130.203 661.557 130.139 660.971 130C660.395 129.851 659.877 129.664 659.419 129.44V128L659.755 127.84C660.171 128.107 660.608 128.315 661.067 128.464C661.525 128.603 662.053 128.672 662.651 128.672C663.387 128.672 663.968 128.549 664.395 128.304C664.832 128.059 665.051 127.68 665.051 127.168C665.051 126.805 664.949 126.507 664.747 126.272C664.555 126.027 664.293 125.819 663.963 125.648C663.632 125.467 663.269 125.301 662.875 125.152C662.491 125.003 662.101 124.843 661.707 124.672C661.312 124.491 660.949 124.272 660.619 124.016C660.288 123.76 660.021 123.445 659.819 123.072C659.627 122.688 659.531 122.219 659.531 121.664C659.531 120.949 659.696 120.368 660.027 119.92C660.357 119.472 660.8 119.141 661.355 118.928C661.909 118.715 662.528 118.608 663.211 118.608C663.68 118.608 664.155 118.656 664.635 118.752C665.125 118.848 665.6 118.992 666.059 119.184V120.608L665.707 120.768C665.355 120.555 664.981 120.395 664.587 120.288C664.192 120.181 663.792 120.128 663.387 120.128C663.003 120.128 662.645 120.181 662.315 120.288C661.984 120.384 661.717 120.544 661.515 120.768C661.312 120.981 661.211 121.269 661.211 121.632C661.211 121.984 661.307 122.277 661.499 122.512C661.701 122.747 661.968 122.949 662.299 123.12C662.629 123.291 662.992 123.456 663.387 123.616C663.781 123.765 664.176 123.931 664.571 124.112C664.965 124.283 665.328 124.496 665.659 124.752C665.989 125.008 666.251 125.328 666.443 125.712C666.645 126.085 666.747 126.549 666.747 127.104C666.747 127.637 666.645 128.101 666.443 128.496C666.24 128.88 665.957 129.2 665.595 129.456C665.243 129.701 664.832 129.883 664.363 130C663.893 130.128 663.381 130.192 662.827 130.192ZM669.34 127.664V120.688L669.26 119.568H671.02L670.94 120.688V127.568C670.94 128.037 671.046 128.363 671.26 128.544C671.473 128.725 671.798 128.816 672.236 128.816C672.46 128.816 672.652 128.795 672.812 128.752C672.972 128.709 673.126 128.651 673.276 128.576L673.548 128.736V129.952C673.313 130.027 673.062 130.085 672.796 130.128C672.54 130.171 672.284 130.192 672.028 130.192C671.548 130.192 671.105 130.117 670.7 129.968C670.294 129.819 669.964 129.563 669.708 129.2C669.462 128.827 669.34 128.315 669.34 127.664ZM667.964 123.264V121.84H668.892L670.14 122.32L671.388 121.84H673.34V123.264L672.54 123.184H668.764L667.964 123.264ZM680.588 130L680.348 129.056V124.896C680.348 124.491 680.295 124.149 680.188 123.872C680.092 123.584 679.879 123.365 679.548 123.216C679.228 123.067 678.737 122.992 678.076 122.992C677.692 122.992 677.335 123.029 677.004 123.104C676.673 123.168 676.343 123.291 676.012 123.472L675.74 123.312V122.016C676.209 121.867 676.652 121.771 677.068 121.728C677.495 121.675 677.879 121.648 678.22 121.648C679.191 121.648 679.943 121.771 680.476 122.016C681.02 122.261 681.399 122.629 681.612 123.12C681.836 123.6 681.948 124.192 681.948 124.896V128.72L682.092 130H680.588ZM678.028 130.192C677.548 130.192 677.073 130.117 676.604 129.968C676.145 129.808 675.761 129.536 675.452 129.152C675.153 128.768 675.004 128.24 675.004 127.568C675.004 127.035 675.1 126.597 675.292 126.256C675.495 125.915 675.756 125.653 676.076 125.472C676.407 125.28 676.775 125.147 677.18 125.072C677.585 124.997 677.991 124.96 678.396 124.96C678.631 124.96 678.855 124.971 679.068 124.992C679.292 125.003 679.511 125.029 679.724 125.072L680.748 125.696V126.544C680.46 126.395 680.151 126.293 679.82 126.24C679.5 126.176 679.137 126.144 678.732 126.144C678.017 126.144 677.484 126.245 677.132 126.448C676.78 126.64 676.604 127.008 676.604 127.552C676.604 128.032 676.743 128.379 677.02 128.592C677.297 128.805 677.74 128.912 678.348 128.912C679.02 128.912 679.543 128.805 679.916 128.592C680.3 128.379 680.593 128.123 680.796 127.824L681.036 128.496L679.436 130.016C679.223 130.069 678.993 130.112 678.748 130.144C678.513 130.176 678.273 130.192 678.028 130.192ZM684.184 130L684.344 128.72V123.12L684.184 121.84H685.464L685.72 122.784H685.944V128.72L686.088 130H684.184ZM685.448 124.928V123.232L686.92 121.856C687.293 121.717 687.677 121.648 688.072 121.648C688.264 121.648 688.456 121.664 688.648 121.696C688.851 121.728 689.053 121.787 689.256 121.872V123.2L688.968 123.36C688.776 123.275 688.589 123.221 688.408 123.2C688.237 123.179 688.077 123.168 687.928 123.168C687.363 123.168 686.872 123.317 686.456 123.616C686.04 123.904 685.704 124.341 685.448 124.928ZM692.012 127.664V120.688L691.932 119.568H693.692L693.612 120.688V127.568C693.612 128.037 693.718 128.363 693.932 128.544C694.145 128.725 694.47 128.816 694.908 128.816C695.132 128.816 695.324 128.795 695.484 128.752C695.644 128.709 695.798 128.651 695.948 128.576L696.22 128.736V129.952C695.985 130.027 695.734 130.085 695.468 130.128C695.212 130.171 694.956 130.192 694.7 130.192C694.22 130.192 693.777 130.117 693.372 129.968C692.966 129.819 692.636 129.563 692.38 129.2C692.134 128.827 692.012 128.315 692.012 127.664ZM690.636 123.264V121.84H691.564L692.812 122.32L694.06 121.84H696.012V123.264L695.212 123.184H691.436L690.636 123.264ZM701.149 130.192C700.787 130.192 700.419 130.144 700.045 130.048C699.672 129.963 699.331 129.813 699.021 129.6C698.723 129.376 698.483 129.077 698.301 128.704C698.131 128.32 698.045 127.829 698.045 127.232V123.12L697.885 121.84H699.805L699.645 123.12V127.072C699.645 127.541 699.725 127.909 699.885 128.176C700.045 128.432 700.269 128.608 700.557 128.704C700.845 128.8 701.181 128.848 701.565 128.848C702.195 128.848 702.685 128.757 703.037 128.576C703.389 128.395 703.693 128.171 703.949 127.904V128.784L702.557 130C702.355 130.053 702.136 130.096 701.901 130.128C701.667 130.171 701.416 130.192 701.149 130.192ZM703.853 130L703.613 129.008V123.12L703.453 121.84H705.373L705.213 123.12V128.736L705.373 130H703.853ZM711.542 130.192C711.307 130.192 711.083 130.176 710.87 130.144C710.657 130.112 710.459 130.069 710.278 130.016L708.598 128.384V127.472C708.811 127.771 709.046 128.021 709.302 128.224C709.558 128.427 709.841 128.581 710.15 128.688C710.47 128.784 710.833 128.832 711.238 128.832C712.134 128.832 712.763 128.592 713.126 128.112C713.489 127.632 713.67 126.917 713.67 125.968C713.67 125.264 713.585 124.699 713.414 124.272C713.254 123.835 712.998 123.515 712.646 123.312C712.294 123.109 711.851 123.008 711.318 123.008C710.849 123.008 710.438 123.067 710.086 123.184C709.734 123.301 709.435 123.456 709.19 123.648C708.945 123.84 708.726 124.043 708.534 124.256V123.376L710.294 121.856C710.507 121.792 710.731 121.744 710.966 121.712C711.201 121.669 711.435 121.648 711.67 121.648C712.278 121.648 712.859 121.797 713.414 122.096C713.969 122.384 714.422 122.843 714.774 123.472C715.126 124.101 715.302 124.912 715.302 125.904C715.302 126.736 715.158 127.477 714.87 128.128C714.593 128.768 714.177 129.275 713.622 129.648C713.067 130.011 712.374 130.192 711.542 130.192ZM707.606 133.52L707.766 132.24V123.12L707.606 121.84H709.046L709.366 123.312V132.24L709.526 133.52H707.606ZM722.795 122.032V123.392L722.523 123.552C722.235 123.381 721.91 123.248 721.547 123.152C721.195 123.056 720.795 123.008 720.347 123.008C720.07 123.008 719.803 123.035 719.547 123.088C719.291 123.131 719.078 123.221 718.907 123.36C718.747 123.488 718.667 123.675 718.667 123.92C718.667 124.197 718.779 124.421 719.003 124.592C719.227 124.752 719.51 124.885 719.851 124.992C720.203 125.099 720.571 125.211 720.955 125.328C721.35 125.445 721.718 125.6 722.059 125.792C722.411 125.973 722.694 126.224 722.907 126.544C723.131 126.864 723.243 127.28 723.243 127.792C723.243 128.411 723.083 128.896 722.763 129.248C722.454 129.589 722.038 129.835 721.515 129.984C721.003 130.123 720.443 130.192 719.835 130.192C719.248 130.192 718.72 130.144 718.251 130.048C717.792 129.952 717.403 129.851 717.083 129.744V128.368L717.355 128.208C717.654 128.389 718 128.539 718.395 128.656C718.79 128.773 719.286 128.832 719.883 128.832C720.203 128.832 720.496 128.811 720.763 128.768C721.04 128.715 721.264 128.619 721.435 128.48C721.606 128.331 721.691 128.123 721.691 127.856C721.691 127.547 721.579 127.307 721.355 127.136C721.142 126.955 720.859 126.811 720.507 126.704C720.166 126.597 719.798 126.491 719.403 126.384C719.019 126.277 718.651 126.139 718.299 125.968C717.947 125.787 717.659 125.541 717.435 125.232C717.222 124.912 717.115 124.491 717.115 123.968C717.115 123.499 717.2 123.115 717.371 122.816C717.552 122.517 717.798 122.283 718.107 122.112C718.427 121.941 718.784 121.824 719.179 121.76C719.584 121.685 720 121.648 720.427 121.648C720.907 121.648 721.344 121.685 721.739 121.76C722.134 121.824 722.486 121.915 722.795 122.032Z"
        fill="#9E9E9E" />
</svg>
    