<svg width="1920" height="103" viewBox="0 0 1920 103" fill="none" xmlns="http://www.w3.org/2000/svg">
    <rect width="51.1" height="51.1" transform="matrix(-1 0 0 1 1920 51.9004)" fill="#131313" />
    <rect width="51.1" height="51.1" transform="matrix(-1 0 0 1 1815 51.9004)" fill="#131313" />
    <rect width="51.1" height="51.1" transform="matrix(-1 0 0 1 51.1 51.9004)" fill="#131313" />
    <rect width="51.1" height="51.1" transform="matrix(-1 0 0 1 102.2 51.9004)" fill="#131313" />
    <rect width="51.1" height="51.1" transform="matrix(-1 0 0 1 153.3 0.799805)" fill="#131313" />
    <rect x="-0.35" y="0.35" width="50.4" height="50.4" transform="matrix(-1 0 0 1 203.7 51.9004)"
        stroke="#131313" stroke-width="0.7" />
    <rect x="-0.35" y="0.35" width="50.4" height="50.4" transform="matrix(-1 0 0 1 1763.9 51.9004)"
        stroke="#131313" stroke-width="0.7" />
</svg>
    