<svg width="1920" height="152" viewBox="0 0 1920 152" fill="none" xmlns="http://www.w3.org/2000/svg">
    <path
        d="M0.860001 87.176L15.98 96.84H5.328L-9.792 87.176H0.860001ZM-37.376 78.072L-39.128 84.576L-39.828 87.176L-42.436 96.84L-43.136 99.44L-44.884 105.928H-37.408L-35.66 99.44L-34.96 96.84L-32.356 87.176L-31.656 84.576L-29.904 78.072H-37.376ZM-13.136 99.44L-14.884 105.928H4.904L15.076 99.44H-13.136ZM1.088 78.072L-9.104 84.576H19.24L20.992 78.072H1.088ZM28.528 78.072L26.776 84.576L26.076 87.176L23.472 96.84L22.772 99.44L21.024 105.928H28.5L30.248 99.44L30.948 96.84L33.552 87.176L34.252 84.576L36 78.072H28.528ZM-52.492 78.072L-54.244 84.576L-54.944 87.176L-57.548 96.84L-58.248 99.44L-60 105.928H-52.524L-50.776 99.44L-50.076 96.84L-47.472 87.176L-46.772 84.576L-45.02 78.072H-52.492ZM-22.348 78.072L-24.1 84.576L-24.8 87.176L-27.404 96.84L-28.104 99.44L-29.852 105.928H-22.376L-20.628 99.44L-19.928 96.84L-17.324 87.176L-16.624 84.576L-14.872 78.072H-22.348Z"
        fill="#E4E4E4" />
    <path
        d="M260 73.416L268.452 110.584H271.656C273.066 110.584 274.433 110.1 275.53 109.214C276.626 108.327 277.385 107.091 277.68 105.712L283.084 80.352C283.115 80.1977 283.199 80.059 283.321 79.9592C283.442 79.8593 283.595 79.8045 283.752 79.804C284.072 79.804 284.352 80.036 284.42 80.352L289.828 105.712C290.123 107.091 290.882 108.327 291.978 109.214C293.075 110.1 294.442 110.584 295.852 110.584H299.072L307.524 73.416H305.264C302.784 73.416 300.628 75.136 300.08 77.556L295.04 99.736L290.616 79.032C290.413 78.0953 290.022 77.2098 289.465 76.4298C288.908 75.6499 288.198 74.9918 287.377 74.496C286.557 74.0001 285.645 73.677 284.695 73.5463C283.746 73.4156 282.78 73.4802 281.856 73.736C279.3 74.44 277.404 76.6 276.852 79.196L272.476 99.704L267.436 77.556C267.169 76.3807 266.51 75.3311 265.568 74.5789C264.627 73.8268 263.457 73.4168 262.252 73.416H260ZM315.968 73.416C314.96 73.416 313.993 73.8162 313.28 74.5287C312.566 75.2413 312.165 76.2078 312.164 77.216V110.584H314.704C315.712 110.583 316.678 110.182 317.391 109.47C318.104 108.758 318.506 107.792 318.508 106.784V73.412L315.968 73.416ZM323.08 73.416L335.712 92.056L323.152 110.584H328.452C329.924 110.584 331.3 109.86 332.124 108.64L339.148 98.28C339.192 98.2164 339.251 98.1646 339.32 98.1287C339.388 98.0929 339.465 98.0741 339.542 98.0741C339.619 98.0741 339.696 98.0929 339.764 98.1287C339.833 98.1646 339.892 98.2164 339.936 98.28L346.952 108.64C347.776 109.86 349.152 110.584 350.624 110.584H355.928L343.368 92.056L356 73.416H350.696C349.224 73.416 347.848 74.14 347.024 75.36L339.936 85.828C339.892 85.8915 339.833 85.9434 339.764 85.9793C339.696 86.0151 339.619 86.0338 339.542 86.0338C339.465 86.0338 339.388 86.0151 339.32 85.9793C339.251 85.9434 339.192 85.8915 339.148 85.828L332.056 75.36C331.649 74.7606 331.102 74.2699 330.462 73.931C329.822 73.5921 329.108 73.4153 328.384 73.416H323.08Z"
        fill="#E4E4E4" />
    <g clip-path="url(#clip0_145_8)">
        <path
            d="M622.753 81.4405C627.358 81.4405 631.04 82.592 633.857 85.152C635.781 86.8945 636.857 89.379 636.827 91.9845C636.819 93.2695 636.552 94.5397 636.042 95.7191C635.532 96.8984 634.789 97.9625 633.857 98.8475C631.221 101.271 627.116 102.559 622.752 102.559C618.39 102.559 614.36 101.271 611.678 98.8475C609.724 97.105 608.633 94.6055 608.663 91.9845C608.663 89.3945 609.754 86.9095 611.678 85.152C614.178 82.8795 618.602 81.4405 622.753 81.4405ZM622.768 99.7865C625.071 99.7865 627.207 98.9835 628.707 97.499C630.206 95.9995 630.873 94.1965 630.873 91.9845C630.873 89.8635 630.131 87.8795 628.706 86.47C627.237 85.016 625.04 84.1975 622.768 84.1975C620.495 84.1975 618.299 85.016 616.814 86.47C615.39 87.879 614.648 89.8635 614.648 91.985C614.618 94.03 615.39 96.015 616.814 97.4995C618.299 98.969 620.48 99.7865 622.768 99.7865ZM598.559 89.954C599.361 90.166 600.134 90.424 600.892 90.772C601.591 91.0905 602.232 91.5261 602.785 92.06C603.77 93.09 604.33 94.4685 604.315 95.8925C604.325 96.6442 604.159 97.3879 603.83 98.064C603.501 98.7401 603.019 99.33 602.422 99.7865C601.363 100.59 600.159 101.182 598.877 101.529C596.946 102.134 594.93 102.421 592.908 102.377C591.148 102.377 590.174 102.174 588.839 101.896L588.454 101.816C586.984 101.483 585.545 101.029 584.166 100.423C584.104 100.38 584.029 100.359 583.954 100.362C583.727 100.362 583.545 100.559 583.545 100.786V101.801H580.606V94.4085H583.227C583.242 95.1573 583.479 95.8847 583.909 96.4985C584.969 97.802 586.106 98.302 587.196 98.696C589.029 99.302 590.953 99.62 592.877 99.6805C595.64 99.6805 597.255 99.0105 597.605 98.8655L597.65 98.847L597.681 98.8355C597.989 98.7225 599.24 98.264 599.24 96.8775C599.24 95.506 598.071 95.2075 597.305 95.0125L597.195 94.9835C596.341 94.7535 594.385 94.5475 592.247 94.322L591.484 94.242C589.06 93.9845 586.636 93.6055 585.5 93.363C583.011 92.8145 582.029 91.9045 581.42 91.3405L581.379 91.3025C580.49 90.3547 579.997 89.1032 580 87.804C580 85.319 581.697 83.819 583.788 82.8955C586.015 81.8955 588.666 81.4555 590.984 81.4555C595.089 81.471 598.422 82.804 599.619 83.4255C600.104 83.683 600.346 83.365 600.346 83.1225V82.3805H602.982V88.8185H600.619C600.407 87.863 599.891 87.0019 599.149 86.364C598.697 86.0007 598.197 85.7001 597.664 85.4705C595.68 84.637 593.559 84.213 591.408 84.243C589.196 84.243 587.075 84.668 586.015 85.3195C585.348 85.7285 585.015 86.2435 585.015 86.8495C585.015 87.713 585.742 88.0615 586.106 88.1675C587.089 88.466 589.27 88.6825 590.966 88.852C591.334 88.8885 591.679 88.923 591.984 88.955C593.62 89.122 597.044 89.5755 598.559 89.954ZM689.395 84.971V82.5775H700V84.9255H697.622C696.758 84.9255 696.41 85.0925 695.758 85.8195L688.623 93.9695C688.549 94.07 688.516 94.1948 688.532 94.3185V98.03C688.544 98.2025 688.564 98.3744 688.592 98.545C688.634 98.6547 688.701 98.753 688.788 98.8319C688.875 98.9109 688.979 98.9683 689.092 98.9995C689.308 99.0296 689.526 99.0447 689.744 99.0445H692.168V101.393H679.306V99.045H681.609C681.826 99.045 682.044 99.0298 682.26 98.9995C682.373 98.9659 682.479 98.9077 682.568 98.8291C682.657 98.7505 682.728 98.6534 682.775 98.5445C682.805 98.3795 682.82 98.2122 682.82 98.0445V94.3335C682.82 94.2125 682.82 94.2125 682.654 94.0155C680.305 91.34 677.952 88.6687 675.594 86.0015C675.215 85.6075 674.564 84.971 673.564 84.971H671.276V82.623H684.214V84.971H682.654C682.305 84.971 682.063 85.3195 682.366 85.6985C682.366 85.6985 686.714 90.8945 686.759 90.955C686.805 91.016 686.835 91.016 686.896 90.97C686.956 90.925 691.365 85.7435 691.395 85.6985C691.467 85.6019 691.498 85.4807 691.481 85.3615C691.464 85.2422 691.4 85.1345 691.304 85.062C691.214 85.0025 691.109 84.9708 691.001 84.971H689.395ZM657.975 84.9555H660.399C661.505 84.9555 661.702 85.3795 661.717 86.41L661.854 94.242L648.946 82.622H639.72V84.9705H641.78C643.265 84.9705 643.371 85.7885 643.371 86.5155V97.5845C643.373 98.227 643.376 99.0595 642.462 99.0595H639.932V101.393H650.749V99.0445H648.113C647.053 99.0445 647.007 98.5595 646.992 97.5295V88.1215L661.854 101.377H665.641L665.444 86.394C665.459 85.304 665.535 84.94 666.656 84.94H669.019V82.5915H657.975V84.9555Z"
            fill="#E4E4E4" />
    </g>
    <path
        d="M1016.52 87.452C1015.43 86.3497 1014.13 85.4739 1012.71 84.8752C1011.28 84.2765 1009.75 83.9668 1008.2 83.964C1005.92 83.964 1003.64 84.812 1002.38 85.648C999.776 87.384 997.636 89.264 993.784 94.24V97.816C997.052 93.56 1000.14 90.204 1002.49 88.36C1004.04 87.12 1006.22 86.356 1008.2 86.356C1013.3 86.356 1017.61 90.664 1017.61 95.764V97.916C1017.61 100.436 1016.62 102.808 1014.82 104.588C1013.06 106.342 1010.68 107.327 1008.2 107.328C1004.01 107.328 1000.32 104.452 999.32 100.524L997.632 102.564C998.86 106.684 1003.3 109.72 1008.2 109.72C1011.31 109.72 1014.26 108.48 1016.52 106.232C1018.76 103.984 1020 101.032 1020 97.916V95.764C1020 92.652 1018.76 89.696 1016.52 87.452ZM965.316 86.356C966.94 86.356 968.344 86.704 969.612 87.42C970.208 86.676 970.808 86.072 971.256 85.624C969.916 84.6 967.644 83.964 965.316 83.964C961.996 83.964 958.98 85.164 956.828 87.336C954.692 89.496 953.508 92.484 953.508 95.764V109.72H955.9V95.76C955.9 90.22 959.772 86.356 965.316 86.356ZM988.028 109.712V95.76C988.028 91.472 984.668 88.108 980.376 88.108C978.376 88.108 976.472 88.92 975.004 90.388C974.288 91.0883 973.718 91.9237 973.326 92.8458C972.935 93.7678 972.73 94.7583 972.724 95.76V97.912C972.724 102.06 976.232 105.564 980.376 105.564C981.516 105.564 983.06 105.284 984.008 104.508V101.984C983.08 102.732 981.728 103.176 980.376 103.176C979.683 103.183 978.996 103.051 978.354 102.789C977.712 102.527 977.13 102.14 976.64 101.649C976.15 101.159 975.763 100.576 975.501 99.9343C975.239 99.2925 975.109 98.605 975.116 97.912V95.76C975.108 95.0673 975.239 94.3801 975.501 93.7388C975.763 93.0975 976.15 92.5149 976.64 92.0253C977.13 91.5356 977.713 91.1489 978.355 90.8876C978.996 90.6264 979.683 90.4959 980.376 90.504C981.069 90.4954 981.757 90.6254 982.399 90.8864C983.041 91.1474 983.624 91.5341 984.114 92.0238C984.605 92.5135 984.992 93.0963 985.254 93.7379C985.516 94.3795 985.648 95.067 985.64 95.76V109.716L988.028 109.712ZM924 94.384V95.156C924 99.3 925.572 103.168 928.428 106.044C929.835 107.463 931.511 108.587 933.358 109.351C935.205 110.115 937.186 110.503 939.184 110.492C942.464 110.492 945.376 109.748 947.832 108.288C949.856 107.08 950.752 105.86 950.832 105.748V92.88H938.6V95.268H948.44V105.004L948.432 105.012C947.28 106.164 944.544 108.092 939.184 108.092C937.491 108.108 935.812 107.784 934.246 107.14C932.68 106.495 931.259 105.543 930.068 104.34C927.677 101.883 926.354 98.5803 926.388 95.152V94.38C926.388 91.06 927.888 87.756 930.492 85.304C933.136 82.8161 936.63 81.4324 940.26 81.436C943.648 81.436 946.012 81.952 947.912 83.1V80.42C945.936 79.58 943.572 79.2 940.26 79.2C931.448 79.2 924 86.156 924 94.384ZM965.316 90.508C966.22 90.508 966.992 90.656 967.6 90.956C967.9 90.212 968.204 89.6 968.648 88.856C968 88.392 966.452 88.112 965.316 88.112C960.956 88.112 957.664 91.404 957.664 95.764V109.72H960.056V95.76C960.056 92.664 962.216 90.508 965.316 90.508ZM947.912 87.696V84.868C945.748 83.708 943.388 83.192 940.26 83.192C937.064 83.192 934.04 84.364 931.732 86.488C929.424 88.616 928.152 91.42 928.152 94.376V95.148C928.152 101.316 933.1 106.332 939.184 106.332C944.132 106.332 946.164 104.712 946.68 104.2V97.024H938.6V99.416H944.44V103.012L944.42 103.016C943.672 103.316 942.108 103.94 939.18 103.94C936.86 103.94 934.692 103.04 933.068 101.396C931.431 99.7306 930.521 97.4833 930.54 95.148V94.376C930.54 89.608 934.992 85.584 940.26 85.584C943.9 85.584 946.06 86.172 947.912 87.696ZM1004.33 92.2C1005.41 91.12 1006.82 90.504 1008.2 90.504C1011.15 90.504 1013.46 92.812 1013.46 95.76V97.912C1013.46 100.864 1011.15 103.176 1008.2 103.176C1006.77 103.176 1005.39 102.392 1004.31 100.976C1003.34 99.6706 1002.76 98.1173 1002.64 96.496L1000.7 98.86C1001.08 100.668 1002.02 102.4 1003.36 103.62C1004.74 104.872 1006.46 105.564 1008.2 105.564C1010.23 105.562 1012.17 104.755 1013.61 103.32C1015.04 101.886 1015.85 99.9408 1015.85 97.912V95.76C1015.85 93.764 1015.04 91.852 1013.57 90.388C1012.87 89.672 1012.04 89.1019 1011.11 88.7106C1010.19 88.3192 1009.2 88.1144 1008.2 88.108C1006.94 88.108 1004.93 88.564 1002.53 90.716L1002.52 90.724C1001.88 91.364 1000.38 92.868 999.464 93.94C997.928 95.62 995.692 98.156 993.784 100.692V104.424C995.9 101.704 997.116 100.184 999.104 97.888C1000.88 95.812 1003.09 93.288 1004.33 92.2ZM968.576 97.912C968.576 101.028 969.816 103.98 972.064 106.232C973.151 107.332 974.446 108.205 975.872 108.803C977.299 109.4 978.829 109.709 980.376 109.712C981.696 109.712 983.052 109.432 984.008 108.96V106.572C982.888 107.04 981.536 107.324 980.376 107.324C975.28 107.324 970.968 103.016 970.968 97.912V95.76C970.968 90.66 975.28 86.352 980.376 86.352C981.614 86.3451 982.841 86.5838 983.986 87.0544C985.131 87.5249 986.171 88.2179 987.047 89.0933C987.922 89.9687 988.615 91.009 989.086 92.154C989.556 93.299 989.795 94.526 989.788 95.764V109.716H992.18V95.3C992.031 92.2556 990.721 89.3841 988.52 87.276C986.342 85.1505 983.42 83.9593 980.376 83.956C977.264 83.956 974.312 85.196 972.064 87.448C970.962 88.5341 970.086 89.828 969.488 91.2547C968.889 92.6814 968.579 94.2127 968.576 95.76V97.912ZM996.248 88.66C996.98 87.78 997.736 86.888 998.632 86.136V73.512H996.248V88.66ZM1000.4 85.156V73.512H1002.78V83.52C1001.93 83.985 1001.13 84.5344 1000.4 85.16"
        fill="#E4E4E4" />
    <path
        d="M1270.81 113.548L1273.28 107.548L1268.46 96.368H1271.36L1274.62 104.288L1277.73 96.368H1280.57L1273.56 113.548H1270.81ZM1260.84 108.368C1258.01 108.368 1255.06 106.092 1255.06 102.256C1255.06 98.356 1257.91 96.132 1260.88 96.132C1262.43 96.132 1263.82 96.772 1264.67 97.776V96.368H1267.38V108.128H1264.67V106.6C1264.2 107.161 1263.62 107.611 1262.96 107.917C1262.29 108.223 1261.57 108.377 1260.84 108.368ZM1244.02 108.128V93.464H1249.05C1252.09 93.464 1254.33 95.788 1254.33 98.684C1254.33 101.596 1252.08 103.932 1249.03 103.932H1246.76V108.132L1244.02 108.128ZM1261.28 105.88C1263.29 105.88 1264.8 104.252 1264.8 102.224C1264.8 100.236 1263.29 98.6 1261.28 98.6C1260.81 98.5988 1260.34 98.6923 1259.9 98.8749C1259.47 99.0575 1259.07 99.3255 1258.74 99.6633C1258.41 100.001 1258.15 100.402 1257.98 100.841C1257.8 101.281 1257.72 101.751 1257.73 102.224C1257.73 104.272 1259.27 105.88 1261.28 105.88ZM1246.76 101.392H1248.84C1250.47 101.392 1251.58 100.192 1251.58 98.684C1251.59 98.3247 1251.52 97.9678 1251.39 97.6352C1251.25 97.3025 1251.05 97.0012 1250.79 96.7495C1250.54 96.4979 1250.23 96.3012 1249.9 96.1717C1249.56 96.0421 1249.2 95.9823 1248.84 95.996H1246.76V101.392ZM1248.99 85.14C1246.41 85.14 1244 84.22 1244 81.16V80.1H1247.68L1247.69 81.432C1247.69 82.18 1248.21 82.672 1249.06 82.672C1249.98 82.672 1250.28 82.204 1250.4 81.744C1250.49 81.4132 1250.48 81.0629 1250.38 80.736C1249.67 78.96 1244.79 78.152 1244.2 75.348C1244.07 74.7384 1244.06 74.1092 1244.17 73.496C1244.53 71.256 1246.52 70.456 1248.96 70.456C1250.9 70.456 1253.58 70.912 1253.58 73.9V74.868H1250.17V74.016C1250.17 73.268 1249.69 72.776 1248.89 72.776C1248.03 72.776 1247.73 73.264 1247.64 73.704C1247.59 73.9419 1247.59 74.1872 1247.64 74.424C1248.04 76.028 1253.24 76.884 1253.82 79.756C1253.88 80.044 1254 80.82 1253.83 82.004C1253.51 84.296 1251.47 85.14 1248.99 85.14H1248.99ZM1293.6 85.068C1291.05 85.068 1288.67 84.16 1288.67 81.132V80.08H1292.31V81.392C1292.31 82.132 1292.83 82.632 1293.68 82.632C1294.58 82.632 1294.89 82.164 1295 81.712C1295.09 81.3838 1295.08 81.0363 1294.98 80.712C1294.28 78.952 1289.45 78.148 1288.86 75.368C1288.73 74.7655 1288.72 74.1428 1288.83 73.536C1289.19 71.32 1291.17 70.524 1293.58 70.524C1295.5 70.524 1298.16 70.984 1298.16 73.944V74.904H1294.77V74.056C1294.77 73.316 1294.31 72.828 1293.51 72.828C1292.66 72.828 1292.36 73.308 1292.26 73.748C1292.22 73.9816 1292.23 74.2211 1292.28 74.452C1292.66 76.044 1297.82 76.892 1298.4 79.732C1298.46 80.024 1298.57 80.792 1298.41 81.964C1298.08 84.232 1296.06 85.068 1293.61 85.068H1293.6ZM1306.5 85.016C1303.98 85.016 1301.95 84.176 1301.71 81.616C1301.69 81.3192 1301.67 81.0216 1301.68 80.724V70.88H1305.14V81.032C1305.14 81.208 1305.14 81.404 1305.18 81.552C1305.24 81.892 1305.54 82.544 1306.5 82.544C1307.45 82.544 1307.74 81.892 1307.81 81.552C1307.84 81.38 1307.85 81.2059 1307.84 81.032V70.88H1311.31V80.724C1311.31 81.023 1311.3 81.3218 1311.28 81.62C1311.04 84.18 1309.02 85.016 1306.5 85.016ZM1335.12 84.868C1332.69 84.868 1330.53 83.984 1330.3 81.484C1330.27 81.1823 1330.25 80.8793 1330.25 80.576V74.808C1330.25 74.564 1330.28 74.128 1330.31 73.9C1330.62 71.336 1332.69 70.516 1335.12 70.516C1337.56 70.516 1339.68 71.328 1339.94 73.9C1339.98 74.34 1339.97 74.808 1339.97 74.808V75.264H1336.51V74.492C1336.51 74.492 1336.51 74.172 1336.47 73.972C1336.41 73.672 1336.14 72.972 1335.09 72.972C1334.1 72.972 1333.8 73.636 1333.73 73.972C1333.69 74.1856 1333.67 74.4027 1333.68 74.62V80.888C1333.67 81.0619 1333.68 81.2357 1333.71 81.408C1333.77 81.776 1334.12 82.408 1335.12 82.408C1336.11 82.408 1336.45 81.776 1336.51 81.408C1336.54 81.236 1336.55 81.0619 1336.54 80.888V78.9H1335.14V76.9H1340V80.58C1340 80.836 1339.99 81.028 1339.95 81.484C1339.72 83.984 1337.56 84.868 1335.12 84.868ZM1256.14 84.608L1258.69 70.88H1264.79L1267.32 84.608H1263.64L1261.81 72.152L1261.73 72.16L1259.85 84.608H1256.14ZM1270.06 84.608L1270.36 70.88H1275.96L1277.64 81.38H1277.73L1279.42 70.88H1285.01L1285.31 84.608H1281.88L1281.8 72.276H1281.72L1279.43 84.608H1275.95L1273.66 72.28H1273.58L1273.5 84.612L1270.06 84.608ZM1315.14 84.464V70.88H1320.23L1323.39 81.652H1323.46L1323.27 70.88H1326.68V84.464H1321.79L1318.4 73.316H1318.32L1318.51 84.464H1315.14Z"
        fill="#E4E4E4" />
    <path
        d="M1611.46 89.108H1610.76L1607.94 89.104V89.1C1602.6 89.092 1594.24 89.064 1592.56 89.056V59.576C1601.01 59.932 1608.74 60.06 1608.74 60.06L1609.96 66.284C1609.96 66.284 1606.98 66.312 1600.51 66.164V71.74L1606.46 71.828V77.068L1600.51 77V82.808C1603.84 82.84 1606.89 82.86 1610.16 82.864L1618.12 60.404C1619.32 60.372 1624.41 60.24 1625.66 60.188L1636.21 89.088C1633.56 89.1 1630.88 89.052 1628.24 89.064L1626.44 83.856C1623.4 83.888 1620.36 83.908 1617.32 83.92L1615.54 89.092C1614.12 89.092 1612.8 89.092 1611.46 89.108ZM1621.89 70.608L1619.12 78.668C1620.96 78.652 1622.8 78.632 1624.64 78.604L1621.89 70.608ZM1639.45 65.82C1636.57 65.996 1633.7 66.144 1630.82 66.268L1632.05 59.892C1639.66 59.472 1647.25 58.808 1654.82 57.904L1656.05 64.484C1653.17 64.768 1650.29 65.02 1647.41 65.252L1647.37 89.064C1644.73 89.088 1642.09 89.06 1639.45 89.08V65.82ZM1590.13 80.276C1590.13 85.26 1586.53 89.88 1579.44 89.88C1573 89.88 1569.76 86.872 1569.76 86.872V78.796C1574.16 82.968 1582.82 85.776 1582.82 80.724C1582.82 76.884 1569.76 76.224 1569.76 66.652C1569.76 61.284 1574.74 57.908 1580.46 57.908C1584.49 57.908 1587.88 58.68 1588.72 58.94L1588.38 66.028C1584.85 63.944 1577.18 62.976 1577.18 66.564C1577.18 70.532 1590.14 70.572 1590.13 80.276ZM1649.58 124.896L1641.75 110.512V124.244C1639.06 124.032 1633.82 123.712 1633.82 123.712V94L1641.75 94.016C1641.72 98.252 1641.78 102.488 1641.75 106.72L1649.86 94H1658.79L1649.54 108.276L1660 126.1C1656.53 125.648 1653.06 125.247 1649.58 124.896ZM1600.53 116.924C1604.1 116.848 1607.67 116.808 1611.24 116.808L1610.01 123.052C1606.54 123.064 1596.3 123.3 1592.58 123.54V94.044H1608.73L1609.96 100.188C1609.96 100.188 1606.07 100.16 1600.53 100.156V105.752L1606.45 105.7V110.992L1600.53 111.064V116.924ZM1621.18 116.92C1624 116.98 1628.8 117.136 1631.9 117.248L1630.62 123.54C1624.83 123.234 1619.03 123.073 1613.23 123.056V94.044L1629.43 94.052L1630.66 100.256L1621.17 100.196V105.752C1623.02 105.772 1624.85 105.788 1626.69 105.82V111.104C1624.85 111.06 1623.01 111.032 1621.17 111.004L1621.18 116.92ZM1578.47 106.196L1588.88 105.96V123.74C1588.88 123.74 1586.08 123.868 1579.84 124.452C1570.98 125.284 1564 120.088 1564 109.872C1564 97.736 1572.89 93.9 1580.9 93.9C1584.37 93.9 1586.42 93.964 1587.57 94.024L1588.88 100.916C1588.88 100.916 1586.56 100.428 1582.19 100.428C1577.23 100.428 1571.85 102.088 1571.85 108.74C1571.85 115.904 1574.83 118.308 1582.07 117.652L1582.07 111.508L1577.24 111.744L1578.47 106.196Z"
        fill="#E4E4E4" />
    <g clip-path="url(#clip1_145_8)">
        <path
            d="M1973.94 75.1802C1973.15 75.1802 1972.36 75.3369 1971.63 75.6413C1970.89 75.9458 1970.22 76.392 1969.66 76.9545C1969.1 77.5171 1968.65 78.1849 1968.35 78.9199C1968.04 79.6549 1967.89 80.4426 1967.89 81.2382C1967.89 82.0337 1968.04 82.8215 1968.35 83.5565C1968.65 84.2915 1969.1 84.9593 1969.66 85.5218C1970.22 86.0844 1970.89 86.5306 1971.63 86.835C1972.36 87.1395 1973.15 87.2962 1973.94 87.2962C1975.55 87.2962 1977.09 86.6579 1978.23 85.5218C1979.36 84.3857 1980 82.8449 1980 81.2382C1980 79.6315 1979.36 78.0906 1978.23 76.9545C1977.09 75.8184 1975.55 75.1802 1973.94 75.1802ZM1939.93 75.1922V85.0162C1938.1 83.6402 1936.15 82.7642 1933.18 82.7642C1925.93 82.7642 1921.85 88.2202 1921.85 95.8322C1921.85 103 1925.93 108.82 1933.18 108.82C1940.31 108.82 1944.45 102.98 1944.46 95.8322V75.1922H1939.93ZM1891.56 75.1962L1887.06 76.7082V82.7602H1884V86.5402H1887.03V102.032C1887.03 105.392 1889.71 108.072 1893.1 108.072H1897.61V104.3H1893.83C1893.53 104.301 1893.23 104.243 1892.96 104.13C1892.68 104.017 1892.43 103.85 1892.22 103.64C1892.01 103.43 1891.84 103.18 1891.73 102.904C1891.61 102.629 1891.56 102.334 1891.56 102.036V86.5402H1904.42V82.7602H1891.56V75.1962ZM1973.94 76.6962C1974.54 76.6962 1975.13 76.8136 1975.68 77.0418C1976.23 77.2699 1976.73 77.6043 1977.15 78.0259C1977.58 78.4475 1977.91 78.948 1978.14 79.4988C1978.37 80.0496 1978.48 80.64 1978.48 81.2362C1978.48 81.8324 1978.37 82.4227 1978.14 82.9736C1977.91 83.5244 1977.58 84.0249 1977.15 84.4464C1976.73 84.868 1976.23 85.2024 1975.68 85.4306C1975.13 85.6587 1974.54 85.7762 1973.94 85.7762C1972.74 85.7762 1971.59 85.2979 1970.73 84.4464C1969.88 83.595 1969.4 82.4403 1969.4 81.2362C1969.4 80.0321 1969.88 78.8773 1970.73 78.0259C1971.59 77.1745 1972.74 76.6962 1973.94 76.6962ZM1905.92 82.7602V86.5442H1913.54C1914.96 86.5442 1915.74 87.6522 1915.74 88.7042V91.7962L1910.45 91.7922C1905.92 91.7922 1901.38 94.8682 1901.38 100.112C1901.38 105.34 1905.9 108.46 1910.44 108.46C1914.26 108.46 1915.75 106.18 1915.75 106.18V108.06H1920.28V88.6042C1920.28 85.4682 1917.61 82.7602 1914.24 82.7602H1905.92ZM1957.36 82.7682C1950.13 82.7682 1946.02 88.2442 1946.02 95.7162C1946.02 103.36 1950.13 108.82 1957.36 108.82C1964.51 108.82 1968.68 103.38 1968.68 95.7162C1968.68 88.2642 1964.49 82.7682 1957.36 82.7682ZM1933.18 86.5682C1937.74 86.5682 1939.9 91.3082 1939.9 95.8322C1939.9 100.3 1937.7 105.052 1933.18 105.052C1928.25 105.052 1926.39 100.3 1926.39 95.8322C1926.39 91.3122 1928.63 86.5682 1933.18 86.5682ZM1957.36 86.5882C1961.84 86.5882 1964.18 91.3082 1964.18 95.7882C1964.18 100.256 1961.89 105.04 1957.36 105.04C1952.86 105.04 1950.54 100.38 1950.54 95.8122C1950.54 91.3082 1952.82 86.5882 1957.36 86.5882ZM1910.46 95.6002H1915.74V100.428C1915.74 102.428 1914.25 104.676 1910.45 104.676C1908.98 104.676 1905.92 103.916 1905.92 100.14C1905.92 96.7722 1908.95 95.6002 1910.46 95.6002Z"
            fill="#E4E4E4" />
    </g>
    <path opacity="0.3" d="M854.5 11H776" stroke="url(#paint0_linear_145_8)" stroke-linecap="round" />
    <path
        d="M868.024 7.592V6.232C868.323 6.08267 868.707 5.944 869.176 5.816C869.656 5.67733 870.195 5.608 870.792 5.608C871.56 5.608 872.232 5.74133 872.808 6.008C873.395 6.264 873.848 6.62667 874.168 7.096C874.499 7.55467 874.664 8.09867 874.664 8.728C874.664 9.336 874.515 9.928 874.216 10.504C873.917 11.0693 873.523 11.6293 873.032 12.184C872.552 12.7387 872.029 13.3147 871.464 13.912L869.656 15.816H873.944L874.904 15.656V17H867.88V15.752L870.664 12.872C871.219 12.3067 871.688 11.7947 872.072 11.336C872.467 10.8667 872.765 10.4293 872.968 10.024C873.181 9.608 873.288 9.20267 873.288 8.808C873.288 8.21067 873.059 7.736 872.6 7.384C872.152 7.032 871.555 6.856 870.808 6.856C870.211 6.856 869.709 6.95733 869.304 7.16C868.899 7.352 868.579 7.54933 868.344 7.752L868.024 7.592ZM881.09 17.192C880.556 17.192 880.055 17.1067 879.586 16.936C879.127 16.7653 878.722 16.4667 878.37 16.04C878.028 15.6133 877.756 15.0267 877.554 14.28C877.362 13.5227 877.266 12.5627 877.266 11.4C877.266 10.248 877.362 9.29867 877.554 8.552C877.746 7.79467 878.012 7.20267 878.354 6.776C878.706 6.34933 879.111 6.05067 879.57 5.88C880.039 5.69867 880.546 5.608 881.09 5.608C881.623 5.608 882.119 5.69867 882.578 5.88C883.036 6.05067 883.436 6.34933 883.778 6.776C884.119 7.20267 884.38 7.79467 884.562 8.552C884.754 9.29867 884.85 10.248 884.85 11.4C884.85 12.5627 884.754 13.5227 884.562 14.28C884.37 15.0267 884.103 15.6133 883.762 16.04C883.42 16.4667 883.02 16.7653 882.562 16.936C882.114 17.1067 881.623 17.192 881.09 17.192ZM881.074 16.008C881.511 16.008 881.879 15.928 882.178 15.768C882.487 15.608 882.738 15.352 882.93 15C883.122 14.648 883.26 14.1787 883.346 13.592C883.431 12.9947 883.474 12.264 883.474 11.4C883.474 10.2693 883.394 9.368 883.234 8.696C883.084 8.024 882.834 7.53867 882.482 7.24C882.13 6.94133 881.66 6.792 881.074 6.792C880.636 6.792 880.263 6.87733 879.954 7.048C879.644 7.208 879.394 7.46933 879.202 7.832C879.01 8.19467 878.866 8.66933 878.77 9.256C878.684 9.84267 878.642 10.5627 878.642 11.416C878.642 12.28 878.684 13.0053 878.77 13.592C878.866 14.1787 879.01 14.648 879.202 15C879.404 15.352 879.66 15.608 879.97 15.768C880.279 15.928 880.647 16.008 881.074 16.008ZM881.122 12.312C880.855 12.312 880.631 12.232 880.45 12.072C880.268 11.912 880.178 11.6773 880.178 11.368C880.178 11.0587 880.268 10.824 880.45 10.664C880.631 10.504 880.855 10.424 881.122 10.424C881.388 10.424 881.612 10.504 881.794 10.664C881.975 10.824 882.066 11.0587 882.066 11.368C882.066 11.6773 881.975 11.912 881.794 12.072C881.612 12.232 881.388 12.312 881.122 12.312ZM890.684 17.192C890.15 17.192 889.649 17.1067 889.18 16.936C888.721 16.7653 888.316 16.4667 887.964 16.04C887.622 15.6133 887.35 15.0267 887.148 14.28C886.956 13.5227 886.86 12.5627 886.86 11.4C886.86 10.248 886.956 9.29867 887.148 8.552C887.34 7.79467 887.606 7.20267 887.948 6.776C888.3 6.34933 888.705 6.05067 889.164 5.88C889.633 5.69867 890.14 5.608 890.684 5.608C891.217 5.608 891.713 5.69867 892.172 5.88C892.63 6.05067 893.03 6.34933 893.372 6.776C893.713 7.20267 893.974 7.79467 894.156 8.552C894.348 9.29867 894.444 10.248 894.444 11.4C894.444 12.5627 894.348 13.5227 894.156 14.28C893.964 15.0267 893.697 15.6133 893.356 16.04C893.014 16.4667 892.614 16.7653 892.156 16.936C891.708 17.1067 891.217 17.192 890.684 17.192ZM890.668 16.008C891.105 16.008 891.473 15.928 891.772 15.768C892.081 15.608 892.332 15.352 892.524 15C892.716 14.648 892.854 14.1787 892.94 13.592C893.025 12.9947 893.068 12.264 893.068 11.4C893.068 10.2693 892.988 9.368 892.828 8.696C892.678 8.024 892.428 7.53867 892.076 7.24C891.724 6.94133 891.254 6.792 890.668 6.792C890.23 6.792 889.857 6.87733 889.548 7.048C889.238 7.208 888.988 7.46933 888.796 7.832C888.604 8.19467 888.46 8.66933 888.364 9.256C888.278 9.84267 888.236 10.5627 888.236 11.416C888.236 12.28 888.278 13.0053 888.364 13.592C888.46 14.1787 888.604 14.648 888.796 15C888.998 15.352 889.254 15.608 889.564 15.768C889.873 15.928 890.241 16.008 890.668 16.008ZM890.716 12.312C890.449 12.312 890.225 12.232 890.044 12.072C889.862 11.912 889.772 11.6773 889.772 11.368C889.772 11.0587 889.862 10.824 890.044 10.664C890.225 10.504 890.449 10.424 890.716 10.424C890.982 10.424 891.206 10.504 891.388 10.664C891.569 10.824 891.66 11.0587 891.66 11.368C891.66 11.6773 891.569 11.912 891.388 12.072C891.206 12.232 890.982 12.312 890.716 12.312ZM900.277 17.192C899.744 17.192 899.243 17.1067 898.773 16.936C898.315 16.7653 897.909 16.4667 897.557 16.04C897.216 15.6133 896.944 15.0267 896.741 14.28C896.549 13.5227 896.453 12.5627 896.453 11.4C896.453 10.248 896.549 9.29867 896.741 8.552C896.933 7.79467 897.2 7.20267 897.541 6.776C897.893 6.34933 898.299 6.05067 898.757 5.88C899.227 5.69867 899.733 5.608 900.277 5.608C900.811 5.608 901.307 5.69867 901.765 5.88C902.224 6.05067 902.624 6.34933 902.965 6.776C903.307 7.20267 903.568 7.79467 903.749 8.552C903.941 9.29867 904.037 10.248 904.037 11.4C904.037 12.5627 903.941 13.5227 903.749 14.28C903.557 15.0267 903.291 15.6133 902.949 16.04C902.608 16.4667 902.208 16.7653 901.749 16.936C901.301 17.1067 900.811 17.192 900.277 17.192ZM900.261 16.008C900.699 16.008 901.067 15.928 901.365 15.768C901.675 15.608 901.925 15.352 902.117 15C902.309 14.648 902.448 14.1787 902.533 13.592C902.619 12.9947 902.661 12.264 902.661 11.4C902.661 10.2693 902.581 9.368 902.421 8.696C902.272 8.024 902.021 7.53867 901.669 7.24C901.317 6.94133 900.848 6.792 900.261 6.792C899.824 6.792 899.451 6.87733 899.141 7.048C898.832 7.208 898.581 7.46933 898.389 7.832C898.197 8.19467 898.053 8.66933 897.957 9.256C897.872 9.84267 897.829 10.5627 897.829 11.416C897.829 12.28 897.872 13.0053 897.957 13.592C898.053 14.1787 898.197 14.648 898.389 15C898.592 15.352 898.848 15.608 899.157 15.768C899.467 15.928 899.835 16.008 900.261 16.008ZM900.309 12.312C900.043 12.312 899.819 12.232 899.637 12.072C899.456 11.912 899.365 11.6773 899.365 11.368C899.365 11.0587 899.456 10.824 899.637 10.664C899.819 10.504 900.043 10.424 900.309 10.424C900.576 10.424 900.8 10.504 900.981 10.664C901.163 10.824 901.253 11.0587 901.253 11.368C901.253 11.6773 901.163 11.912 900.981 12.072C900.8 12.232 900.576 12.312 900.309 12.312ZM905.871 12.008V10.776H913.167V12.008L912.207 11.928H906.831L905.871 12.008ZM910.143 15H908.831L908.911 14.04V8.664L908.831 7.704H910.143L910.063 8.664V14.04L910.143 15ZM924.212 17.192C923.102 17.192 922.174 16.9627 921.428 16.504C920.681 16.0453 920.116 15.384 919.732 14.52C919.358 13.656 919.172 12.6267 919.172 11.432C919.172 10.0773 919.39 8.97333 919.828 8.12C920.265 7.26667 920.852 6.63733 921.588 6.232C922.324 5.816 923.14 5.608 924.036 5.608C924.601 5.608 925.14 5.67733 925.652 5.816C926.164 5.95467 926.649 6.15733 927.108 6.424V7.656L926.788 7.816C926.446 7.53867 926.046 7.30933 925.588 7.128C925.129 6.94667 924.601 6.856 924.004 6.856C923.353 6.856 922.772 7 922.26 7.288C921.748 7.576 921.342 8.056 921.044 8.728C920.756 9.38933 920.612 10.2907 920.612 11.432C920.612 13.0107 920.91 14.1573 921.508 14.872C922.116 15.5867 923.012 15.944 924.196 15.944C924.697 15.944 925.166 15.88 925.604 15.752C926.052 15.6133 926.489 15.3893 926.916 15.08L927.236 15.24V16.472C926.798 16.7067 926.329 16.8827 925.828 17C925.326 17.128 924.788 17.192 924.212 17.192ZM932.03 17.192C931.7 17.192 931.353 17.1493 930.99 17.064C930.638 16.9787 930.308 16.8347 929.998 16.632C929.7 16.4187 929.454 16.1307 929.262 15.768C929.081 15.3947 928.99 14.92 928.99 14.344V10.12L928.83 8.84H930.494L930.334 10.12V14.136C930.334 14.6693 930.42 15.0747 930.59 15.352C930.772 15.6293 931.006 15.816 931.294 15.912C931.593 15.9973 931.918 16.04 932.27 16.04C932.953 16.04 933.481 15.9387 933.854 15.736C934.228 15.5227 934.558 15.2667 934.846 14.968V15.864L933.39 16.984C933.188 17.048 932.974 17.096 932.75 17.128C932.526 17.1707 932.286 17.192 932.03 17.192ZM934.734 17L934.558 15.992V10.12L934.398 8.84H936.062L935.902 10.12V15.72L936.062 17H934.734ZM943.613 9.032V10.248L943.357 10.408C943.059 10.216 942.728 10.0667 942.365 9.96C942.003 9.85333 941.587 9.8 941.117 9.8C940.797 9.8 940.504 9.832 940.237 9.896C939.981 9.94933 939.773 10.0507 939.613 10.2C939.464 10.3387 939.389 10.536 939.389 10.792C939.389 11.1013 939.501 11.3467 939.725 11.528C939.949 11.7093 940.237 11.864 940.589 11.992C940.952 12.12 941.331 12.248 941.725 12.376C942.12 12.504 942.493 12.664 942.845 12.856C943.208 13.048 943.501 13.304 943.725 13.624C943.949 13.944 944.061 14.36 944.061 14.872C944.061 15.48 943.901 15.9547 943.581 16.296C943.272 16.6267 942.861 16.8613 942.349 17C941.837 17.128 941.293 17.192 940.717 17.192C940.131 17.192 939.613 17.144 939.165 17.048C938.717 16.952 938.333 16.8507 938.013 16.744V15.56L938.269 15.4C938.611 15.6027 938.979 15.7627 939.373 15.88C939.768 15.9867 940.253 16.04 940.829 16.04C941.16 16.04 941.469 16.0133 941.757 15.96C942.045 15.9067 942.28 15.8 942.461 15.64C942.653 15.48 942.749 15.2453 942.749 14.936C942.749 14.584 942.637 14.3067 942.413 14.104C942.189 13.9013 941.896 13.736 941.533 13.608C941.181 13.48 940.803 13.3573 940.397 13.24C940.003 13.1227 939.624 12.9787 939.261 12.808C938.909 12.6267 938.621 12.3813 938.397 12.072C938.173 11.7627 938.061 11.3573 938.061 10.856C938.061 10.3973 938.152 10.024 938.333 9.736C938.525 9.448 938.776 9.224 939.085 9.064C939.405 8.904 939.752 8.79733 940.125 8.744C940.509 8.68 940.893 8.648 941.277 8.648C941.747 8.648 942.173 8.68533 942.557 8.76C942.952 8.824 943.304 8.91467 943.613 9.032ZM946.848 14.712V7.688L946.768 6.568H948.272L948.192 7.688V14.68C948.192 15.192 948.304 15.5493 948.528 15.752C948.763 15.944 949.104 16.04 949.552 16.04C949.766 16.04 949.947 16.0187 950.096 15.976C950.256 15.9333 950.406 15.8747 950.544 15.8L950.8 15.96V16.952C950.566 17.0373 950.326 17.096 950.08 17.128C949.846 17.1707 949.616 17.192 949.392 17.192C948.966 17.192 948.555 17.1227 948.16 16.984C947.776 16.8347 947.462 16.584 947.216 16.232C946.971 15.8693 946.848 15.3627 946.848 14.712ZM945.472 10.04V8.84H946.496L947.52 9.32L948.544 8.84H950.64V10.04L949.84 9.96H946.272L945.472 10.04ZM956.008 17.192C955.368 17.192 954.755 17.0533 954.168 16.776C953.582 16.4987 953.102 16.0453 952.728 15.416C952.366 14.7867 952.184 13.9547 952.184 12.92C952.184 12.1307 952.291 11.464 952.504 10.92C952.718 10.376 953.006 9.93867 953.368 9.608C953.731 9.26667 954.142 9.02133 954.6 8.872C955.059 8.72267 955.528 8.648 956.008 8.648C956.488 8.648 956.958 8.72267 957.416 8.872C957.875 9.02133 958.286 9.26667 958.648 9.608C959.011 9.93867 959.299 10.376 959.512 10.92C959.726 11.464 959.832 12.1307 959.832 12.92C959.832 13.9547 959.646 14.7867 959.272 15.416C958.91 16.0453 958.435 16.4987 957.848 16.776C957.272 17.0533 956.659 17.192 956.008 17.192ZM956.008 16.04C956.766 16.04 957.363 15.8053 957.8 15.336C958.238 14.8667 958.456 14.0507 958.456 12.888C958.456 12.1093 958.355 11.496 958.152 11.048C957.96 10.6 957.683 10.28 957.32 10.088C956.958 9.896 956.52 9.8 956.008 9.8C955.496 9.8 955.059 9.896 954.696 10.088C954.334 10.28 954.051 10.6 953.848 11.048C953.656 11.496 953.56 12.1093 953.56 12.888C953.56 14.0507 953.779 14.8667 954.216 15.336C954.654 15.8053 955.251 16.04 956.008 16.04ZM972.151 17L972.311 15.72V11.704C972.311 11.0853 972.141 10.6267 971.799 10.328C971.458 10.0187 971.01 9.864 970.455 9.864C969.965 9.864 969.543 9.96 969.191 10.152C968.85 10.3333 968.567 10.5413 968.343 10.776C968.119 11.0107 967.954 11.1973 967.847 11.336V10.168L969.511 8.808C969.746 8.744 969.965 8.70133 970.167 8.68C970.381 8.65867 970.573 8.648 970.743 8.648C971.458 8.648 972.029 8.77067 972.455 9.016C972.882 9.25067 973.186 9.56533 973.367 9.96C973.559 10.3547 973.655 10.7867 973.655 11.256V15.72L973.815 17H972.151ZM961.911 17L962.071 15.72V10.12L961.911 8.84H963.111L963.415 10.568V15.72L963.575 17H961.911ZM967.031 17L967.191 15.72V11.704C967.191 11.0853 967.026 10.6267 966.695 10.328C966.365 10.0187 965.922 9.864 965.367 9.864C964.887 9.864 964.466 9.95467 964.103 10.136C963.751 10.3173 963.463 10.52 963.239 10.744C963.015 10.968 962.85 11.144 962.743 11.272V10.168L964.407 8.808C964.695 8.744 964.951 8.70133 965.175 8.68C965.41 8.65867 965.607 8.648 965.767 8.648C966.439 8.648 966.978 8.77067 967.383 9.016C967.789 9.25067 968.082 9.56533 968.263 9.96C968.445 10.3547 968.535 10.7867 968.535 11.256V15.72L968.695 17H967.031ZM975.762 12.904C975.762 11.848 975.933 11.0107 976.274 10.392C976.626 9.76267 977.085 9.31467 977.65 9.048C978.216 8.78133 978.818 8.648 979.458 8.648C980.194 8.648 980.808 8.79733 981.298 9.096C981.8 9.384 982.173 9.8 982.418 10.344C982.674 10.8773 982.802 11.5173 982.802 12.264C982.802 12.4773 982.792 12.6747 982.77 12.856C982.749 13.0373 982.722 13.208 982.69 13.368H976.466V13.08L977.906 12.28H981.442C981.442 11.8 981.389 11.3733 981.282 11C981.186 10.6267 980.994 10.3333 980.706 10.12C980.418 9.90667 979.997 9.8 979.442 9.8C978.866 9.8 978.408 9.928 978.066 10.184C977.736 10.4293 977.496 10.776 977.346 11.224C977.208 11.672 977.138 12.1947 977.138 12.792C977.138 13.5067 977.218 14.0827 977.378 14.52C977.538 14.9573 977.752 15.2827 978.018 15.496C978.285 15.7093 978.578 15.8533 978.898 15.928C979.218 16.0027 979.538 16.04 979.858 16.04C980.36 16.04 980.792 15.992 981.154 15.896C981.528 15.7893 981.858 15.6507 982.146 15.48L982.402 15.64V16.792C982.072 16.9093 981.704 17.0053 981.298 17.08C980.904 17.1547 980.472 17.192 980.002 17.192C979.49 17.192 978.978 17.128 978.466 17C977.965 16.8827 977.512 16.6693 977.106 16.36C976.701 16.0507 976.376 15.6187 976.13 15.064C975.885 14.4987 975.762 13.7787 975.762 12.904ZM984.771 17L984.931 15.72V10.12L984.771 8.84H985.843L986.099 9.784H986.275V15.72L986.435 17H984.771ZM985.939 11.736V10.056L987.347 8.856C987.731 8.71733 988.125 8.648 988.531 8.648C988.712 8.648 988.899 8.664 989.091 8.696C989.283 8.71733 989.48 8.77067 989.683 8.856V9.928L989.427 10.088C989.245 10.024 989.069 9.98133 988.899 9.96C988.739 9.93867 988.589 9.928 988.451 9.928C987.821 9.928 987.309 10.0933 986.915 10.424C986.52 10.744 986.195 11.1813 985.939 11.736ZM990.455 19.192L989.943 18.888V18.632L990.903 17.096L990.807 17L990.647 17.176C990.348 17.176 990.124 17.08 989.975 16.888C989.826 16.6853 989.751 16.456 989.751 16.2C989.751 15.9013 989.842 15.656 990.023 15.464C990.204 15.272 990.455 15.176 990.775 15.176C991.148 15.176 991.426 15.304 991.607 15.56C991.788 15.816 991.879 16.1307 991.879 16.504C991.879 16.9733 991.74 17.4373 991.463 17.896C991.196 18.3653 990.86 18.7973 990.455 19.192ZM998.542 17L998.702 15.72V7.08L998.542 5.8H1002.08C1002.87 5.8 1003.54 5.96 1004.09 6.28C1004.65 6.6 1005.07 7.02133 1005.36 7.544C1005.66 8.06667 1005.81 8.63733 1005.81 9.256C1005.81 9.66133 1005.74 10.0667 1005.6 10.472C1005.46 10.8773 1005.24 11.2453 1004.94 11.576C1004.65 11.9067 1004.27 12.1733 1003.79 12.376C1003.32 12.568 1002.75 12.664 1002.08 12.664H1000.06V15.72L1000.22 17H998.542ZM1000.06 11.48H1002.01C1002.83 11.48 1003.43 11.272 1003.81 10.856C1004.18 10.44 1004.37 9.90667 1004.37 9.256C1004.37 8.584 1004.17 8.04 1003.77 7.624C1003.39 7.19733 1002.8 6.984 1002.01 6.984H1000.06V11.48ZM1012.8 17L1012.56 16.152V11.8C1012.56 11.3733 1012.5 11.016 1012.39 10.728C1012.27 10.4293 1012.04 10.2 1011.7 10.04C1011.36 9.88 1010.85 9.8 1010.18 9.8C1009.78 9.8 1009.42 9.83733 1009.07 9.912C1008.74 9.98667 1008.42 10.1253 1008.11 10.328L1007.86 10.168V9.016C1008.33 8.86667 1008.76 8.77067 1009.17 8.728C1009.59 8.67467 1009.97 8.648 1010.32 8.648C1011.25 8.648 1011.97 8.77067 1012.48 9.016C1013 9.26133 1013.37 9.624 1013.59 10.104C1013.8 10.5733 1013.91 11.1547 1013.91 11.848V15.72L1014.07 17H1012.8ZM1010.1 17.192C1009.63 17.192 1009.16 17.1173 1008.71 16.968C1008.25 16.808 1007.86 16.5413 1007.55 16.168C1007.26 15.784 1007.11 15.2613 1007.11 14.6C1007.11 14.088 1007.2 13.6613 1007.39 13.32C1007.59 12.9787 1007.84 12.712 1008.16 12.52C1008.49 12.328 1008.86 12.1947 1009.27 12.12C1009.67 12.0347 1010.09 11.992 1010.51 11.992C1010.77 11.992 1011 12.0027 1011.22 12.024C1011.44 12.0453 1011.66 12.0827 1011.87 12.136L1012.71 12.728V13.464C1012.43 13.3147 1012.13 13.2133 1011.81 13.16C1011.5 13.096 1011.14 13.064 1010.74 13.064C1009.99 13.064 1009.42 13.176 1009.03 13.4C1008.64 13.6133 1008.45 14.0187 1008.45 14.616C1008.45 15.1067 1008.59 15.4747 1008.88 15.72C1009.17 15.9547 1009.63 16.072 1010.27 16.072C1010.94 16.072 1011.46 15.9653 1011.84 15.752C1012.24 15.5387 1012.54 15.2827 1012.75 14.984L1013.07 15.704L1011.54 17C1011.32 17.0533 1011.1 17.096 1010.85 17.128C1010.6 17.1707 1010.35 17.192 1010.1 17.192ZM1016.18 17L1016.34 15.72V10.12L1016.18 8.84H1017.25L1017.5 9.784H1017.68V15.72L1017.84 17H1016.18ZM1017.34 11.736V10.056L1018.75 8.856C1019.14 8.71733 1019.53 8.648 1019.94 8.648C1020.12 8.648 1020.3 8.664 1020.5 8.696C1020.69 8.71733 1020.89 8.77067 1021.09 8.856V9.928L1020.83 10.088C1020.65 10.024 1020.48 9.98133 1020.3 9.96C1020.14 9.93867 1020 9.928 1019.86 9.928C1019.23 9.928 1018.72 10.0933 1018.32 10.424C1017.93 10.744 1017.6 11.1813 1017.34 11.736ZM1023.94 14.712V7.688L1023.86 6.568H1025.37L1025.29 7.688V14.68C1025.29 15.192 1025.4 15.5493 1025.62 15.752C1025.86 15.944 1026.2 16.04 1026.65 16.04C1026.86 16.04 1027.04 16.0187 1027.19 15.976C1027.35 15.9333 1027.5 15.8747 1027.64 15.8L1027.89 15.96V16.952C1027.66 17.0373 1027.42 17.096 1027.17 17.128C1026.94 17.1707 1026.71 17.192 1026.49 17.192C1026.06 17.192 1025.65 17.1227 1025.25 16.984C1024.87 16.8347 1024.56 16.584 1024.31 16.232C1024.06 15.8693 1023.94 15.3627 1023.94 14.712ZM1022.57 10.04V8.84H1023.59L1024.61 9.32L1025.64 8.84H1027.73V10.04L1026.93 9.96H1023.37L1022.57 10.04ZM1035.29 17L1035.45 15.72V11.64C1035.45 11.0533 1035.29 10.6107 1034.96 10.312C1034.63 10.0133 1034.13 9.864 1033.48 9.864C1032.97 9.864 1032.53 9.93867 1032.17 10.088C1031.81 10.2373 1031.51 10.408 1031.28 10.6C1031.05 10.7813 1030.88 10.936 1030.76 11.064V10.136L1032.49 8.824C1032.71 8.77067 1032.92 8.728 1033.15 8.696C1033.37 8.664 1033.6 8.648 1033.84 8.648C1034.35 8.648 1034.83 8.73867 1035.28 8.92C1035.72 9.09067 1036.09 9.38933 1036.36 9.816C1036.65 10.2427 1036.8 10.8347 1036.8 11.592V15.72L1036.96 17H1035.29ZM1029.72 17L1029.88 15.72V10.088L1029.72 8.84H1031L1031.23 9.784V15.72L1031.39 17H1029.72ZM1038.9 12.904C1038.9 11.848 1039.07 11.0107 1039.42 10.392C1039.77 9.76267 1040.23 9.31467 1040.79 9.048C1041.36 8.78133 1041.96 8.648 1042.6 8.648C1043.34 8.648 1043.95 8.79733 1044.44 9.096C1044.94 9.384 1045.31 9.8 1045.56 10.344C1045.82 10.8773 1045.94 11.5173 1045.94 12.264C1045.94 12.4773 1045.93 12.6747 1045.91 12.856C1045.89 13.0373 1045.86 13.208 1045.83 13.368H1039.61V13.08L1041.05 12.28H1044.58C1044.58 11.8 1044.53 11.3733 1044.42 11C1044.33 10.6267 1044.14 10.3333 1043.85 10.12C1043.56 9.90667 1043.14 9.8 1042.58 9.8C1042.01 9.8 1041.55 9.928 1041.21 10.184C1040.88 10.4293 1040.64 10.776 1040.49 11.224C1040.35 11.672 1040.28 12.1947 1040.28 12.792C1040.28 13.5067 1040.36 14.0827 1040.52 14.52C1040.68 14.9573 1040.89 15.2827 1041.16 15.496C1041.43 15.7093 1041.72 15.8533 1042.04 15.928C1042.36 16.0027 1042.68 16.04 1043 16.04C1043.5 16.04 1043.93 15.992 1044.3 15.896C1044.67 15.7893 1045 15.6507 1045.29 15.48L1045.54 15.64V16.792C1045.21 16.9093 1044.84 17.0053 1044.44 17.08C1044.04 17.1547 1043.61 17.192 1043.14 17.192C1042.63 17.192 1042.12 17.128 1041.61 17C1041.11 16.8827 1040.65 16.6693 1040.25 16.36C1039.84 16.0507 1039.52 15.6187 1039.27 15.064C1039.03 14.4987 1038.9 13.7787 1038.9 12.904ZM1047.91 17L1048.07 15.72V10.12L1047.91 8.84H1048.98L1049.24 9.784H1049.42V15.72L1049.58 17H1047.91ZM1049.08 11.736V10.056L1050.49 8.856C1050.87 8.71733 1051.27 8.648 1051.67 8.648C1051.85 8.648 1052.04 8.664 1052.23 8.696C1052.42 8.71733 1052.62 8.77067 1052.82 8.856V9.928L1052.57 10.088C1052.39 10.024 1052.21 9.98133 1052.04 9.96C1051.88 9.93867 1051.73 9.928 1051.59 9.928C1050.96 9.928 1050.45 10.0933 1050.06 10.424C1049.66 10.744 1049.34 11.1813 1049.08 11.736Z"
        fill="#E4E4E4" />
    <path opacity="0.3" d="M1065.5 11H1144" stroke="url(#paint1_linear_145_8)"
        stroke-linecap="round" />
    <defs>
        <linearGradient id="paint0_linear_145_8" x1="854.5" y1="11.5" x2="776" y2="11.5"
            gradientUnits="userSpaceOnUse">
            <stop stop-color="#9E9E9E" />
            <stop offset="1" stop-color="#9E9E9E" stop-opacity="0" />
        </linearGradient>
        <linearGradient id="paint1_linear_145_8" x1="1065.5" y1="11.5" x2="1144" y2="11.5"
            gradientUnits="userSpaceOnUse">
            <stop stop-color="#9E9E9E" />
            <stop offset="1" stop-color="#9E9E9E" stop-opacity="0" />
        </linearGradient>
        <clipPath id="clip0_145_8">
            <rect width="120" height="120" fill="white" transform="translate(580 32)" />
        </clipPath>
        <clipPath id="clip1_145_8">
            <rect width="96" height="96" fill="white" transform="translate(1884 44)" />
        </clipPath>
    </defs>
</svg>
    