<svg width="12" height="12" viewBox="0 0 12 12" fill="none" xmlns="http://www.w3.org/2000/svg">
<path d="M1.92693 3.88011C1.92693 2.75974 2.85366 1.85156 3.99693 1.85156C5.14075 1.85156 6.06748 2.75974 6.06748 3.88011C6.06748 5.00047 5.1402 5.90865 3.99693 5.90865C2.85366 5.90865 1.92693 5.00047 1.92693 3.88011ZM4.77257 9.47429V9.33411C4.77257 8.29993 5.31148 7.3912 6.12421 6.85556C5.75706 6.67779 5.35449 6.5853 4.94657 6.58502H3.22075C1.74366 6.58502 0.546387 7.75774 0.546387 9.20483V9.37393C0.546387 9.96574 1.74366 9.96574 3.22075 9.96574H4.87075C4.80361 9.81072 4.77014 9.64321 4.77257 9.47429ZM8.44784 3.22993C7.4993 3.22993 6.72966 3.98374 6.72966 4.91374C6.72966 5.84374 7.4993 6.59756 8.44784 6.59756C9.39693 6.59756 10.166 5.84374 10.166 4.91374C10.166 3.98374 9.39748 3.22993 8.44784 3.22993ZM8.44784 3.22993C7.4993 3.22993 6.72966 3.98374 6.72966 4.91374C6.72966 5.84374 7.4993 6.59756 8.44784 6.59756C9.39693 6.59756 10.166 5.84374 10.166 4.91374C10.166 3.98374 9.39748 3.22993 8.44784 3.22993ZM7.80421 7.15938C6.57802 7.15938 5.58421 8.13302 5.58421 9.33411V9.47429C5.58421 9.9652 6.57802 9.9652 7.80421 9.9652H9.23657C10.4622 9.9652 11.4555 9.9472 11.4555 9.47429V9.33411C11.4555 8.13302 10.4622 7.15938 9.23657 7.15938H7.80421Z" fill="#656A79"/>
</svg>
