<svg width="14" height="14" viewBox="0 0 14 14" fill="none" xmlns="http://www.w3.org/2000/svg">
<path d="M9.59961 2C10.1519 2 10.5996 2.44772 10.5996 3V3.2002H12C12.5523 3.2002 13 3.64791 13 4.2002V5C12.9937 5.72046 12.7279 6.41415 12.252 6.95508C11.7761 7.49597 11.1219 7.8483 10.4082 7.94629C10.2006 8.56259 9.82932 9.11067 9.33496 9.5332C8.84054 9.95579 8.2408 10.2366 7.59961 10.3457V11.7998H9.7998C10.1312 11.7998 10.4004 12.069 10.4004 12.4004C10.4002 12.7316 10.131 13 9.7998 13H4.2002C3.86895 13 3.59982 12.7316 3.59961 12.4004C3.59961 12.069 3.86882 11.7998 4.2002 11.7998H6.40039V10.3584C5.75934 10.2494 5.1594 9.96832 4.66504 9.5459C4.17062 9.12332 3.79939 8.5744 3.5918 7.95801C2.87612 7.85972 2.22027 7.50617 1.74414 6.96289C1.26795 6.41946 1.0034 5.72254 1 5V4.2002C1 3.64791 1.44772 3.2002 2 3.2002H3.40039V3C3.40039 2.44772 3.84811 2 4.40039 2H9.59961ZM6.40039 5.1748L5.09766 5.38184L6.03027 6.31543L5.82422 7.61816L7 7.01953L8.17578 7.61816L7.96973 6.31543L8.90234 5.38184L7.59961 5.1748L7 4L6.40039 5.1748ZM2.2002 4.40039V5C2.2 5.37239 2.31535 5.73593 2.53027 6.04004C2.74518 6.34401 3.0494 6.57415 3.40039 6.69824V4.40039H2.2002ZM10.5996 4.40039V6.69824C10.9506 6.57415 11.2548 6.34401 11.4697 6.04004C11.6846 5.73593 11.8 5.37239 11.7998 5V4.40039H10.5996Z" fill="#FF7DA4"/>
</svg>
