<svg width="500" height="360" viewBox="0 0 500 360" fill="none" xmlns="http://www.w3.org/2000/svg">
<path d="M230.399 289.456C236.794 286.784 239.831 279.391 237.182 272.943C234.533 266.494 227.201 263.432 220.807 266.103C214.412 268.774 211.375 276.167 214.024 282.616C216.673 289.064 224.004 292.127 230.399 289.456Z" fill="url(#paint0_linear_1137_27729)"/>
<path d="M274.408 296.996C280.835 296.996 286.044 291.743 286.044 285.263C286.044 278.782 280.835 273.529 274.408 273.529C267.982 273.529 262.773 278.782 262.773 285.263C262.773 291.743 267.982 296.996 274.408 296.996Z" fill="url(#paint1_linear_1137_27729)"/>
<path d="M303.83 299.952C304.862 293.542 300.545 287.503 294.189 286.462C287.833 285.422 281.844 289.775 280.812 296.184C279.781 302.594 284.097 308.633 290.453 309.673C296.809 310.714 302.798 306.361 303.83 299.952Z" fill="url(#paint2_linear_1137_27729)"/>
<path d="M310.078 311.594C311.139 307.059 308.354 302.515 303.857 301.445C299.36 300.374 294.853 303.183 293.792 307.718C292.731 312.253 295.516 316.797 300.013 317.867C304.51 318.938 309.016 316.129 310.078 311.594Z" fill="url(#paint3_linear_1137_27729)"/>
<path d="M295.889 282.555C298.855 282.555 301.259 280.333 301.259 277.591C301.259 274.849 298.855 272.627 295.889 272.627C292.923 272.627 290.519 274.849 290.519 277.591C290.519 280.333 292.923 282.555 295.889 282.555Z" fill="url(#paint4_linear_1137_27729)"/>
<path d="M200.167 284.263C201.638 282.78 201.638 280.375 200.167 278.891C198.697 277.408 196.312 277.408 194.841 278.891C193.37 280.375 193.37 282.78 194.841 284.263C196.312 285.746 198.696 285.746 200.167 284.263Z" fill="url(#paint5_linear_1137_27729)"/>
<path d="M264.224 206.74C264.224 206.74 293.761 238.466 262.71 288.873H242.788C211.734 238.466 241.273 206.74 241.273 206.74H264.224Z" fill="url(#paint6_linear_1137_27729)"/>
<path d="M284.265 306.901C290.483 300.63 290.483 290.463 284.265 284.193C278.046 277.922 267.964 277.922 261.746 284.193C255.527 290.463 255.527 300.63 261.746 306.901C267.964 313.172 278.046 313.172 284.265 306.901Z" fill="url(#paint7_linear_1137_27729)"/>
<path d="M225.297 311C233.422 307.606 237.28 298.213 233.915 290.02C230.55 281.827 221.235 277.937 213.11 281.33C204.985 284.724 201.127 294.117 204.493 302.31C207.858 310.503 217.173 314.394 225.297 311Z" fill="url(#paint8_linear_1137_27729)"/>
<path d="M248.912 290.775C250.274 284.983 246.722 279.174 240.978 277.8C235.234 276.427 229.474 280.009 228.112 285.801C226.75 291.594 230.302 297.402 236.046 298.776C241.79 300.149 247.55 296.567 248.912 290.775Z" fill="url(#paint9_linear_1137_27729)"/>
<path d="M264.401 298.529C265.35 292.635 261.381 287.081 255.536 286.124C249.691 285.168 244.183 289.17 243.235 295.064C242.286 300.959 246.255 306.512 252.1 307.469C257.945 308.426 263.453 304.423 264.401 298.529Z" fill="url(#paint10_linear_1137_27729)"/>
<path d="M251.613 307.217C253.763 298.031 248.121 288.826 239.011 286.658C229.901 284.49 220.773 290.179 218.623 299.365C216.473 308.552 222.115 317.757 231.224 319.925C240.334 322.093 249.462 316.404 251.613 307.217Z" fill="url(#paint11_linear_1137_27729)"/>
<path d="M255.165 330.39C263.816 330.39 270.828 323.319 270.828 314.596C270.828 305.872 263.816 298.801 255.165 298.801C246.515 298.801 239.502 305.872 239.502 314.596C239.502 323.319 246.515 330.39 255.165 330.39Z" fill="url(#paint12_linear_1137_27729)"/>
<path d="M207.38 302.474C208.134 297.792 204.981 293.38 200.337 292.62C195.694 291.86 191.319 295.039 190.565 299.722C189.811 304.404 192.964 308.816 197.608 309.576C202.251 310.336 206.627 307.157 207.38 302.474Z" fill="url(#paint13_linear_1137_27729)"/>
<path d="M215.241 144.08C215.241 144.08 197 157.48 192.874 187.495C192.857 187.625 192.868 187.756 192.906 187.881C192.944 188.006 193.008 188.121 193.093 188.219C193.179 188.317 193.285 188.395 193.403 188.448C193.521 188.501 193.649 188.528 193.779 188.527H218.381L215.241 144.08Z" fill="url(#paint14_linear_1137_27729)"/>
<path d="M288.795 144.08C288.795 144.08 307.037 157.48 311.163 187.495C311.18 187.625 311.169 187.756 311.131 187.881C311.093 188.006 311.029 188.121 310.943 188.219C310.858 188.317 310.752 188.395 310.634 188.448C310.516 188.501 310.388 188.528 310.258 188.527H285.642L288.795 144.08Z" fill="url(#paint15_linear_1137_27729)"/>
<path d="M252.91 222.281C262.363 222.281 270.025 217.817 270.025 212.309C270.025 206.802 262.363 202.338 252.91 202.338C243.458 202.338 235.795 206.802 235.795 212.309C235.795 217.817 243.458 222.281 252.91 222.281Z" fill="#D49100"/>
<path d="M255.18 30.7291C255.18 30.7291 338.519 113.474 270.959 211.065C270.692 211.446 270.335 211.769 269.913 212.009L268.11 213.034C259.95 217.303 246.597 217.303 238.437 213.034L236.926 211.972C236.62 211.756 236.358 211.493 236.151 211.196C168.465 113.548 251.867 30.7291 251.867 30.7291L251.921 30.6842C252.135 30.4855 252.391 30.3285 252.674 30.2226C252.957 30.1168 253.262 30.0644 253.568 30.0686C253.874 30.0728 254.176 30.1335 254.456 30.2471C254.735 30.3607 254.986 30.5247 255.194 30.7291H255.18Z" fill="#DCB200"/>
<path d="M258.891 35.3413C256.329 32.3305 254.735 30.7291 254.735 30.7291C254.53 30.5247 254.281 30.3607 254.004 30.2471C253.728 30.1335 253.428 30.0728 253.125 30.0686C252.822 30.0644 252.521 30.1168 252.24 30.2226C251.96 30.3285 251.706 30.4855 251.494 30.6842L251.44 30.7291C251.44 30.7291 168.867 113.545 235.901 211.19C236.105 211.488 236.365 211.751 236.669 211.967L238.164 213.029C240.193 214.073 242.372 214.851 244.637 215.341C211.723 140.446 235.235 75.1806 258.891 35.3413Z" fill="#FFE474"/>
<path d="M254.975 30.7289C254.766 30.5245 254.514 30.3606 254.232 30.247C253.951 30.1335 253.646 30.0728 253.338 30.0686C253.03 30.0644 252.724 30.1168 252.438 30.2226C252.153 30.3284 251.895 30.4854 251.68 30.684L251.625 30.7289C251.625 30.7289 235.476 46.6361 223.089 72.7739C223.543 76.4291 226.439 80.0189 231.786 82.7961C243.478 88.869 262.605 88.869 274.297 82.7961C280.107 79.778 283.021 75.8042 283.057 71.8264C270.734 46.2686 254.975 30.7289 254.975 30.7289Z" fill="url(#paint16_linear_1137_27729)"/>
<path d="M240.808 205.257C225.155 218.283 201.48 249.599 198.887 253.046C198.819 253.137 198.724 253.204 198.617 253.239C198.509 253.273 198.393 253.273 198.286 253.238L194.404 252.042C194.211 251.981 194.042 251.86 193.922 251.696C193.803 251.531 193.738 251.333 193.739 251.129C195.349 179.131 225.512 143.459 228.941 139.629C229.033 139.526 229.154 139.455 229.288 139.423C229.421 139.392 229.561 139.403 229.688 139.455L231.95 140.341C232.094 140.399 232.221 140.494 232.316 140.618C232.411 140.742 232.473 140.889 232.493 141.044L240.808 205.257Z" fill="url(#paint17_linear_1137_27729)"/>
<path d="M232.438 140.732L232.406 140.509L229.691 139.431C229.564 139.38 229.425 139.369 229.291 139.4C229.158 139.431 229.037 139.502 228.945 139.605C225.516 143.435 195.353 179.108 193.742 251.105C193.742 251.309 193.806 251.508 193.926 251.672C194.046 251.836 194.214 251.957 194.407 252.018L197.705 253.032C197.786 253.057 197.872 253.063 197.956 253.05C198.039 253.036 198.119 253.003 198.188 252.954C198.257 252.904 198.314 252.84 198.354 252.764C198.394 252.689 198.417 252.606 198.42 252.52C200.85 189.664 225.307 150.791 232.438 140.732Z" fill="#AA6C00"/>
<path d="M263.664 205.256C279.313 218.282 302.992 249.599 305.58 253.046C305.649 253.137 305.743 253.204 305.851 253.238C305.959 253.273 306.074 253.272 306.182 253.238L310.068 252.042C310.262 251.981 310.431 251.86 310.551 251.696C310.672 251.532 310.737 251.333 310.738 251.128C309.127 179.131 278.964 143.459 275.535 139.628C275.442 139.526 275.32 139.455 275.186 139.424C275.052 139.393 274.912 139.403 274.784 139.455L272.522 140.341C272.377 140.397 272.249 140.493 272.153 140.616C272.056 140.74 271.995 140.888 271.975 141.044L263.664 205.256Z" fill="url(#paint18_linear_1137_27729)"/>
<path d="M272.033 140.732L272.06 140.509L274.775 139.431C274.902 139.38 275.042 139.369 275.175 139.4C275.309 139.431 275.429 139.502 275.521 139.605C278.955 143.435 309.118 179.108 310.729 251.105C310.728 251.309 310.663 251.508 310.542 251.672C310.422 251.837 310.252 251.958 310.059 252.018L306.761 253.032C306.68 253.056 306.595 253.061 306.511 253.048C306.428 253.034 306.349 253.001 306.28 252.952C306.211 252.902 306.154 252.838 306.114 252.763C306.073 252.688 306.05 252.605 306.046 252.52C303.617 189.664 279.159 150.791 272.033 140.732Z" fill="#AA6C00"/>
<path d="M281.039 115.768C283.1 105.021 278.905 95.1643 271.671 93.7518C264.437 92.3393 256.902 99.9063 254.841 110.653C252.781 121.4 256.975 131.257 264.21 132.67C271.444 134.082 278.979 126.515 281.039 115.768Z" fill="url(#paint19_linear_1137_27729)"/>
<path d="M285.616 116.704C287.676 105.958 283.482 96.1003 276.248 94.6878C269.013 93.2753 261.478 100.842 259.418 111.589C257.358 122.336 261.552 132.193 268.786 133.606C276.021 135.018 283.556 127.451 285.616 116.704Z" fill="#FFE474"/>
<path d="M282.202 116.291C283.647 108.753 280.706 101.839 275.633 100.848C270.56 99.8578 265.276 105.166 263.831 112.704C262.385 120.243 265.326 127.157 270.4 128.148C275.473 129.138 280.757 123.83 282.202 116.291Z" fill="url(#paint20_linear_1137_27729)"/>
<g filter="url(#filter0_d_1137_27729)">
<rect x="387.374" y="155.066" width="7.95604" height="7.95604" transform="rotate(45 387.374 155.066)" fill="white"/>
<rect x="387.374" y="155.773" width="6.95604" height="6.95604" transform="rotate(45 387.374 155.773)" stroke="white"/>
</g>
<g filter="url(#filter1_d_1137_27729)">
<rect x="142.905" y="101.919" width="9.39596" height="9.39596" transform="rotate(45 142.905 101.919)" fill="white"/>
<rect x="142.905" y="102.626" width="8.39596" height="8.39596" transform="rotate(45 142.905 102.626)" stroke="white"/>
</g>
<g filter="url(#filter2_d_1137_27729)">
<rect x="348.081" y="199.354" width="7.86296" height="7.86296" transform="rotate(45 348.081 199.354)" fill="white"/>
<rect x="348.081" y="200.062" width="6.86296" height="6.86296" transform="rotate(45 348.081 200.062)" stroke="white"/>
</g>
<g filter="url(#filter3_d_1137_27729)">
<rect x="131.223" y="199.354" width="7.19114" height="7.19114" transform="rotate(45 131.223 199.354)" fill="white"/>
<rect x="131.223" y="200.062" width="6.19114" height="6.19114" transform="rotate(45 131.223 200.062)" stroke="white"/>
</g>
<g filter="url(#filter4_d_1137_27729)">
<rect x="109.854" y="155.066" width="5.60247" height="5.60247" transform="rotate(45 109.854 155.066)" fill="white"/>
<rect x="109.854" y="155.773" width="4.60247" height="4.60247" transform="rotate(45 109.854 155.773)" stroke="white"/>
</g>
<g opacity="0.6" filter="url(#filter5_d_1137_27729)">
<rect x="154.142" y="177.843" width="5.60247" height="5.60247" transform="rotate(45 154.142 177.843)" fill="white"/>
<rect x="154.142" y="178.55" width="4.60247" height="4.60247" transform="rotate(45 154.142 178.55)" stroke="white"/>
</g>
<g opacity="0.6" filter="url(#filter6_d_1137_27729)">
<rect x="371.791" y="88" width="5.60247" height="5.60247" transform="rotate(45 371.791 88)" fill="white"/>
<rect x="371.791" y="88.7071" width="4.60247" height="4.60247" transform="rotate(45 371.791 88.7071)" stroke="white"/>
</g>
<g filter="url(#filter7_d_1137_27729)">
<rect x="354.405" y="123.431" width="6.06897" height="6.06897" transform="rotate(45 354.405 123.431)" fill="white"/>
<rect x="354.405" y="124.138" width="5.06897" height="5.06897" transform="rotate(45 354.405 124.138)" stroke="white"/>
</g>
<defs>
<filter id="filter0_d_1137_27729" x="349.748" y="123.066" width="75.252" height="75.2515" filterUnits="userSpaceOnUse" color-interpolation-filters="sRGB">
<feFlood flood-opacity="0" result="BackgroundImageFix"/>
<feColorMatrix in="SourceAlpha" type="matrix" values="0 0 0 0 0 0 0 0 0 0 0 0 0 0 0 0 0 0 127 0" result="hardAlpha"/>
<feMorphology radius="2" operator="dilate" in="SourceAlpha" result="effect1_dropShadow_1137_27729"/>
<feOffset/>
<feGaussianBlur stdDeviation="15"/>
<feComposite in2="hardAlpha" operator="out"/>
<feColorMatrix type="matrix" values="0 0 0 0 1 0 0 0 0 1 0 0 0 0 1 0 0 0 0.4 0"/>
<feBlend mode="normal" in2="BackgroundImageFix" result="effect1_dropShadow_1137_27729"/>
<feBlend mode="normal" in="SourceGraphic" in2="effect1_dropShadow_1137_27729" result="shape"/>
</filter>
<filter id="filter1_d_1137_27729" x="104.261" y="69.9189" width="77.2881" height="77.2881" filterUnits="userSpaceOnUse" color-interpolation-filters="sRGB">
<feFlood flood-opacity="0" result="BackgroundImageFix"/>
<feColorMatrix in="SourceAlpha" type="matrix" values="0 0 0 0 0 0 0 0 0 0 0 0 0 0 0 0 0 0 127 0" result="hardAlpha"/>
<feMorphology radius="2" operator="dilate" in="SourceAlpha" result="effect1_dropShadow_1137_27729"/>
<feOffset/>
<feGaussianBlur stdDeviation="15"/>
<feComposite in2="hardAlpha" operator="out"/>
<feColorMatrix type="matrix" values="0 0 0 0 1 0 0 0 0 1 0 0 0 0 1 0 0 0 0.4 0"/>
<feBlend mode="normal" in2="BackgroundImageFix" result="effect1_dropShadow_1137_27729"/>
<feBlend mode="normal" in="SourceGraphic" in2="effect1_dropShadow_1137_27729" result="shape"/>
</filter>
<filter id="filter2_d_1137_27729" x="310.521" y="167.354" width="75.1201" height="75.1201" filterUnits="userSpaceOnUse" color-interpolation-filters="sRGB">
<feFlood flood-opacity="0" result="BackgroundImageFix"/>
<feColorMatrix in="SourceAlpha" type="matrix" values="0 0 0 0 0 0 0 0 0 0 0 0 0 0 0 0 0 0 127 0" result="hardAlpha"/>
<feMorphology radius="2" operator="dilate" in="SourceAlpha" result="effect1_dropShadow_1137_27729"/>
<feOffset/>
<feGaussianBlur stdDeviation="15"/>
<feComposite in2="hardAlpha" operator="out"/>
<feColorMatrix type="matrix" values="0 0 0 0 1 0 0 0 0 1 0 0 0 0 1 0 0 0 0.4 0"/>
<feBlend mode="normal" in2="BackgroundImageFix" result="effect1_dropShadow_1137_27729"/>
<feBlend mode="normal" in="SourceGraphic" in2="effect1_dropShadow_1137_27729" result="shape"/>
</filter>
<filter id="filter3_d_1137_27729" x="94.1382" y="167.354" width="74.1699" height="74.1699" filterUnits="userSpaceOnUse" color-interpolation-filters="sRGB">
<feFlood flood-opacity="0" result="BackgroundImageFix"/>
<feColorMatrix in="SourceAlpha" type="matrix" values="0 0 0 0 0 0 0 0 0 0 0 0 0 0 0 0 0 0 127 0" result="hardAlpha"/>
<feMorphology radius="2" operator="dilate" in="SourceAlpha" result="effect1_dropShadow_1137_27729"/>
<feOffset/>
<feGaussianBlur stdDeviation="15"/>
<feComposite in2="hardAlpha" operator="out"/>
<feColorMatrix type="matrix" values="0 0 0 0 1 0 0 0 0 1 0 0 0 0 1 0 0 0 0.4 0"/>
<feBlend mode="normal" in2="BackgroundImageFix" result="effect1_dropShadow_1137_27729"/>
<feBlend mode="normal" in="SourceGraphic" in2="effect1_dropShadow_1137_27729" result="shape"/>
</filter>
<filter id="filter4_d_1137_27729" x="73.8921" y="123.066" width="71.9229" height="71.9229" filterUnits="userSpaceOnUse" color-interpolation-filters="sRGB">
<feFlood flood-opacity="0" result="BackgroundImageFix"/>
<feColorMatrix in="SourceAlpha" type="matrix" values="0 0 0 0 0 0 0 0 0 0 0 0 0 0 0 0 0 0 127 0" result="hardAlpha"/>
<feMorphology radius="2" operator="dilate" in="SourceAlpha" result="effect1_dropShadow_1137_27729"/>
<feOffset/>
<feGaussianBlur stdDeviation="15"/>
<feComposite in2="hardAlpha" operator="out"/>
<feColorMatrix type="matrix" values="0 0 0 0 1 0 0 0 0 1 0 0 0 0 1 0 0 0 0.4 0"/>
<feBlend mode="normal" in2="BackgroundImageFix" result="effect1_dropShadow_1137_27729"/>
<feBlend mode="normal" in="SourceGraphic" in2="effect1_dropShadow_1137_27729" result="shape"/>
</filter>
<filter id="filter5_d_1137_27729" x="118.181" y="145.843" width="71.9229" height="71.9229" filterUnits="userSpaceOnUse" color-interpolation-filters="sRGB">
<feFlood flood-opacity="0" result="BackgroundImageFix"/>
<feColorMatrix in="SourceAlpha" type="matrix" values="0 0 0 0 0 0 0 0 0 0 0 0 0 0 0 0 0 0 127 0" result="hardAlpha"/>
<feMorphology radius="2" operator="dilate" in="SourceAlpha" result="effect1_dropShadow_1137_27729"/>
<feOffset/>
<feGaussianBlur stdDeviation="15"/>
<feComposite in2="hardAlpha" operator="out"/>
<feColorMatrix type="matrix" values="0 0 0 0 1 0 0 0 0 1 0 0 0 0 1 0 0 0 0.4 0"/>
<feBlend mode="normal" in2="BackgroundImageFix" result="effect1_dropShadow_1137_27729"/>
<feBlend mode="normal" in="SourceGraphic" in2="effect1_dropShadow_1137_27729" result="shape"/>
</filter>
<filter id="filter6_d_1137_27729" x="335.829" y="56" width="71.9229" height="71.9229" filterUnits="userSpaceOnUse" color-interpolation-filters="sRGB">
<feFlood flood-opacity="0" result="BackgroundImageFix"/>
<feColorMatrix in="SourceAlpha" type="matrix" values="0 0 0 0 0 0 0 0 0 0 0 0 0 0 0 0 0 0 127 0" result="hardAlpha"/>
<feMorphology radius="2" operator="dilate" in="SourceAlpha" result="effect1_dropShadow_1137_27729"/>
<feOffset/>
<feGaussianBlur stdDeviation="15"/>
<feComposite in2="hardAlpha" operator="out"/>
<feColorMatrix type="matrix" values="0 0 0 0 1 0 0 0 0 1 0 0 0 0 1 0 0 0 0.4 0"/>
<feBlend mode="normal" in2="BackgroundImageFix" result="effect1_dropShadow_1137_27729"/>
<feBlend mode="normal" in="SourceGraphic" in2="effect1_dropShadow_1137_27729" result="shape"/>
</filter>
<filter id="filter7_d_1137_27729" x="318.113" y="91.4307" width="72.583" height="72.583" filterUnits="userSpaceOnUse" color-interpolation-filters="sRGB">
<feFlood flood-opacity="0" result="BackgroundImageFix"/>
<feColorMatrix in="SourceAlpha" type="matrix" values="0 0 0 0 0 0 0 0 0 0 0 0 0 0 0 0 0 0 127 0" result="hardAlpha"/>
<feMorphology radius="2" operator="dilate" in="SourceAlpha" result="effect1_dropShadow_1137_27729"/>
<feOffset/>
<feGaussianBlur stdDeviation="15"/>
<feComposite in2="hardAlpha" operator="out"/>
<feColorMatrix type="matrix" values="0 0 0 0 1 0 0 0 0 1 0 0 0 0 1 0 0 0 0.5 0"/>
<feBlend mode="normal" in2="BackgroundImageFix" result="effect1_dropShadow_1137_27729"/>
<feBlend mode="normal" in="SourceGraphic" in2="effect1_dropShadow_1137_27729" result="shape"/>
</filter>
<linearGradient id="paint0_linear_1137_27729" x1="231.095" y1="288.651" x2="222.108" y2="265.577" gradientUnits="userSpaceOnUse">
<stop stop-color="#F6D859"/>
<stop offset="1" stop-color="#FFF7E9"/>
</linearGradient>
<linearGradient id="paint1_linear_1137_27729" x1="275.289" y1="296.555" x2="275.848" y2="273.547" gradientUnits="userSpaceOnUse">
<stop stop-color="#F6D859"/>
<stop offset="1" stop-color="#FFF7E9"/>
</linearGradient>
<linearGradient id="paint2_linear_1137_27729" x1="303.539" y1="299.003" x2="281.047" y2="294.828" gradientUnits="userSpaceOnUse">
<stop stop-color="#F7E497"/>
<stop offset="1" stop-color="#FFF7E9"/>
</linearGradient>
<linearGradient id="paint3_linear_1137_27729" x1="309.917" y1="310.9" x2="294.024" y2="306.776" gradientUnits="userSpaceOnUse">
<stop stop-color="#F7E497"/>
<stop offset="1" stop-color="#FFF7E9"/>
</linearGradient>
<linearGradient id="paint4_linear_1137_27729" x1="296.296" y1="282.369" x2="296.513" y2="272.634" gradientUnits="userSpaceOnUse">
<stop stop-color="#F7E497"/>
<stop offset="1" stop-color="#FFF7E9"/>
</linearGradient>
<linearGradient id="paint5_linear_1137_27729" x1="200.269" y1="283.959" x2="195.127" y2="278.608" gradientUnits="userSpaceOnUse">
<stop stop-color="#F7E497"/>
<stop offset="1" stop-color="#FFF7E9"/>
</linearGradient>
<linearGradient id="paint6_linear_1137_27729" x1="254.577" y1="287.329" x2="257.873" y2="206.891" gradientUnits="userSpaceOnUse">
<stop stop-color="#F6D859"/>
<stop offset="1" stop-color="#FFF7E9"/>
</linearGradient>
<linearGradient id="paint7_linear_1137_27729" x1="284.694" y1="305.615" x2="262.958" y2="282.996" gradientUnits="userSpaceOnUse">
<stop stop-color="#F6D859"/>
<stop offset="1" stop-color="#FFF7E9"/>
</linearGradient>
<linearGradient id="paint8_linear_1137_27729" x1="226.182" y1="309.977" x2="214.763" y2="280.662" gradientUnits="userSpaceOnUse">
<stop stop-color="#F7E497"/>
<stop offset="1" stop-color="#FFF7E9"/>
</linearGradient>
<linearGradient id="paint9_linear_1137_27729" x1="248.708" y1="289.888" x2="228.409" y2="284.599" gradientUnits="userSpaceOnUse">
<stop stop-color="#F6D859"/>
<stop offset="1" stop-color="#FFF7E9"/>
</linearGradient>
<linearGradient id="paint10_linear_1137_27729" x1="254.57" y1="309.923" x2="253.307" y2="292.268" gradientUnits="userSpaceOnUse">
<stop stop-color="#F6D859"/>
<stop offset="1" stop-color="#FFF7E9"/>
</linearGradient>
<linearGradient id="paint11_linear_1137_27729" x1="234.847" y1="324.073" x2="234.847" y2="296.093" gradientUnits="userSpaceOnUse">
<stop stop-color="#F6D859"/>
<stop offset="1" stop-color="#FFF7E9"/>
</linearGradient>
<linearGradient id="paint12_linear_1137_27729" x1="256.35" y1="329.797" x2="257.103" y2="298.825" gradientUnits="userSpaceOnUse">
<stop stop-color="#F7E497"/>
<stop offset="1" stop-color="#FFF7E9"/>
</linearGradient>
<linearGradient id="paint13_linear_1137_27729" x1="207.168" y1="301.781" x2="190.736" y2="298.731" gradientUnits="userSpaceOnUse">
<stop stop-color="#F7E497"/>
<stop offset="1" stop-color="#FFF7E9"/>
</linearGradient>
<linearGradient id="paint14_linear_1137_27729" x1="209.99" y1="183.639" x2="211.78" y2="149.007" gradientUnits="userSpaceOnUse">
<stop stop-color="#E1B600"/>
<stop offset="1" stop-color="#C77E00"/>
</linearGradient>
<linearGradient id="paint15_linear_1137_27729" x1="302.775" y1="183.639" x2="304.564" y2="149.007" gradientUnits="userSpaceOnUse">
<stop stop-color="#E1B600"/>
<stop offset="1" stop-color="#C77E00"/>
</linearGradient>
<linearGradient id="paint16_linear_1137_27729" x1="263.336" y1="81.0508" x2="264.603" y2="36.3349" gradientUnits="userSpaceOnUse">
<stop stop-color="#C77E00"/>
<stop offset="1" stop-color="#E1B600"/>
</linearGradient>
<linearGradient id="paint17_linear_1137_27729" x1="225.329" y1="240.742" x2="231.68" y2="152.246" gradientUnits="userSpaceOnUse">
<stop stop-color="#E1B600"/>
<stop offset="1" stop-color="#C77E00"/>
</linearGradient>
<linearGradient id="paint18_linear_1137_27729" x1="295.257" y1="240.742" x2="301.608" y2="152.246" gradientUnits="userSpaceOnUse">
<stop stop-color="#E1B600"/>
<stop offset="1" stop-color="#C77E00"/>
</linearGradient>
<linearGradient id="paint19_linear_1137_27729" x1="279.435" y1="108.546" x2="259.04" y2="104.211" gradientUnits="userSpaceOnUse">
<stop stop-color="#E1B600"/>
<stop offset="1" stop-color="#C77E00"/>
</linearGradient>
<linearGradient id="paint20_linear_1137_27729" x1="289.043" y1="88.9325" x2="282.704" y2="131.311" gradientUnits="userSpaceOnUse">
<stop stop-color="#E1B600"/>
<stop offset="1" stop-color="#C77E00"/>
</linearGradient>
</defs>
</svg>
