<svg width="16" height="16" viewBox="0 0 16 16" fill="none" xmlns="http://www.w3.org/2000/svg">
<path d="M8.02648 1.50684C8.91919 1.50684 9.76039 1.67606 10.5501 2.0145C11.3398 2.35294 12.029 2.81647 12.6176 3.40507C13.2062 3.99367 13.6697 4.68282 14.0081 5.47253C14.3466 6.26224 14.5158 7.10344 14.5158 7.99615C14.5158 8.89867 14.3466 9.74233 14.0081 10.5271C13.6697 11.3119 13.2062 11.9986 12.6176 12.5872C12.029 13.1758 11.3398 13.6394 10.5501 13.9778C9.76039 14.3162 8.91919 14.4855 8.02648 14.4855C7.12396 14.4855 6.27785 14.3162 5.48814 13.9778C4.69843 13.6394 4.00928 13.1758 3.42068 12.5872C2.83208 11.9986 2.36855 11.3119 2.03011 10.5271C1.69168 9.74233 1.52246 8.89867 1.52246 7.99615C1.52246 7.10344 1.69168 6.26224 2.03013 5.47253C2.36857 4.68282 2.8321 3.99367 3.4207 3.40507C4.00929 2.81647 4.69844 2.35294 5.48815 2.0145C6.27786 1.67606 7.12396 1.50684 8.02648 1.50684ZM11.7347 8.89377C11.9897 8.89377 12.2055 8.80303 12.3821 8.62155C12.5587 8.44006 12.647 8.22179 12.647 7.96673C12.647 7.71167 12.5587 7.49585 12.3821 7.31927C12.2055 7.14269 11.9897 7.0544 11.7347 7.0544H8.96824V4.28797C8.96824 4.03292 8.8775 3.81464 8.69602 3.63316C8.51454 3.45167 8.29626 3.36093 8.0412 3.36093C7.78614 3.36093 7.57032 3.45167 7.39374 3.63316C7.21716 3.81464 7.12887 4.03292 7.12887 4.28797V7.05439H4.36245C4.10739 7.05439 3.89156 7.14267 3.71499 7.31925C3.53841 7.49583 3.45012 7.71166 3.45012 7.96671C3.45012 8.22177 3.53841 8.44005 3.71499 8.62153C3.89156 8.80301 4.10739 8.89376 4.36245 8.89376H7.12886V11.6455C7.12886 11.9005 7.21715 12.1188 7.39373 12.3003C7.57031 12.4818 7.78613 12.5725 8.04119 12.5725C8.29625 12.5725 8.51452 12.4818 8.69601 12.3003C8.87749 12.1188 8.96823 11.9005 8.96823 11.6455V8.89376L11.7347 8.89377Z" fill="white"/>
</svg>
