<svg width="10" height="10" viewBox="0 0 10 10" fill="none" xmlns="http://www.w3.org/2000/svg">
<g clip-path="url(#clip0_1549_45851)">
<path d="M9.5302 0.615619C9.45446 0.430106 9.32419 0.271952 9.15663 0.162073C8.98906 0.0521933 8.79209 -0.0042358 8.59176 0.000247902H1.38169C1.18519 0.000609506 0.993201 0.0591523 0.829936 0.168492C0.666671 0.277832 0.539442 0.433072 0.464296 0.614631C0.38915 0.79619 0.369453 0.995937 0.407689 1.18868C0.445925 1.38142 0.540382 1.55852 0.679146 1.69764L3.9765 4.86166V8.0103C3.97621 8.12339 4.02042 8.23207 4.09957 8.31285L5.6021 9.85128C5.64246 9.89357 5.69101 9.9272 5.74479 9.95012C5.79857 9.97304 5.85645 9.98478 5.91491 9.98461C5.97104 9.98453 6.02667 9.9741 6.07901 9.95384C6.15914 9.92202 6.22787 9.86689 6.27632 9.79558C6.32477 9.72427 6.35071 9.64006 6.35079 9.55385V4.84116L9.33534 1.69764C9.47056 1.5564 9.56116 1.37843 9.59582 1.18599C9.63048 0.993545 9.60765 0.795165 9.5302 0.615619Z" fill="#798391"/>
</g>
<defs>
<clipPath id="clip0_1549_45851">
<rect width="10" height="10" fill="white"/>
</clipPath>
</defs>
</svg>
