<svg width="13" height="13" viewBox="0 0 13 13" fill="none" xmlns="http://www.w3.org/2000/svg">
<path d="M6.5 0C10.0899 6.44256e-08 13 2.91015 13 6.5C13 10.0899 10.0899 13 6.5 13C2.91015 13 6.44277e-08 10.0899 0 6.5C0 2.91015 2.91015 0 6.5 0ZM1.2041 8.81152C1.93028 10.4729 3.41505 11.7245 5.2207 12.1328C4.87314 11.7956 4.57505 11.3299 4.33203 10.7832C4.08072 10.2177 3.88056 9.54885 3.74414 8.81152H1.2041ZM9.25586 8.81152C9.11944 9.54885 8.91927 10.2177 8.66797 10.7832C8.42483 11.3302 8.1261 11.7955 7.77832 12.1328C9.58439 11.7247 11.0696 10.4732 11.7959 8.81152H9.25586ZM4.48047 8.81152C4.60633 9.44543 4.78069 10.0133 4.99219 10.4893C5.21513 10.9909 5.47018 11.3755 5.73633 11.6289C6.00056 11.8803 6.25862 11.9892 6.5 11.9893C6.74129 11.9892 6.99857 11.8802 7.2627 11.6289C7.52892 11.3755 7.78482 10.991 8.00781 10.4893C8.2193 10.0133 8.39367 9.44543 8.51953 8.81152H4.48047ZM0.945312 4.91211C0.801315 5.41679 0.722656 5.94911 0.722656 6.5C0.722656 7.05165 0.801913 7.58455 0.946289 8.08984H3.63672C3.5749 7.58141 3.53908 7.04855 3.53906 6.5C3.53907 5.95231 3.57412 5.41984 3.63574 4.91211H0.945312ZM4.36328 4.91211C4.29847 5.41395 4.26075 5.94676 4.26074 6.5C4.26076 7.05409 4.29827 7.58735 4.36328 8.08984H8.63672C8.70173 7.58735 8.73924 7.05408 8.73926 6.5C8.73925 5.94676 8.70153 5.41395 8.63672 4.91211H4.36328ZM9.36426 4.91211C9.42588 5.41984 9.46093 5.95231 9.46094 6.5C9.46092 7.04855 9.42511 7.5814 9.36328 8.08984H12.0537C12.1981 7.58455 12.2773 7.05165 12.2773 6.5C12.2773 5.94911 12.1987 5.41679 12.0547 4.91211H9.36426ZM5.2207 0.866211C3.41466 1.27458 1.93018 2.52759 1.2041 4.18945H3.74414C3.88054 3.45154 4.08056 2.78264 4.33203 2.2168C4.57517 1.6698 4.8729 1.20352 5.2207 0.866211ZM6.5 1.01074C6.25862 1.01083 6.00056 1.11966 5.73633 1.37109C5.47029 1.62437 5.21506 2.00843 4.99219 2.50977C4.78049 2.98608 4.60635 3.55486 4.48047 4.18945H8.51953C8.39365 3.55486 8.21951 2.98608 8.00781 2.50977C7.78486 2.00824 7.52884 1.62438 7.2627 1.37109C6.99855 1.11979 6.74131 1.01085 6.5 1.01074ZM7.77832 0.866211C8.12635 1.20356 8.42471 1.66952 8.66797 2.2168C8.91944 2.78264 9.11946 3.45154 9.25586 4.18945H11.7959C11.0697 2.5273 9.58478 1.27436 7.77832 0.866211Z" fill="#F0F1F5"/>
</svg>
