<svg width="21" height="21" viewBox="0 0 21 21" fill="none" xmlns="http://www.w3.org/2000/svg">
<path d="M13.5884 7.70761C13.7364 7.26353 13.8037 7.04821 13.9248 7.00784C13.9787 6.99438 14.0325 6.99438 14.0863 7.00784C14.2074 7.04821 14.2747 7.26353 14.4228 7.70761C15.0283 9.55125 15.3244 10.4663 15.903 11.193C16.1722 11.5295 16.4683 11.8255 16.8047 12.0947C17.5314 12.6599 18.4465 12.9694 20.2901 13.575C20.7342 13.723 20.9495 13.7903 20.9899 13.9114C21.0033 13.9652 21.0033 14.019 20.9899 14.0729C20.9495 14.194 20.7342 14.2613 20.2901 14.4093C18.4465 15.0149 17.5314 15.3109 16.8047 15.8896C16.4683 16.1587 16.1722 16.4548 15.903 16.7912C15.3378 17.5179 15.0283 18.433 14.4228 20.2766C14.2747 20.7207 14.2074 20.936 14.0863 20.9764C14.0325 20.9899 13.9787 20.9899 13.9248 20.9764C13.8037 20.936 13.7364 20.7207 13.5884 20.2766C12.9828 18.433 12.6868 17.5179 12.1081 16.7912C11.839 16.4548 11.5429 16.1587 11.2065 15.8896C10.4798 15.3244 9.56471 15.0149 7.72107 14.4093C7.27698 14.2613 7.06167 14.194 7.0213 14.0729C7.00784 14.019 7.00784 13.9652 7.0213 13.9114C7.06167 13.7903 7.27698 13.723 7.72107 13.575C9.56471 12.9694 10.4798 12.6733 11.2065 12.0947C11.5429 11.8255 11.839 11.5295 12.1081 11.193C12.6868 10.4663 12.9828 9.55125 13.5884 7.70761ZM4.39714 3.97997C4.49134 3.68391 4.54517 3.53588 4.62591 3.50897C4.66629 3.49551 4.6932 3.49551 4.73357 3.50897C4.81431 3.53588 4.85469 3.68391 4.96234 3.97997C5.36606 5.20457 5.56792 5.8236 5.94472 6.30806C6.11966 6.53684 6.32152 6.7387 6.55029 6.91364C7.03475 7.29044 7.65379 7.4923 8.87839 7.89601C9.17445 7.99021 9.32248 8.04404 9.34939 8.12479C9.36285 8.16516 9.36285 8.19207 9.34939 8.23244C9.32248 8.31319 9.17445 8.35356 8.87839 8.46122C7.65379 8.86493 7.03475 9.06679 6.55029 9.44359C6.32152 9.61854 6.11966 9.82039 5.94472 10.0492C5.56792 10.5336 5.36606 11.1527 4.96234 12.3773C4.86814 12.6733 4.81431 12.8214 4.73357 12.8483C4.6932 12.8617 4.66629 12.8617 4.62591 12.8483C4.54517 12.8214 4.5048 12.6733 4.39714 12.3773C3.99343 11.1527 3.79157 10.5336 3.41477 10.0492C3.23982 9.82039 3.03796 9.61854 2.80919 9.44359C2.32473 9.06679 1.7057 8.86493 0.481095 8.46122C0.185036 8.36702 0.0370073 8.31319 0.0100929 8.23244C-0.0033643 8.19207 -0.0033643 8.16516 0.0100929 8.12479C0.0370073 8.04404 0.185036 8.00367 0.481095 7.89601C1.7057 7.4923 2.32473 7.29044 2.80919 6.91364C3.03796 6.7387 3.23982 6.53684 3.41477 6.30806C3.79157 5.81015 3.99343 5.20457 4.39714 3.97997ZM10.9239 0.306151C10.9777 0.11775 11.0181 0.0370073 11.0585 0.0100929C11.0854 -0.0033643 11.0988 -0.0033643 11.1257 0.0100929C11.1796 0.0235501 11.2065 0.11775 11.2603 0.306151C11.516 1.07321 11.6371 1.45001 11.8793 1.75953C11.987 1.8941 12.1216 2.02867 12.2561 2.13633C12.5657 2.37856 12.9425 2.49968 13.7095 2.75536C13.8979 2.80919 13.9787 2.84956 14.0056 2.88993C14.019 2.91685 14.019 2.93031 14.0056 2.95722C13.9921 3.01105 13.8979 3.03796 13.7095 3.09179C12.9425 3.34748 12.5657 3.46859 12.2561 3.71082C12.1216 3.81848 11.987 3.95305 11.8793 4.08763C11.6371 4.39714 11.516 4.77394 11.2603 5.541C11.2065 5.72941 11.1661 5.81015 11.1257 5.83706C11.0988 5.85052 11.0854 5.85052 11.0585 5.83706C11.0046 5.82361 10.9777 5.72941 10.9239 5.541C10.6682 4.77394 10.5471 4.39714 10.3049 4.08763C10.1972 3.95305 10.0626 3.81848 9.92805 3.71082C9.61854 3.46859 9.24173 3.34748 8.47467 3.09179C8.28627 3.03796 8.20553 2.99759 8.17862 2.95722C8.16516 2.93031 8.16516 2.91685 8.17862 2.88993C8.19207 2.83611 8.28627 2.80919 8.47467 2.75536C9.24173 2.49968 9.61854 2.37856 9.92805 2.13633C10.0626 2.02867 10.1972 1.8941 10.3049 1.75953C10.5336 1.45001 10.6682 1.07321 10.9239 0.306151Z" fill="#0A0C0F"/>
</svg>
