<svg width="6" height="13" viewBox="0 0 6 13" fill="none" xmlns="http://www.w3.org/2000/svg">
<path d="M2.69358 12.6103C2.22805 12.8704 1.84725 13.0005 1.55194 13.0005C1.29305 13.0005 1.08798 12.9209 0.936554 12.7621C0.785085 12.6031 0.709423 12.3827 0.709423 12.1009C0.709423 11.1979 1.26363 8.99061 2.37214 5.47925C2.42396 5.31303 2.44983 5.16488 2.44983 5.03493C2.44983 4.89055 2.38329 4.8182 2.25026 4.8182C2.10235 4.8182 1.93441 4.87613 1.74605 4.99157C1.55749 5.10724 1.13787 5.47575 0.487804 6.09706L0 5.72855C0.738076 4.93387 1.41166 4.36833 2.02047 4.03245C2.6296 3.69656 3.14788 3.52851 3.57604 3.52851C3.81239 3.52851 3.99319 3.57913 4.11864 3.68015C4.24398 3.78144 4.30692 3.91857 4.30692 4.09202C4.30692 4.30164 4.06741 5.19034 3.5882 6.75817C2.80711 9.32292 2.41654 10.8693 2.41654 11.3966C2.41654 11.4978 2.44225 11.5827 2.49413 11.6512C2.5458 11.7199 2.60116 11.754 2.66043 11.754C2.89686 11.754 3.50288 11.3063 4.4783 10.4103L4.91062 10.8221C3.89797 11.754 3.15915 12.3502 2.69358 12.6103ZM5.2723 1.63102C5.04682 1.87321 4.79378 1.994 4.51297 1.994C4.29133 1.994 4.1065 1.91813 3.9587 1.76639C3.8109 1.61482 3.73706 1.41613 3.73706 1.17033C3.73706 0.845312 3.84402 0.568873 4.0585 0.341245C4.2727 0.113762 4.52776 0 4.82349 0C5.05236 0 5.24089 0.0741287 5.38869 0.222055C5.53649 0.370312 5.61031 0.559923 5.61031 0.79101C5.61039 1.10899 5.49769 1.38887 5.2723 1.63102Z" fill="#656A79"/>
</svg>
