<svg width="11" height="9" viewBox="0 0 11 9" fill="none" xmlns="http://www.w3.org/2000/svg">
<path d="M0.285705 4.10239C0.310678 4.08991 0.335664 4.07805 0.360013 4.06681C0.783318 3.87076 1.21224 3.68721 1.64054 3.50365C1.66364 3.50365 1.70234 3.47681 1.72419 3.46806C1.75728 3.4537 1.79038 3.43997 1.82347 3.42561C1.88715 3.39814 1.95084 3.37129 2.0139 3.34382C2.14126 3.2895 2.268 3.23518 2.39536 3.18086L3.15768 2.85433C3.6659 2.63706 4.17475 2.41917 4.68296 2.2019C5.19118 1.98462 5.70001 1.76673 6.20823 1.54946C6.71644 1.33219 7.22528 1.11429 7.7335 0.897021C8.24171 0.67975 8.75056 0.461854 9.25878 0.244582C9.37178 0.195884 9.49415 0.123458 9.61527 0.10223C9.71704 0.0841244 9.8163 0.0491629 9.9187 0.0298082C10.1129 -0.00702798 10.327 -0.0220108 10.5131 0.0585294C10.5774 0.0866248 10.6367 0.125958 10.686 0.175281C10.922 0.408785 10.8889 0.792129 10.839 1.12053C10.4912 3.40937 10.1435 5.69884 9.79508 7.98768C9.74763 8.30173 9.68269 8.64636 9.43483 8.8449C9.22505 9.01285 8.92661 9.03158 8.66751 8.96041C8.40841 8.88861 8.1799 8.73814 7.95576 8.59017C7.02612 7.97457 6.09585 7.35897 5.1662 6.74336C4.94519 6.59727 4.6992 6.40622 4.7017 6.14088C4.70295 5.98104 4.79846 5.83869 4.89586 5.71195C5.70376 4.65806 6.86941 3.93382 7.73662 2.92863C7.85899 2.78691 7.95514 2.53093 7.7872 2.44914C7.6873 2.40044 7.57241 2.46662 7.48126 2.52968C6.33496 3.32571 5.18931 4.12237 4.04301 4.91841C3.66903 5.17814 3.27694 5.44536 2.82617 5.50904C2.42284 5.56648 2.01702 5.4541 1.62681 5.33922C1.29965 5.24307 0.973109 5.14442 0.647827 5.04265C0.474884 4.98896 0.29632 4.9309 0.162711 4.80915C0.0291015 4.6874 -0.0476823 4.48262 0.0328579 4.32029C0.0834297 4.21852 0.181453 4.15422 0.28447 4.10177L0.285705 4.10239Z" fill="#F0F1F5"/>
</svg>
