<svg width="41" height="41" viewBox="0 0 41 41" fill="none" xmlns="http://www.w3.org/2000/svg">
<path d="M23.6538 41H4.73077C2.11938 41 0 38.8764 0 36.2692V4.73077C0 2.11938 2.12359 0 4.73077 0H36.2692C38.8806 0 41 2.12359 41 4.73077V23.657C41 24.5296 40.2956 25.2339 39.4231 25.2339C38.5505 25.2339 37.8462 24.5296 37.8462 23.657V4.73182C37.8462 3.85926 37.1365 3.1549 36.2692 3.1549H4.73077C3.85821 3.1549 3.15385 3.86346 3.15385 4.73182V36.2682C3.15385 37.1407 3.86346 37.8451 4.73077 37.8451H23.6538C24.5264 37.8451 25.2308 38.5505 25.2308 39.422C25.2308 40.2946 24.5264 41 23.6538 41ZM1.57692 29.4348C1.26505 29.4339 0.960426 29.3407 0.701431 29.1669C0.442436 28.9932 0.240652 28.7467 0.121498 28.4585C0.00234348 28.1702 -0.0288517 27.8532 0.0318415 27.5473C0.0925347 27.2414 0.242402 26.9603 0.462564 26.7394L8.31774 18.8873C9.01861 18.1848 9.92304 17.7211 10.9025 17.562C11.882 17.4029 12.8867 17.5566 13.7739 18.0011L22.3282 22.2788C22.9348 22.5836 23.6633 22.4659 24.1416 21.9834L38.3045 7.81838C38.603 7.5344 39.0007 7.37834 39.4127 7.38353C39.8247 7.38872 40.2184 7.55474 40.5097 7.84616C40.8009 8.13757 40.9668 8.5313 40.9718 8.94329C40.9768 9.35529 40.8205 9.75292 40.5364 10.0513L26.3746 24.2152C25.6738 24.9179 24.7694 25.3818 23.79 25.5411C22.8105 25.7004 21.8057 25.5469 20.9184 25.1025L12.3641 20.8238C12.0695 20.6746 11.735 20.6229 11.409 20.6762C11.0831 20.7295 10.7825 20.885 10.5507 21.1203L2.69023 28.9712C2.38536 29.2824 1.98062 29.4338 1.57692 29.4338V29.4348ZM17.3462 15.7661C14.739 15.7661 12.6154 13.6425 12.6154 11.0353C12.6154 8.42813 14.739 6.30349 17.3462 6.30349C19.9533 6.30349 22.0769 8.42708 22.0769 11.0343C22.0769 13.6414 19.9533 15.7661 17.3462 15.7661ZM17.3462 9.45838C16.4788 9.45838 15.7692 10.1669 15.7692 11.0353C15.7692 11.9026 16.4788 12.6122 17.3462 12.6122C18.2135 12.6122 18.9231 11.9026 18.9231 11.0353C18.9231 10.1669 18.2135 9.45838 17.3462 9.45838ZM33.1154 41C32.2428 41 31.5385 40.2956 31.5385 39.4231V29.9605C31.5385 29.0879 32.2428 28.3836 33.1154 28.3836C33.9879 28.3836 34.6923 29.0879 34.6923 29.9605V39.422C34.6923 40.2946 33.9879 41 33.1154 41ZM39.4231 34.6923C39.0341 34.6923 38.6493 34.5483 38.3434 34.2623L33.1154 29.3539L27.8874 34.2676C27.7367 34.4097 27.5594 34.5207 27.3657 34.5942C27.172 34.6676 26.9657 34.7021 26.7586 34.6957C26.5515 34.6893 26.3478 34.642 26.159 34.5566C25.9703 34.4712 25.8002 34.3494 25.6586 34.1982C25.5168 34.0475 25.406 33.8702 25.3328 33.6766C25.2595 33.483 25.2251 33.2769 25.2315 33.07C25.2379 32.8631 25.2851 32.6595 25.3703 32.4708C25.4555 32.2822 25.5771 32.1122 25.728 31.9705L31.2578 26.7772C31.4822 26.501 31.7653 26.2783 32.0867 26.1253C32.4081 25.9724 32.7595 25.893 33.1154 25.8931C33.8408 25.8931 34.5199 26.219 34.973 26.7762L40.5027 31.9695C40.733 32.1857 40.8929 32.4661 40.9617 32.7743C41.0305 33.0826 41.0051 33.4044 40.8886 33.698C40.7722 33.9916 40.5702 34.2434 40.3089 34.4207C40.0475 34.598 39.7389 34.6926 39.4231 34.6923Z" fill="#656A79"/>
</svg>
