<svg width="11" height="12" viewBox="0 0 11 12" fill="none" xmlns="http://www.w3.org/2000/svg">
<path d="M2.00596 1.83805L5.19671 0L8.38748 1.83805L7.21439 2.51707L5.19671 1.35805L3.17903 2.51707L2.00596 1.83805ZM8.38748 4.15609L7.21439 3.47707L5.19671 4.63609L3.17903 3.47707L2.00596 4.15609V5.51414L4.02364 6.67314V8.99118L5.19671 9.67023L6.3698 8.99118V6.67314L8.38748 5.51414V4.15609ZM8.38748 7.83218V6.47414L7.21439 7.15314V8.51118L8.38748 7.83218ZM9.22034 8.31218L7.20266 9.47118V10.8292L10.3934 8.99118V5.31509L9.22034 5.99414V8.31218ZM8.0473 2.99707L9.22034 3.67609V5.03414L10.3934 4.35511V2.99707L9.22034 2.31805L8.0473 2.99707ZM4.02364 9.96293V11.321L5.19671 12L6.3698 11.321V9.96293L5.19671 10.6419L4.02364 9.96293ZM2.00596 7.83218L3.17903 8.51118V7.15314L2.00596 6.47414V7.83218ZM4.02364 2.99707L5.19671 3.67609L6.3698 2.99707L5.19671 2.31805L4.02364 2.99707ZM1.17307 3.67609L2.34614 2.99707L1.17307 2.31805L0 2.99707V4.35511L1.17307 5.03414V3.67609ZM1.17307 5.99414L0 5.31509V8.99118L3.19075 10.8292V9.47118L1.17307 8.31218V5.99414Z" fill="white"/>
</svg>
