<svg width="11" height="11" viewBox="0 0 11 11" fill="none" xmlns="http://www.w3.org/2000/svg">
<path d="M10.5552 8.04865C10.2607 8.22898 9.85794 8.36723 9.35302 8.46941C8.8481 8.5716 8.2951 8.6257 7.70001 8.6257C7.10493 8.6257 6.55192 8.5716 6.04701 8.46941C5.54209 8.36723 5.13935 8.22297 4.84482 8.04865C4.55028 7.87433 4.40001 7.67597 4.40001 7.4716V6.7022C4.74263 6.95466 5.20547 7.14701 5.79455 7.27324C6.38362 7.39947 7.02078 7.46559 7.70001 7.46559C8.37925 7.46559 9.0104 7.39947 9.60548 7.27324C10.1946 7.141 10.6634 6.95466 11 6.7022V7.4716C11 7.67597 10.8497 7.86832 10.5552 8.04865ZM10.5552 6.31149C10.2607 6.49181 9.85794 6.63007 9.35302 6.73225C8.8481 6.83444 8.2951 6.88854 7.70001 6.88854C7.10493 6.88854 6.55192 6.83444 6.04701 6.73225C5.54209 6.63007 5.13935 6.4858 4.84482 6.31149C4.55028 6.13116 4.40001 5.93881 4.40001 5.73444V4.96504C4.74263 5.2175 5.20547 5.40985 5.79455 5.53608C6.38362 5.66832 7.02078 5.72842 7.70001 5.72842C8.37925 5.72842 9.0104 5.66231 9.60548 5.53608C10.1946 5.40985 10.6634 5.2175 11 4.96504V5.73444C11 5.93881 10.8497 6.13116 10.5552 6.31149ZM10.5552 4.58034C10.2607 4.75465 9.85794 4.89892 9.35302 5.0011C8.8481 5.10329 8.2951 5.15739 7.70001 5.15739C7.10493 5.15739 6.55192 5.10329 6.04701 5.0011C5.54209 4.89892 5.13935 4.75465 4.84482 4.58034C4.55028 4.40001 4.40001 4.20766 4.40001 4.00329V3.42624C4.40001 3.21585 4.55028 3.0235 4.84482 2.84919C5.13935 2.66886 5.54209 2.53061 6.04701 2.42842C6.55192 2.32623 7.10493 2.27214 7.70001 2.27214C8.2951 2.27214 8.8481 2.32623 9.35302 2.42842C9.85794 2.53061 10.2607 2.67487 10.5552 2.84919C10.8497 3.02951 11 3.22186 11 3.42624V4.00329C11 4.20766 10.8497 4.40001 10.5552 4.58034ZM3.7929 3.27596C3.11968 3.26995 2.49454 3.21585 1.9235 3.10165C1.33443 2.98143 0.865575 2.82514 0.522952 2.62077C0.180328 2.4164 0.00601095 2.2 0.00601095 1.96558V1.31038C0.00601095 1.07596 0.180328 0.853553 0.522952 0.655192C0.865575 0.45082 1.33443 0.294536 1.9235 0.174317C2.51257 0.0540985 3.15574 0 3.85301 0C4.55028 0 5.19345 0.0601094 5.78252 0.174317C6.3716 0.294536 6.84045 0.45082 7.18307 0.655192C7.5257 0.859564 7.70001 1.07596 7.70001 1.31038V1.56886L6.44974 1.67705C5.46996 1.66503 3.74482 2.26612 3.7929 3.27596ZM3.77487 3.93115V5.24154C3.10766 5.23553 2.48853 5.18143 1.9235 5.06722C1.33443 4.947 0.865575 4.79072 0.522952 4.58635C0.180328 4.38198 0.00601095 4.16558 0.00601095 3.93115V3.05957C0.402733 3.34809 0.943717 3.56449 1.63498 3.70875C2.29618 3.85301 3.01148 3.92514 3.77487 3.93115ZM3.77487 5.90274V7.21313C3.10766 7.20712 2.48853 7.15302 1.9235 7.03881C1.33443 6.91859 0.865575 6.76231 0.522952 6.55793C0.180328 6.35356 0.00601095 6.13717 0.00601095 5.90274V5.03116C0.402733 5.31968 0.943717 5.53608 1.63498 5.68034C2.29618 5.8246 3.01148 5.89673 3.77487 5.90274ZM3.77487 7.87433V9.10657C3.77487 9.13663 3.78088 9.16067 3.78088 9.19073C3.11367 9.18472 2.48853 9.13062 1.91749 9.01641C1.32842 8.89619 0.859564 8.73991 0.516941 8.53553C0.174317 8.33116 0 8.11477 0 7.88034V7.00876C0.396722 7.29728 0.937707 7.51368 1.62896 7.65794C2.29618 7.79619 3.01148 7.86832 3.77487 7.87433ZM7.70001 9.20275C8.37925 9.20275 9.0104 9.13663 9.60548 9.0104C10.1946 8.87816 10.6634 8.69182 11 8.43936V9.20876C11 9.41914 10.8497 9.61149 10.5552 9.78581C10.2607 9.96614 9.85794 10.1044 9.35302 10.2066C8.8481 10.3088 8.2951 10.3629 7.70001 10.3629C7.10493 10.3629 6.55192 10.3088 6.04701 10.2066C5.54209 10.1044 5.13935 9.96013 4.84482 9.78581C4.55028 9.60548 4.40001 9.41313 4.40001 9.20876V8.43335C4.74263 8.68581 5.20547 8.87816 5.79455 9.00439C6.38362 9.13663 7.02078 9.20275 7.70001 9.20275Z" fill="#FFD426"/>
</svg>
