<svg width="10" height="10" viewBox="0 0 10 10" fill="none" xmlns="http://www.w3.org/2000/svg">
<g clip-path="url(#clip0_1197_51643)">
<path d="M6.97229 2.5125C6.97229 2.5125 7.42562 2.67021 8.30896 3.54375C9.19229 4.4175 9.3625 4.89375 9.3625 4.89375H9.36271C9.37109 5.2416 9.37519 5.58955 9.375 5.9375C9.375 7.00687 9.33937 7.79104 9.30125 8.32354C9.26333 8.85625 8.85625 9.26312 8.32333 9.30125C7.79104 9.33937 7.00667 9.375 5.9375 9.375C4.86812 9.375 4.08396 9.33937 3.55146 9.30125C3.01875 9.26333 2.61187 8.85625 2.57375 8.32333C2.53542 7.79125 2.5 7.00687 2.5 5.9375C2.5 4.86812 2.53563 4.08396 2.57375 3.55167C2.61167 3.01875 3.01875 2.61167 3.55167 2.57375C4.08375 2.53542 4.86812 2.5 5.9375 2.5C6.31812 2.5 6.6625 2.50458 6.9725 2.51208L6.97229 2.51229V2.5125Z" stroke="#656A79" stroke-linecap="round" stroke-linejoin="round"/>
<path d="M7.39042 1.45833C7.27542 1.03667 6.91333 0.732083 6.45854 0.699375C5.92604 0.661042 5.13854 0.625 4.0625 0.625C2.99292 0.625 2.20875 0.660625 1.67646 0.69875C1.14375 0.736667 0.736458 1.14375 0.698542 1.67667C0.660417 2.20896 0.625 2.99333 0.625 4.0625C0.625 5.13854 0.66125 5.92583 0.699375 6.45833C0.732083 6.91312 1.03688 7.27542 1.45833 7.39021" stroke="#656A79" stroke-linecap="round" stroke-linejoin="round"/>
<path d="M9.36255 4.89318C8.79734 5.0338 8.14234 5.04318 7.56588 4.86901C7.44643 4.83247 7.33735 4.76809 7.24764 4.68117C7.15792 4.59424 7.09013 4.48725 7.04984 4.36901C6.84505 3.77484 6.82151 3.07151 6.97213 2.51172" stroke="#656A79" stroke-linecap="round" stroke-linejoin="round"/>
</g>
<defs>
<clipPath id="clip0_1197_51643">
<rect width="10" height="10" fill="white"/>
</clipPath>
</defs>
</svg>
