<svg width="21" height="21" viewBox="0 0 21 21" fill="none" xmlns="http://www.w3.org/2000/svg">
<path d="M13.5885 7.70766C13.7365 7.26357 13.8038 7.04825 13.9249 7.00788C13.9788 6.99442 14.0326 6.99442 14.0864 7.00788C14.2075 7.04825 14.2748 7.26357 14.4228 7.70766C15.0284 9.55131 15.3245 10.4664 15.9031 11.1931C16.1723 11.5295 16.4683 11.8256 16.8048 12.0947C17.5315 12.6599 18.4466 12.9695 20.2902 13.575C20.7343 13.7231 20.9496 13.7904 20.99 13.9115C21.0035 13.9653 21.0035 14.0191 20.99 14.073C20.9496 14.1941 20.7343 14.2614 20.2902 14.4094C18.4466 15.015 17.5315 15.311 16.8048 15.8897C16.4683 16.1588 16.1723 16.4549 15.9031 16.7913C15.3379 17.518 15.0284 18.4331 14.4228 20.2768C14.2748 20.7209 14.2075 20.9362 14.0864 20.9765C14.0326 20.99 13.9788 20.99 13.9249 20.9765C13.8038 20.9362 13.7365 20.7209 13.5885 20.2768C12.9829 18.4331 12.6869 17.518 12.1082 16.7913C11.839 16.4549 11.543 16.1588 11.2066 15.8897C10.4799 15.3245 9.56476 15.015 7.72112 14.4094C7.27703 14.2614 7.06171 14.1941 7.02134 14.073C7.00788 14.0191 7.00788 13.9653 7.02134 13.9115C7.06171 13.7904 7.27703 13.7231 7.72112 13.575C9.56476 12.9695 10.4799 12.6734 11.2066 12.0947C11.543 11.8256 11.839 11.5295 12.1082 11.1931C12.6869 10.4664 12.9829 9.55131 13.5885 7.70766ZM4.39717 3.97999C4.49137 3.68393 4.5452 3.5359 4.62594 3.50899C4.66631 3.49553 4.69323 3.49553 4.7336 3.50899C4.81434 3.5359 4.85471 3.68393 4.96237 3.97999C5.36609 5.2046 5.56795 5.82364 5.94476 6.3081C6.1197 6.53688 6.32156 6.73873 6.55033 6.91368C7.03479 7.29048 7.65383 7.49234 8.87844 7.89606C9.1745 7.99026 9.32253 8.04409 9.34945 8.12483C9.36291 8.16521 9.36291 8.19212 9.34945 8.23249C9.32253 8.31324 9.1745 8.35361 8.87844 8.46127C7.65383 8.86499 7.03479 9.06684 6.55033 9.44365C6.32156 9.61859 6.1197 9.82045 5.94476 10.0492C5.56795 10.5337 5.36609 11.1527 4.96237 12.3773C4.86817 12.6734 4.81434 12.8214 4.7336 12.8483C4.69323 12.8618 4.66631 12.8618 4.62594 12.8483C4.5452 12.8214 4.50483 12.6734 4.39717 12.3773C3.99345 11.1527 3.79159 10.5337 3.41479 10.0492C3.23984 9.82045 3.03798 9.61859 2.80921 9.44365C2.32475 9.06684 1.70571 8.86499 0.481098 8.46127C0.185038 8.36707 0.0370075 8.31324 0.010093 8.23249C-0.00336432 8.19212 -0.00336432 8.16521 0.010093 8.12483C0.0370075 8.04409 0.185038 8.00372 0.481098 7.89606C1.70571 7.49234 2.32475 7.29048 2.80921 6.91368C3.03798 6.73873 3.23984 6.53688 3.41479 6.3081C3.79159 5.81018 3.99345 5.2046 4.39717 3.97999ZM10.9239 0.306153C10.9778 0.117751 11.0182 0.0370075 11.0585 0.010093C11.0854 -0.00336432 11.0989 -0.00336432 11.1258 0.010093C11.1796 0.0235502 11.2066 0.117751 11.2604 0.306153C11.5161 1.07322 11.6372 1.45002 11.8794 1.75954C11.9871 1.89411 12.1216 2.02869 12.2562 2.13634C12.5657 2.37857 12.9425 2.49969 13.7096 2.75538C13.898 2.80921 13.9788 2.84958 14.0057 2.88995C14.0191 2.91687 14.0191 2.93032 14.0057 2.95724C13.9922 3.01107 13.898 3.03798 13.7096 3.09181C12.9425 3.3475 12.5657 3.46861 12.2562 3.71085C12.1216 3.8185 11.9871 3.95308 11.8794 4.08765C11.6372 4.39717 11.5161 4.77397 11.2604 5.54104C11.2066 5.72944 11.1662 5.81018 11.1258 5.8371C11.0989 5.85055 11.0854 5.85055 11.0585 5.8371C11.0047 5.82364 10.9778 5.72944 10.9239 5.54104C10.6683 4.77397 10.5471 4.39717 10.3049 4.08765C10.1973 3.95308 10.0627 3.8185 9.92811 3.71085C9.61859 3.46861 9.24179 3.3475 8.47472 3.09181C8.28632 3.03798 8.20558 2.99761 8.17866 2.95724C8.16521 2.93032 8.16521 2.91687 8.17866 2.88995C8.19212 2.83612 8.28632 2.80921 8.47472 2.75538C9.24179 2.49969 9.61859 2.37857 9.92811 2.13634C10.0627 2.02869 10.1973 1.89411 10.3049 1.75954C10.5337 1.45002 10.6683 1.07322 10.9239 0.306153Z" fill="#111319"/>
</svg>
