<svg width="18" height="17" viewBox="0 0 18 17" fill="none" xmlns="http://www.w3.org/2000/svg">
<path fill-rule="evenodd" clip-rule="evenodd" d="M12.1448 16.9027C15.1457 15.7481 17.3718 13.0321 17.8278 9.75H13.8859C13.7389 12.6102 13.0932 15.138 12.1448 16.9027ZM11.3871 9.75C11.2093 13.8518 10.1697 17 8.91386 17C7.65806 17 6.61853 13.8518 6.44073 9.75H11.3871ZM11.3871 7.25H6.44073C6.61853 3.14821 7.65806 0 8.91386 0C10.1697 0 11.2093 3.14821 11.3871 7.25ZM13.8859 7.25H17.8278C17.3718 3.96786 15.1457 1.25191 12.1448 0.0973101C13.0932 1.86198 13.7389 4.38979 13.8859 7.25ZM3.94972 7.25C4.09688 4.38774 4.74334 1.85836 5.69288 0.0935299C2.68697 1.24598 0.45655 3.96427 0 7.25H3.94972ZM3.94972 9.75H0C0.45655 13.0357 2.68697 15.754 5.69288 16.9065C4.74334 15.1416 4.09688 12.6123 3.94972 9.75Z" fill="white"/>
</svg>
