<svg width="20" height="20" viewBox="0 0 20 20" fill="none" xmlns="http://www.w3.org/2000/svg">
<path opacity="0.8" d="M20 18.1818C20 20 18.1818 20 18.1818 20L12.9805 14.7987C11.6316 15.7788 9.97681 16.3636 8.18182 16.3636C3.66308 16.3636 0 12.7005 0 8.18181C0 3.66308 3.66306 0 8.1818 0C12.7005 0 16.3636 3.66308 16.3636 8.18181C16.3636 9.9768 15.7788 11.6314 14.7987 12.9805L20 18.1818ZM8.1818 1.81819C4.66725 1.81819 1.81815 4.66727 1.81815 8.18183C1.81815 11.6964 4.66723 14.5455 8.1818 14.5455C11.6964 14.5455 14.5454 11.6964 14.5454 8.18183C14.5454 4.66727 11.6963 1.81819 8.1818 1.81819Z" fill="white"/>
</svg>
