<svg width="6" height="8" viewBox="0 0 6 8" fill="none" xmlns="http://www.w3.org/2000/svg">
<g style="mix-blend-mode:plus-lighter">
<path d="M5.18979 4.4216C5.44638 3.97479 5.58034 3.46131 5.57667 2.93861V2.87409C5.57368 2.11281 5.2863 1.38361 4.77713 0.8453C4.26795 0.306988 3.57823 0.00316665 2.85816 0H0.043451V0.0459311H0V4.09241L1.43373 3.46028V1.5475H2.85816C3.19055 1.5498 3.50872 1.69042 3.74376 1.93891C3.9788 2.1874 4.1118 2.52377 4.11397 2.87519V2.93971C4.11486 3.20435 4.04075 3.46321 3.90117 3.6829C3.7616 3.90259 3.56297 4.07303 3.33091 4.17224C3.33091 4.17224 0.0672432 5.54476 0.043451 5.5382V7.99999H1.51546V6.62309L2.763 6.08612L3.9588 7.99999H5.73184L4.13983 5.48461C4.57615 5.23986 4.93963 4.87186 5.18979 4.4216Z" fill="url(#paint0_linear_391_18045)"/>
</g>
<defs>
<linearGradient id="paint0_linear_391_18045" x1="5.73184" y1="7.99999" x2="5.73184" y2="0" gradientUnits="userSpaceOnUse">
<stop stop-color="#A3592D"/>
<stop offset="1" stop-color="#DCAB6A"/>
</linearGradient>
</defs>
</svg>
