<svg width="24" height="24" viewBox="0 0 24 24" fill="none" xmlns="http://www.w3.org/2000/svg">
<path d="M18.4964 12.3608L20.1239 10.7442C20.26 10.6239 20.3544 10.4634 20.3934 10.2859C20.4324 10.1085 20.414 9.92319 20.3409 9.75687L18.9413 6.61047C18.8786 6.43637 18.7585 6.28883 18.6007 6.19219C18.4429 6.09554 18.2569 6.05556 18.0733 6.07883L15.6864 6.41517L14.9269 4.0174C14.876 3.82741 14.7627 3.66 14.6054 3.54198C14.448 3.42395 14.2556 3.36213 14.0589 3.36642H9.61057C9.41391 3.36213 9.2215 3.42395 9.06414 3.54198C8.90677 3.66 8.79355 3.82741 8.7426 4.0174L8.09162 6.41517L5.7047 6.06798C5.50545 6.02831 5.2986 6.05979 5.12017 6.15693C4.94174 6.25408 4.80304 6.41073 4.72823 6.59962L3.42627 9.75687C3.33632 9.91139 3.29832 10.0907 3.31785 10.2684C3.33738 10.4461 3.41341 10.6129 3.53476 10.7442L5.16221 12.3608L3.53476 13.9774C3.41213 14.1276 3.33645 14.3106 3.31716 14.5035C3.29786 14.6965 3.33581 14.8908 3.42627 15.0624L5.27071 18.2196C5.34501 18.38 5.47082 18.5109 5.6281 18.5915C5.78539 18.6721 5.96511 18.6978 6.13868 18.6644L8.09162 18.3498L8.73175 20.715C8.7827 20.905 8.89592 21.0724 9.05329 21.1904C9.21065 21.3085 9.40306 21.3703 9.59972 21.366H14.0481C14.2447 21.3703 14.4372 21.3085 14.5945 21.1904C14.7519 21.0724 14.8651 20.905 14.9161 20.715L15.6755 18.3389L17.52 18.6536C17.7087 18.6874 17.9031 18.6629 18.0776 18.5834C18.252 18.504 18.3981 18.3733 18.4964 18.2088L20.2324 15.0515C20.3495 14.8884 20.403 14.6883 20.3831 14.4885C20.3631 14.2888 20.2709 14.1032 20.1239 13.9665L18.4964 12.3608ZM11.8782 15.9629C11.4045 15.9688 10.9345 15.8795 10.496 15.7002C10.0575 15.521 9.65951 15.2556 9.32558 14.9196C8.99164 14.5837 8.72859 14.184 8.55203 13.7445C8.37548 13.3049 8.28901 12.8344 8.29776 12.3608C8.29191 11.8881 8.38088 11.419 8.55942 10.9812C8.73796 10.5435 9.00244 10.1459 9.33724 9.81216C9.67204 9.47837 10.0704 9.21509 10.5086 9.03788C10.9469 8.86066 11.4163 8.77311 11.889 8.7804C12.8443 8.7804 13.7605 9.1599 14.4361 9.83543C15.1116 10.5109 15.4911 11.4272 15.4911 12.3825C15.4911 13.3378 15.1116 14.254 14.4361 14.9295C13.7605 15.6051 12.8443 15.9846 11.889 15.9846L11.8782 15.9629ZM11.8782 10.538C11.6416 10.538 11.4074 10.5846 11.1889 10.6751C10.9704 10.7657 10.7719 10.8983 10.6046 11.0656C10.4374 11.2328 10.3047 11.4313 10.2142 11.6499C10.1237 11.8684 10.0771 12.1026 10.0771 12.3391C10.0771 12.5756 10.1237 12.8098 10.2142 13.0283C10.3047 13.2468 10.4374 13.4454 10.6046 13.6126C10.7719 13.7799 10.9704 13.9125 11.1889 14.003C11.4074 14.0935 11.6416 14.1401 11.8782 14.1401C12.3558 14.1401 12.8139 13.9504 13.1517 13.6126C13.4894 13.2749 13.6792 12.8168 13.6792 12.3391C13.6792 11.8614 13.4894 11.4033 13.1517 11.0656C12.8139 10.7278 12.3558 10.538 11.8782 10.538Z" fill="#798391"/>
</svg>
