<svg width="24" height="24" viewBox="0 0 24 24" fill="none" xmlns="http://www.w3.org/2000/svg">
<path d="M5.32129 1.5C5.32129 0.671573 5.99286 0 6.82129 0H17.1784C18.0069 0 18.6784 0.671573 18.6784 1.5V4.16038C18.6784 5.48591 17.9787 6.71297 16.8378 7.38788L13.1455 9.57225C12.4389 9.99025 11.5608 9.99025 10.8542 9.57225L7.16191 7.38788C6.02107 6.71297 5.32129 5.48591 5.32129 4.16038V1.5Z" fill="url(#paint0_linear_1197_53815)"/>
<path opacity="0.7" d="M10.8259 9.75H8.57593V0H10.8259V9.75ZM15.4236 9.75H13.1736V0H15.4236V9.75Z" fill="url(#paint1_linear_1197_53815)"/>
<path d="M3.75 10.6364C3.75 9.78215 4.23376 9.00158 4.99878 8.62145L10.9988 5.64008C11.6295 5.32669 12.3705 5.32669 13.0012 5.64008L19.0012 8.62145C19.7662 9.00158 20.25 9.78215 20.25 10.6364V18.5059C20.25 19.3602 19.7662 20.1407 19.0012 20.5209L13.0012 23.5022C12.3705 23.8156 11.6295 23.8156 10.9988 23.5022L4.99878 20.5209C4.23376 20.1407 3.75 19.3601 3.75 18.5059V10.6364Z" fill="url(#paint2_linear_1197_53815)"/>
<g filter="url(#filter0_i_1197_53815)">
<path d="M5.71436 11.0433C5.71436 10.7569 5.87748 10.4955 6.13475 10.3696L11.6705 7.66126C11.8784 7.55952 12.1217 7.55951 12.3297 7.66126L17.8654 10.3696C18.1226 10.4954 18.2858 10.7568 18.2858 11.0433V18.0995C18.2858 18.3859 18.1226 18.6473 17.8654 18.7732L12.3297 21.4816C12.1217 21.5833 11.8784 21.5833 11.6704 21.4816L6.13475 18.7732C5.87748 18.6474 5.71436 18.386 5.71436 18.0996V11.0433Z" fill="#E5A058"/>
</g>
<mask id="mask0_1197_53815" style="mask-type:alpha" maskUnits="userSpaceOnUse" x="5" y="7" width="14" height="15">
<path d="M5.71436 11.1064C5.71436 10.8223 5.87486 10.5626 6.12895 10.4356L11.6647 7.6677C11.8758 7.56213 12.1243 7.56213 12.3355 7.66771L17.8712 10.4356C18.1253 10.5626 18.2858 10.8223 18.2858 11.1064V18.0365C18.2858 18.3205 18.1253 18.5802 17.8712 18.7073L12.3355 21.4752C12.1243 21.5807 11.8758 21.5807 11.6647 21.4752L6.12894 18.7073C5.87486 18.5802 5.71436 18.3205 5.71436 18.0365V11.1064Z" fill="#A1A5FF"/>
</mask>
<g mask="url(#mask0_1197_53815)">
<path opacity="0.15" d="M11.6074 14.5703L16.0166 7.87988L18.251 10.0908L11.6074 14.5703L11.6094 14.5713L19.4639 13.001V16.1436L11.6113 14.5723L18.2969 18.9805L16.0869 21.2148L11.6084 14.5723H11.6074L13.1787 22.4287H10.0361L11.6074 14.5723H11.6055L7.19727 21.2598L4.96289 19.0488L11.6025 14.5723L3.75 16.1436V13L11.6045 14.5713L11.6074 14.5703L4.91699 10.1602L7.12695 7.92676L11.6074 14.5703L10.0361 6.71484H13.1787L11.6074 14.5703ZM11.6055 14.5713L11.6074 14.5723V14.5703L11.6055 14.5713Z" fill="#B05F24"/>
</g>
<path d="M11.7856 7.89746C11.9208 7.83133 12.0792 7.83133 12.2144 7.89746L17.7505 10.6055C17.9174 10.6873 18.0228 10.8571 18.0229 11.043V18.0996C18.0229 18.2856 17.9174 18.4552 17.7505 18.5371L12.2144 21.2461C12.0792 21.3122 11.9208 21.3122 11.7856 21.2461L6.25049 18.5371C6.08328 18.4553 5.97707 18.2858 5.97705 18.0996V11.043C5.97718 10.8569 6.08336 10.6872 6.25049 10.6055L11.7856 7.89746Z" stroke="#B56F2D" stroke-width="0.525"/>
<g filter="url(#filter1_d_1197_53815)">
<path d="M14.228 11.9795L14.1743 12.0391L12.8042 13.8027C13.2329 13.8813 13.595 14.0643 13.8813 14.3574C14.2632 14.7311 14.4545 15.1986 14.4546 15.7451C14.4545 16.43 14.2102 16.9905 13.7124 17.4014C13.2301 17.8066 12.6059 18 11.8618 18C11.1251 17.9998 10.4053 17.7661 9.70557 17.3125L9.54541 17.209L9.63525 17.0439L10.2056 15.9922L10.4009 16.126C10.8924 16.4627 11.4001 16.6268 11.9272 16.627C12.2772 16.627 12.5382 16.5495 12.7271 16.4141C12.9062 16.2777 12.9975 16.0927 12.9976 15.835C12.9975 15.5778 12.8965 15.3843 12.6821 15.2354C12.4598 15.0809 12.1367 14.9922 11.6919 14.9922C11.4875 14.9922 11.2819 15.0226 11.0747 15.085L10.8013 15.167V14.0049L10.8521 13.9473L12.1313 12.2227H10.064V10.875H14.228V11.9795ZM11.8618 17.792C11.7758 17.792 11.6898 17.79 11.604 17.7832C11.6898 17.79 11.7757 17.7929 11.8618 17.793V17.792ZM10.5815 17.5381C10.4121 17.4701 10.243 17.3891 10.0747 17.2939C10.327 17.4365 10.5807 17.5484 10.8354 17.6299L10.5815 17.5381ZM13.5767 17.2432L13.5757 17.2422C13.4123 17.3797 13.2302 17.4921 13.0288 17.5781L13.2241 17.4834C13.287 17.449 13.3481 17.4122 13.4067 17.3721C13.4654 17.332 13.5222 17.289 13.5767 17.2432ZM13.9126 16.877C13.9328 16.848 13.9528 16.8191 13.9712 16.7891C13.9528 16.8191 13.9328 16.848 13.9126 16.877ZM14.0112 16.7168C14.0301 16.6823 14.0494 16.6482 14.0659 16.6123C14.0494 16.6482 14.0301 16.6823 14.0112 16.7168ZM14.1001 16.5303C14.1138 16.496 14.1265 16.4613 14.1382 16.4258C14.1265 16.4613 14.1138 16.496 14.1001 16.5303ZM14.1626 16.3428C14.1726 16.3071 14.1829 16.2712 14.1909 16.2344C14.1829 16.2712 14.1726 16.3071 14.1626 16.3428ZM14.2114 16.123C14.2164 16.0921 14.2214 16.061 14.2251 16.0293C14.2214 16.061 14.2164 16.0921 14.2114 16.123ZM14.2427 15.7451C14.2427 15.8049 14.2389 15.8634 14.2349 15.9209C14.2362 15.9014 14.2398 15.882 14.2407 15.8623L14.2437 15.7451C14.2436 15.686 14.2397 15.6281 14.2349 15.5713C14.2397 15.628 14.2427 15.6861 14.2427 15.7451ZM14.2261 15.4951C14.2228 15.4695 14.2196 15.4441 14.2153 15.4189C14.2196 15.4441 14.2228 15.4695 14.2261 15.4951ZM14.1968 15.3311C14.1911 15.3058 14.1859 15.2806 14.1792 15.2559C14.1859 15.2806 14.1911 15.3058 14.1968 15.3311ZM12.8042 15.0674C12.8717 15.1143 12.9313 15.1652 12.9819 15.2207C12.9311 15.165 12.872 15.1135 12.8042 15.0664V15.0674ZM14.1548 15.1777C14.1473 15.1547 14.1398 15.1319 14.1313 15.1094C14.1398 15.1319 14.1473 15.1547 14.1548 15.1777ZM14.0991 15.0283C14.0864 14.9995 14.0725 14.9714 14.0581 14.9434C14.0725 14.9714 14.0865 14.9995 14.0991 15.0283ZM14.0327 14.8945C14.0168 14.866 13.9996 14.8382 13.9819 14.8105C13.9996 14.8382 14.0168 14.866 14.0327 14.8945ZM10.2759 12.0166H12.5903L12.5913 12.0156H10.2759V12.0166ZM11.522 14.792C11.4087 14.8005 11.2954 14.8172 11.1821 14.8428L11.3521 14.8115C11.4087 14.803 11.4653 14.7963 11.522 14.792ZM11.6919 14.7852L11.8647 14.7891C11.809 14.7861 11.7517 14.7852 11.6929 14.7852H11.6919ZM14.0161 11.9004L14.0171 11.9014V11.082L14.0161 11.9004ZM13.7368 17.0918C13.7811 17.0459 13.8224 16.9986 13.8608 16.9492C13.8224 16.9986 13.7811 17.0459 13.7368 17.0918Z" fill="white"/>
</g>
<path d="M15.8574 10.505C15.8672 10.4164 15.9958 10.4158 16.0064 10.5043L16.1278 11.5143C16.1317 11.5463 16.1555 11.5723 16.1871 11.5788L17.0092 11.7484C17.089 11.7649 17.089 11.8789 17.0092 11.8953L16.1871 12.0649C16.1555 12.0714 16.1317 12.0974 16.1278 12.1294L16.0064 13.1392C15.9958 13.2278 15.8672 13.2271 15.8574 13.1385L15.7464 12.1302C15.7429 12.0978 15.7188 12.0714 15.6868 12.0649L14.8534 11.8954C14.7733 11.8791 14.7733 11.7647 14.8534 11.7484L15.6868 11.5788C15.7188 11.5723 15.7429 11.5459 15.7464 11.5135L15.8574 10.505Z" fill="white"/>
<path d="M7.11622 15.7101C7.12597 15.6215 7.25459 15.6208 7.26523 15.7094L7.35063 16.42C7.35448 16.4521 7.37836 16.478 7.40994 16.4846L8.01661 16.6097C8.09641 16.6262 8.09641 16.7402 8.01661 16.7566L7.40994 16.8818C7.37836 16.8883 7.35448 16.9142 7.35063 16.9463L7.26523 17.6568C7.25459 17.7453 7.12597 17.7447 7.11622 17.6561L7.03816 16.947C7.03459 16.9146 7.0105 16.8883 6.97856 16.8818L6.36359 16.7567C6.28352 16.7404 6.28352 16.626 6.36358 16.6097L6.97856 16.4846C7.0105 16.4781 7.03459 16.4517 7.03816 16.4193L7.11622 15.7101Z" fill="white"/>
<defs>
<filter id="filter0_i_1197_53815" x="5.71436" y="7.58496" width="12.5715" height="13.9727" filterUnits="userSpaceOnUse" color-interpolation-filters="sRGB">
<feFlood flood-opacity="0" result="BackgroundImageFix"/>
<feBlend mode="normal" in="SourceGraphic" in2="BackgroundImageFix" result="shape"/>
<feColorMatrix in="SourceAlpha" type="matrix" values="0 0 0 0 0 0 0 0 0 0 0 0 0 0 0 0 0 0 127 0" result="hardAlpha"/>
<feOffset/>
<feGaussianBlur stdDeviation="0.75"/>
<feComposite in2="hardAlpha" operator="arithmetic" k2="-1" k3="1"/>
<feColorMatrix type="matrix" values="0 0 0 0 0.70032 0 0 0 0 0.39599 0 0 0 0 0.0998853 0 0 0 1 0"/>
<feBlend mode="normal" in2="shape" result="effect1_innerShadow_1197_53815"/>
</filter>
<filter id="filter1_d_1197_53815" x="8.93177" y="10.2614" width="6.13645" height="8.35227" filterUnits="userSpaceOnUse" color-interpolation-filters="sRGB">
<feFlood flood-opacity="0" result="BackgroundImageFix"/>
<feColorMatrix in="SourceAlpha" type="matrix" values="0 0 0 0 0 0 0 0 0 0 0 0 0 0 0 0 0 0 127 0" result="hardAlpha"/>
<feOffset/>
<feGaussianBlur stdDeviation="0.306818"/>
<feComposite in2="hardAlpha" operator="out"/>
<feColorMatrix type="matrix" values="0 0 0 0 0.706731 0 0 0 0 0.360491 0 0 0 0 0.0351097 0 0 0 1 0"/>
<feBlend mode="normal" in2="BackgroundImageFix" result="effect1_dropShadow_1197_53815"/>
<feBlend mode="normal" in="SourceGraphic" in2="effect1_dropShadow_1197_53815" result="shape"/>
</filter>
<linearGradient id="paint0_linear_1197_53815" x1="11.9999" y1="-1.57143" x2="11.9999" y2="7.5" gradientUnits="userSpaceOnUse">
<stop stop-color="#EEA45F"/>
<stop offset="1" stop-color="#B16218"/>
</linearGradient>
<linearGradient id="paint1_linear_1197_53815" x1="11.9998" y1="0" x2="11.9998" y2="9.42857" gradientUnits="userSpaceOnUse">
<stop stop-color="white" stop-opacity="0.5"/>
<stop offset="1" stop-color="white" stop-opacity="0"/>
</linearGradient>
<linearGradient id="paint2_linear_1197_53815" x1="12" y1="4.12469" x2="15.375" y2="25.8747" gradientUnits="userSpaceOnUse">
<stop stop-color="#FFE2C5"/>
<stop offset="1" stop-color="#E9A467"/>
</linearGradient>
</defs>
</svg>
