<svg width="24" height="24" viewBox="0 0 24 24" fill="none" xmlns="http://www.w3.org/2000/svg">
<path d="M5.32129 1.5C5.32129 0.671573 5.99286 0 6.82129 0H17.1784C18.0069 0 18.6784 0.671573 18.6784 1.5V4.16038C18.6784 5.48591 17.9787 6.71297 16.8378 7.38788L13.1455 9.57225C12.4389 9.99025 11.5608 9.99025 10.8542 9.57225L7.16191 7.38788C6.02107 6.71297 5.32129 5.48591 5.32129 4.16038V1.5Z" fill="url(#paint0_linear_1197_53814)"/>
<path opacity="0.7" d="M10.8259 9.75H8.57593V0H10.8259V9.75ZM15.4236 9.75H13.1736V0H15.4236V9.75Z" fill="url(#paint1_linear_1197_53814)"/>
<path d="M3.75 10.6364C3.75 9.78215 4.23376 9.00158 4.99878 8.62145L10.9988 5.64008C11.6295 5.32669 12.3705 5.32669 13.0012 5.64008L19.0012 8.62145C19.7662 9.00158 20.25 9.78215 20.25 10.6364V18.5059C20.25 19.3602 19.7662 20.1407 19.0012 20.5209L13.0012 23.5022C12.3705 23.8156 11.6295 23.8156 10.9988 23.5022L4.99878 20.5209C4.23376 20.1407 3.75 19.3601 3.75 18.5059V10.6364Z" fill="url(#paint2_linear_1197_53814)"/>
<g filter="url(#filter0_i_1197_53814)">
<path d="M5.71436 11.0433C5.71436 10.7569 5.87748 10.4955 6.13475 10.3696L11.6705 7.66126C11.8784 7.55952 12.1217 7.55951 12.3297 7.66126L17.8654 10.3696C18.1226 10.4954 18.2858 10.7568 18.2858 11.0433V18.0995C18.2858 18.3859 18.1226 18.6473 17.8654 18.7732L12.3297 21.4816C12.1217 21.5833 11.8784 21.5833 11.6704 21.4816L6.13475 18.7732C5.87748 18.6474 5.71436 18.386 5.71436 18.0996V11.0433Z" fill="#949DB4"/>
</g>
<mask id="mask0_1197_53814" style="mask-type:alpha" maskUnits="userSpaceOnUse" x="5" y="7" width="14" height="15">
<path d="M5.71436 11.1064C5.71436 10.8223 5.87486 10.5626 6.12895 10.4356L11.6647 7.6677C11.8758 7.56213 12.1243 7.56213 12.3355 7.66771L17.8712 10.4356C18.1253 10.5626 18.2858 10.8223 18.2858 11.1064V18.0365C18.2858 18.3205 18.1253 18.5802 17.8712 18.7073L12.3355 21.4752C12.1243 21.5807 11.8758 21.5807 11.6647 21.4752L6.12894 18.7073C5.87486 18.5802 5.71436 18.3205 5.71436 18.0365V11.1064Z" fill="#A1A5FF"/>
</mask>
<g mask="url(#mask0_1197_53814)">
<path opacity="0.15" d="M11.6074 14.5703L16.0166 7.87988L18.251 10.0908L11.6074 14.5703L11.6094 14.5713L19.4639 13.001V16.1436L11.6113 14.5723L18.2969 18.9805L16.0869 21.2148L11.6084 14.5723H11.6074L13.1787 22.4287H10.0361L11.6074 14.5723H11.6055L7.19727 21.2598L4.96289 19.0488L11.6025 14.5723L3.75 16.1436V13L11.6045 14.5713L11.6074 14.5703L4.91699 10.1602L7.12695 7.92676L11.6074 14.5703L10.0361 6.71484H13.1787L11.6074 14.5703ZM11.6055 14.5713L11.6074 14.5723V14.5703L11.6055 14.5713Z" fill="#4D5D74"/>
</g>
<path d="M11.7856 7.89746C11.9208 7.83133 12.0792 7.83133 12.2144 7.89746L17.7505 10.6055C17.9174 10.6873 18.0228 10.8571 18.0229 11.043V18.0996C18.0229 18.2856 17.9174 18.4552 17.7505 18.5371L12.2144 21.2461C12.0792 21.3122 11.9208 21.3122 11.7856 21.2461L6.25049 18.5371C6.08328 18.4553 5.97707 18.2858 5.97705 18.0996V11.043C5.97718 10.8569 6.08336 10.6872 6.25049 10.6055L11.7856 7.89746Z" stroke="#4B678D" stroke-width="0.525"/>
<path d="M11.6857 17.8395C11.3725 17.8374 11.0668 17.783 10.7685 17.6765C10.4702 17.5678 10.2017 17.392 9.96307 17.1491C9.72443 16.9041 9.5348 16.5792 9.39418 16.1744C9.25355 15.7674 9.1843 15.2635 9.18643 14.6626C9.18643 14.1023 9.24609 13.6026 9.36541 13.1637C9.48473 12.7248 9.65625 12.354 9.87997 12.0515C10.1037 11.7468 10.3732 11.5146 10.6886 11.3548C11.006 11.195 11.3608 11.1151 11.7528 11.1151C12.1641 11.1151 12.5284 11.196 12.8459 11.358C13.1655 11.5199 13.4233 11.7415 13.6193 12.0227C13.8153 12.3018 13.9368 12.6172 13.9837 12.9688H12.8171C12.7575 12.7173 12.6349 12.517 12.4496 12.3679C12.2663 12.2166 12.0341 12.141 11.7528 12.141C11.299 12.141 10.9496 12.3381 10.7045 12.7322C10.4616 13.1264 10.3391 13.6676 10.337 14.3558H10.3817C10.4862 14.1683 10.6214 14.0075 10.7876 13.8732C10.9538 13.739 11.1413 13.6357 11.3501 13.5632C11.5611 13.4886 11.7837 13.4513 12.0181 13.4513C12.4016 13.4513 12.7457 13.543 13.0504 13.7262C13.3572 13.9094 13.6001 14.1619 13.7791 14.4837C13.9581 14.8033 14.0465 15.1697 14.0444 15.5831C14.0465 16.0135 13.9485 16.4002 13.7504 16.7433C13.5522 17.0842 13.2763 17.3526 12.9226 17.5487C12.5689 17.7447 12.1566 17.8416 11.6857 17.8395ZM11.6793 16.8807C11.9116 16.8807 12.1193 16.8242 12.3026 16.7113C12.4858 16.5984 12.6307 16.446 12.7372 16.2543C12.8438 16.0625 12.896 15.8473 12.8938 15.6087C12.896 15.3743 12.8448 15.1623 12.7404 14.9727C12.6381 14.783 12.4964 14.6328 12.3153 14.522C12.1342 14.4112 11.9276 14.3558 11.6953 14.3558C11.5227 14.3558 11.3619 14.3888 11.2127 14.4549C11.0636 14.521 10.9336 14.6126 10.8228 14.7298C10.712 14.8448 10.6246 14.979 10.5607 15.1325C10.4989 15.2837 10.467 15.4457 10.4648 15.6183C10.467 15.8462 10.5202 16.0561 10.6246 16.2479C10.729 16.4396 10.8729 16.593 11.0561 16.7081C11.2393 16.8232 11.4471 16.8807 11.6793 16.8807Z" fill="white"/>
<defs>
<filter id="filter0_i_1197_53814" x="5.71436" y="7.58496" width="12.5715" height="13.9727" filterUnits="userSpaceOnUse" color-interpolation-filters="sRGB">
<feFlood flood-opacity="0" result="BackgroundImageFix"/>
<feBlend mode="normal" in="SourceGraphic" in2="BackgroundImageFix" result="shape"/>
<feColorMatrix in="SourceAlpha" type="matrix" values="0 0 0 0 0 0 0 0 0 0 0 0 0 0 0 0 0 0 127 0" result="hardAlpha"/>
<feOffset/>
<feGaussianBlur stdDeviation="0.75"/>
<feComposite in2="hardAlpha" operator="arithmetic" k2="-1" k3="1"/>
<feColorMatrix type="matrix" values="0 0 0 0 0.70032 0 0 0 0 0.39599 0 0 0 0 0.0998853 0 0 0 1 0"/>
<feBlend mode="normal" in2="shape" result="effect1_innerShadow_1197_53814"/>
</filter>
<linearGradient id="paint0_linear_1197_53814" x1="11.9999" y1="-1.57143" x2="11.9999" y2="7.5" gradientUnits="userSpaceOnUse">
<stop stop-color="#89A5D0"/>
<stop offset="1" stop-color="#486182"/>
</linearGradient>
<linearGradient id="paint1_linear_1197_53814" x1="11.9998" y1="0" x2="11.9998" y2="9.42857" gradientUnits="userSpaceOnUse">
<stop stop-color="white" stop-opacity="0.5"/>
<stop offset="1" stop-color="white" stop-opacity="0"/>
</linearGradient>
<linearGradient id="paint2_linear_1197_53814" x1="11.25" y1="5.62469" x2="14.25" y2="23.9997" gradientUnits="userSpaceOnUse">
<stop stop-color="#DADEEA"/>
<stop offset="1" stop-color="#838999"/>
</linearGradient>
</defs>
</svg>
