<svg width="24" height="24" viewBox="0 0 24 24" fill="none" xmlns="http://www.w3.org/2000/svg">
<path d="M5.32129 1.5C5.32129 0.671573 5.99286 0 6.82129 0H17.1784C18.0069 0 18.6784 0.671573 18.6784 1.5V4.16038C18.6784 5.48591 17.9787 6.71297 16.8378 7.38788L13.1455 9.57225C12.4389 9.99025 11.5608 9.99025 10.8542 9.57225L7.16191 7.38788C6.02107 6.71297 5.32129 5.48591 5.32129 4.16038V1.5Z" fill="url(#paint0_linear_1197_53813)"/>
<path opacity="0.7" d="M10.8259 9.75H8.57593V0H10.8259V9.75ZM15.4236 9.75H13.1736V0H15.4236V9.75Z" fill="url(#paint1_linear_1197_53813)"/>
<path d="M3.75 10.6364C3.75 9.78215 4.23376 9.00158 4.99878 8.62145L10.9988 5.64008C11.6295 5.32669 12.3705 5.32669 13.0012 5.64008L19.0012 8.62145C19.7662 9.00158 20.25 9.78215 20.25 10.6364V18.5059C20.25 19.3602 19.7662 20.1407 19.0012 20.5209L13.0012 23.5022C12.3705 23.8156 11.6295 23.8156 10.9988 23.5022L4.99878 20.5209C4.23376 20.1407 3.75 19.3601 3.75 18.5059V10.6364Z" fill="url(#paint2_linear_1197_53813)"/>
<g filter="url(#filter0_i_1197_53813)">
<path d="M5.71436 11.0433C5.71436 10.7569 5.87748 10.4955 6.13475 10.3696L11.6705 7.66126C11.8784 7.55952 12.1217 7.55951 12.3297 7.66126L17.8654 10.3696C18.1226 10.4954 18.2858 10.7568 18.2858 11.0433V18.0995C18.2858 18.3859 18.1226 18.6473 17.8654 18.7732L12.3297 21.4816C12.1217 21.5833 11.8784 21.5833 11.6704 21.4816L6.13475 18.7732C5.87748 18.6474 5.71436 18.386 5.71436 18.0996V11.0433Z" fill="#949DB4"/>
</g>
<mask id="mask0_1197_53813" style="mask-type:alpha" maskUnits="userSpaceOnUse" x="5" y="7" width="14" height="15">
<path d="M5.71436 11.1064C5.71436 10.8223 5.87486 10.5626 6.12895 10.4356L11.6647 7.6677C11.8758 7.56213 12.1243 7.56213 12.3355 7.66771L17.8712 10.4356C18.1253 10.5626 18.2858 10.8223 18.2858 11.1064V18.0365C18.2858 18.3205 18.1253 18.5802 17.8712 18.7073L12.3355 21.4752C12.1243 21.5807 11.8758 21.5807 11.6647 21.4752L6.12894 18.7073C5.87486 18.5802 5.71436 18.3205 5.71436 18.0365V11.1064Z" fill="#A1A5FF"/>
</mask>
<g mask="url(#mask0_1197_53813)">
<path opacity="0.15" d="M11.6074 14.5703L16.0166 7.87988L18.251 10.0908L11.6074 14.5703L11.6094 14.5713L19.4639 13.001V16.1436L11.6113 14.5723L18.2969 18.9805L16.0869 21.2148L11.6084 14.5723H11.6074L13.1787 22.4287H10.0361L11.6074 14.5723H11.6055L7.19727 21.2598L4.96289 19.0488L11.6025 14.5723L3.75 16.1436V13L11.6045 14.5713L11.6074 14.5703L4.91699 10.1602L7.12695 7.92676L11.6074 14.5703L10.0361 6.71484H13.1787L11.6074 14.5703ZM11.6055 14.5713L11.6074 14.5723V14.5703L11.6055 14.5713Z" fill="#4D5D74"/>
</g>
<path d="M11.7856 7.89746C11.9208 7.83133 12.0792 7.83133 12.2144 7.89746L17.7505 10.6055C17.9174 10.6873 18.0228 10.8571 18.0229 11.043V18.0996C18.0229 18.2856 17.9174 18.4552 17.7505 18.5371L12.2144 21.2461C12.0792 21.3122 11.9208 21.3122 11.7856 21.2461L6.25049 18.5371C6.08328 18.4553 5.97707 18.2858 5.97705 18.0996V11.043C5.97718 10.8569 6.08336 10.6872 6.25049 10.6055L11.7856 7.89746Z" stroke="#4B678D" stroke-width="0.525"/>
<path d="M11.6346 17.8395C11.2085 17.8395 10.8271 17.7596 10.4904 17.5998C10.1538 17.4379 9.88636 17.2163 9.68821 16.935C9.49219 16.6538 9.38778 16.332 9.375 15.9698H10.5256C10.5469 16.2383 10.663 16.4577 10.8739 16.6282C11.0849 16.7965 11.3384 16.8807 11.6346 16.8807C11.8668 16.8807 12.0735 16.8274 12.2546 16.7209C12.4357 16.6143 12.5785 16.4663 12.6829 16.2766C12.7873 16.087 12.8384 15.8707 12.8363 15.6278C12.8384 15.3807 12.7862 15.1612 12.6797 14.9695C12.5732 14.7777 12.4272 14.6275 12.2418 14.5188C12.0565 14.408 11.8434 14.3526 11.6026 14.3526C11.4066 14.3505 11.2138 14.3867 11.0241 14.4613C10.8345 14.5359 10.6843 14.6339 10.5735 14.7553L9.50284 14.5795L9.84482 11.2045H13.6417V12.1953H10.826L10.6374 13.9308H10.6758C10.7972 13.788 10.9688 13.6697 11.1903 13.576C11.4119 13.4801 11.6548 13.4322 11.919 13.4322C12.3153 13.4322 12.669 13.5259 12.9801 13.7134C13.2912 13.8988 13.5362 14.1545 13.7152 14.4805C13.8942 14.8065 13.9837 15.1793 13.9837 15.5991C13.9837 16.0316 13.8835 16.4173 13.6832 16.756C13.4851 17.0927 13.2092 17.358 12.8555 17.5518C12.5039 17.7436 12.0969 17.8395 11.6346 17.8395Z" fill="white"/>
<defs>
<filter id="filter0_i_1197_53813" x="5.71436" y="7.58496" width="12.5715" height="13.9727" filterUnits="userSpaceOnUse" color-interpolation-filters="sRGB">
<feFlood flood-opacity="0" result="BackgroundImageFix"/>
<feBlend mode="normal" in="SourceGraphic" in2="BackgroundImageFix" result="shape"/>
<feColorMatrix in="SourceAlpha" type="matrix" values="0 0 0 0 0 0 0 0 0 0 0 0 0 0 0 0 0 0 127 0" result="hardAlpha"/>
<feOffset/>
<feGaussianBlur stdDeviation="0.75"/>
<feComposite in2="hardAlpha" operator="arithmetic" k2="-1" k3="1"/>
<feColorMatrix type="matrix" values="0 0 0 0 0.70032 0 0 0 0 0.39599 0 0 0 0 0.0998853 0 0 0 1 0"/>
<feBlend mode="normal" in2="shape" result="effect1_innerShadow_1197_53813"/>
</filter>
<linearGradient id="paint0_linear_1197_53813" x1="11.9999" y1="-1.57143" x2="11.9999" y2="7.5" gradientUnits="userSpaceOnUse">
<stop stop-color="#89A5D0"/>
<stop offset="1" stop-color="#486182"/>
</linearGradient>
<linearGradient id="paint1_linear_1197_53813" x1="11.9998" y1="0" x2="11.9998" y2="9.42857" gradientUnits="userSpaceOnUse">
<stop stop-color="white" stop-opacity="0.5"/>
<stop offset="1" stop-color="white" stop-opacity="0"/>
</linearGradient>
<linearGradient id="paint2_linear_1197_53813" x1="11.25" y1="5.62469" x2="14.25" y2="23.9997" gradientUnits="userSpaceOnUse">
<stop stop-color="#DADEEA"/>
<stop offset="1" stop-color="#838999"/>
</linearGradient>
</defs>
</svg>
