<svg width="24" height="24" viewBox="0 0 24 24" fill="none" xmlns="http://www.w3.org/2000/svg">
<path d="M5.32129 1.5C5.32129 0.671573 5.99286 0 6.82129 0H17.1784C18.0069 0 18.6784 0.671573 18.6784 1.5V4.16038C18.6784 5.48591 17.9787 6.71297 16.8378 7.38788L13.1455 9.57225C12.4389 9.99025 11.5608 9.99025 10.8542 9.57225L7.16191 7.38788C6.02107 6.71297 5.32129 5.48591 5.32129 4.16038V1.5Z" fill="url(#paint0_linear_1197_53764)"/>
<path opacity="0.8" d="M10.8259 9.75H8.57593V0H10.8259V9.75ZM15.4236 9.75H13.1736V0H15.4236V9.75Z" fill="url(#paint1_linear_1197_53764)"/>
<path d="M3.75 10.6364C3.75 9.78215 4.23376 9.00158 4.99878 8.62145L10.9988 5.64008C11.6295 5.32669 12.3705 5.32669 13.0012 5.64008L19.0012 8.62145C19.7662 9.00158 20.25 9.78215 20.25 10.6364V18.5059C20.25 19.3602 19.7662 20.1407 19.0012 20.5209L13.0012 23.5022C12.3705 23.8156 11.6295 23.8156 10.9988 23.5022L4.99878 20.5209C4.23376 20.1407 3.75 19.3601 3.75 18.5059V10.6364Z" fill="url(#paint2_linear_1197_53764)"/>
<g filter="url(#filter0_i_1197_53764)">
<path d="M5.71436 11.0433C5.71436 10.7569 5.87748 10.4955 6.13475 10.3696L11.6705 7.66126C11.8784 7.55952 12.1217 7.55951 12.3297 7.66126L17.8654 10.3696C18.1226 10.4954 18.2858 10.7568 18.2858 11.0433V18.0995C18.2858 18.3859 18.1226 18.6473 17.8654 18.7732L12.3297 21.4816C12.1217 21.5833 11.8784 21.5833 11.6704 21.4816L6.13475 18.7732C5.87748 18.6474 5.71436 18.386 5.71436 18.0996V11.0433Z" fill="#A1A5FF"/>
</g>
<mask id="mask0_1197_53764" style="mask-type:alpha" maskUnits="userSpaceOnUse" x="5" y="7" width="14" height="15">
<path d="M5.71436 11.1064C5.71436 10.8223 5.87486 10.5626 6.12895 10.4356L11.6647 7.6677C11.8758 7.56213 12.1243 7.56213 12.3355 7.66771L17.8712 10.4356C18.1253 10.5626 18.2858 10.8223 18.2858 11.1064V18.0365C18.2858 18.3205 18.1253 18.5802 17.8712 18.7073L12.3355 21.4752C12.1243 21.5807 11.8758 21.5807 11.6647 21.4752L6.12894 18.7073C5.87486 18.5802 5.71436 18.3205 5.71436 18.0365V11.1064Z" fill="#A1A5FF"/>
</mask>
<g mask="url(#mask0_1197_53764)">
<path opacity="0.15" d="M11.6074 14.5703L16.0166 7.87988L18.251 10.0908L11.6074 14.5703L11.6094 14.5713L19.4639 13.001V16.1436L11.6113 14.5723L18.2969 18.9805L16.0869 21.2148L11.6084 14.5723H11.6074L13.1787 22.4287H10.0361L11.6074 14.5723H11.6055L7.19727 21.2598L4.96289 19.0488L11.6025 14.5723L3.75 16.1436V13L11.6045 14.5713L11.6074 14.5703L4.91699 10.1602L7.12695 7.92676L11.6074 14.5703L10.0361 6.71484H13.1787L11.6074 14.5703ZM11.6055 14.5713L11.6074 14.5723V14.5703L11.6055 14.5713Z" fill="#5D62CF"/>
</g>
<path d="M11.7856 7.89746C11.9208 7.83133 12.0792 7.83133 12.2144 7.89746L17.7505 10.6055C17.9174 10.6873 18.0228 10.8571 18.0229 11.043V18.0996C18.0229 18.2856 17.9174 18.4552 17.7505 18.5371L12.2144 21.2461C12.0792 21.3122 11.9208 21.3122 11.7856 21.2461L6.25049 18.5371C6.08328 18.4553 5.97707 18.2858 5.97705 18.0996V11.043C5.97718 10.8569 6.08336 10.6872 6.25049 10.6055L11.7856 7.89746Z" stroke="#6B71F6" stroke-width="0.525"/>
<g filter="url(#filter1_d_1197_53764)">
<path d="M11.4515 14.693C11.9406 14.1867 12.2728 13.807 12.4481 13.5539C12.6327 13.2914 12.725 13.0289 12.725 12.7664C12.725 12.4851 12.6189 12.2507 12.4066 12.0632C12.2036 11.8663 11.9452 11.7679 11.6314 11.7679C11.0593 11.7679 10.5979 12.0585 10.2472 12.6398L9.31979 12.0913C9.63355 11.6226 9.97038 11.2804 10.3303 11.0647C10.6994 10.8397 11.1562 10.7272 11.7007 10.7272C12.282 10.7272 12.7803 10.9147 13.1956 11.2897C13.6109 11.6647 13.8185 12.157 13.8185 12.7664C13.8185 13.1132 13.7262 13.4508 13.5417 13.7789C13.3663 14.0977 13.0341 14.5102 12.545 15.0165L10.9532 16.6618H14.0261V17.7728H9.40285V16.7884L11.4515 14.693Z" fill="white"/>
<path d="M14.0261 16.6618H10.9532L12.545 15.0165C13.0341 14.5102 13.3663 14.0977 13.5417 13.7789C13.7031 13.4918 13.7943 13.1971 13.8144 12.8956L13.8185 12.7664C13.8185 12.2333 13.6594 11.7899 13.3416 11.4362L13.1956 11.2897C12.7803 10.9147 12.282 10.7272 11.7007 10.7272C11.1562 10.7272 10.6994 10.8397 10.3303 11.0647C9.97038 11.2804 9.63355 11.6226 9.31979 12.0913L10.2472 12.6398C10.5979 12.0585 11.0593 11.7679 11.6314 11.7679C11.9452 11.7679 12.2036 11.8663 12.4066 12.0632L12.2518 12.2274C12.0955 12.0759 11.8946 11.995 11.6312 11.995C11.1516 11.995 10.7562 12.2313 10.438 12.7587L10.3236 12.9482L10.1349 12.8364L9.20688 12.288L9 12.1652L9.13476 11.9631C9.46112 11.4756 9.8204 11.1059 10.2165 10.8686C10.6282 10.6181 11.1268 10.5 11.7004 10.5C12.3338 10.5 12.8863 10.7056 13.3445 11.1194C13.8116 11.5413 14.0423 12.0977 14.0424 12.7661C14.0424 13.1552 13.9377 13.5302 13.7364 13.8888L13.7372 13.8896C13.5468 14.2356 13.1975 14.666 12.7049 15.1758L11.4862 16.4347H14.25V18H9.1792V16.6945L9.24403 16.6279L11.2925 14.5327C11.7804 14.0276 12.1011 13.6598 12.265 13.4233L12.2657 13.4218C12.4294 13.1889 12.501 12.9713 12.501 12.7661C12.5009 12.552 12.424 12.3798 12.2599 12.2348L12.2518 12.2274L12.4066 12.0632C12.6189 12.2507 12.725 12.4851 12.725 12.7664L12.721 12.8646C12.7008 13.0943 12.6097 13.3241 12.4481 13.5539C12.2728 13.807 11.9406 14.1867 11.4515 14.693L9.40285 16.7884V17.7728H14.0261V16.6618Z" fill="white"/>
</g>
<path d="M15.8574 10.505C15.8672 10.4164 15.9958 10.4158 16.0064 10.5043L16.1278 11.5143C16.1317 11.5463 16.1555 11.5723 16.1871 11.5788L17.0092 11.7484C17.089 11.7649 17.089 11.8789 17.0092 11.8953L16.1871 12.0649C16.1555 12.0714 16.1317 12.0974 16.1278 12.1294L16.0064 13.1392C15.9958 13.2278 15.8672 13.2271 15.8574 13.1385L15.7464 12.1302C15.7429 12.0978 15.7188 12.0714 15.6868 12.0649L14.8534 11.8954C14.7733 11.8791 14.7733 11.7647 14.8534 11.7484L15.6868 11.5788C15.7188 11.5723 15.7429 11.5459 15.7464 11.5135L15.8574 10.505Z" fill="white"/>
<path d="M7.11622 15.7101C7.12597 15.6215 7.25459 15.6208 7.26523 15.7094L7.35063 16.42C7.35448 16.4521 7.37836 16.478 7.40994 16.4846L8.01661 16.6097C8.09641 16.6262 8.09641 16.7402 8.01661 16.7566L7.40994 16.8818C7.37836 16.8883 7.35448 16.9142 7.35063 16.9463L7.26523 17.6568C7.25459 17.7453 7.12597 17.7447 7.11622 17.6561L7.03816 16.947C7.03459 16.9146 7.0105 16.8883 6.97856 16.8818L6.36359 16.7567C6.28352 16.7404 6.28352 16.626 6.36358 16.6097L6.97856 16.4846C7.0105 16.4781 7.03459 16.4517 7.03816 16.4193L7.11622 15.7101Z" fill="white"/>
<defs>
<filter id="filter0_i_1197_53764" x="5.71436" y="7.58496" width="12.5715" height="13.9727" filterUnits="userSpaceOnUse" color-interpolation-filters="sRGB">
<feFlood flood-opacity="0" result="BackgroundImageFix"/>
<feBlend mode="normal" in="SourceGraphic" in2="BackgroundImageFix" result="shape"/>
<feColorMatrix in="SourceAlpha" type="matrix" values="0 0 0 0 0 0 0 0 0 0 0 0 0 0 0 0 0 0 127 0" result="hardAlpha"/>
<feOffset/>
<feGaussianBlur stdDeviation="0.75"/>
<feComposite in2="hardAlpha" operator="arithmetic" k2="-1" k3="1"/>
<feColorMatrix type="matrix" values="0 0 0 0 0.417738 0 0 0 0 0.439719 0 0 0 0 0.934295 0 0 0 1 0"/>
<feBlend mode="normal" in2="shape" result="effect1_innerShadow_1197_53764"/>
</filter>
<filter id="filter1_d_1197_53764" x="8.25" y="9.75" width="6.75" height="9" filterUnits="userSpaceOnUse" color-interpolation-filters="sRGB">
<feFlood flood-opacity="0" result="BackgroundImageFix"/>
<feColorMatrix in="SourceAlpha" type="matrix" values="0 0 0 0 0 0 0 0 0 0 0 0 0 0 0 0 0 0 127 0" result="hardAlpha"/>
<feOffset/>
<feGaussianBlur stdDeviation="0.375"/>
<feComposite in2="hardAlpha" operator="out"/>
<feColorMatrix type="matrix" values="0 0 0 0 0.360577 0 0 0 0 0.3875 0 0 0 0 1 0 0 0 1 0"/>
<feBlend mode="normal" in2="BackgroundImageFix" result="effect1_dropShadow_1197_53764"/>
<feBlend mode="normal" in="SourceGraphic" in2="effect1_dropShadow_1197_53764" result="shape"/>
</filter>
<linearGradient id="paint0_linear_1197_53764" x1="11.9999" y1="-1.57143" x2="11.9999" y2="11" gradientUnits="userSpaceOnUse">
<stop stop-color="#9B9FFF"/>
<stop offset="1" stop-color="#4E53C1"/>
</linearGradient>
<linearGradient id="paint1_linear_1197_53764" x1="11.9998" y1="0" x2="11.9998" y2="9.42857" gradientUnits="userSpaceOnUse">
<stop stop-color="white" stop-opacity="0.5"/>
<stop offset="1" stop-color="white" stop-opacity="0"/>
</linearGradient>
<linearGradient id="paint2_linear_1197_53764" x1="12" y1="5.14258" x2="12" y2="23.9997" gradientUnits="userSpaceOnUse">
<stop stop-color="#EEF0FF"/>
<stop offset="1" stop-color="#D9E0FD"/>
</linearGradient>
</defs>
</svg>
