<svg width="22" height="22" viewBox="0 0 22 22" fill="none" xmlns="http://www.w3.org/2000/svg">
<path d="M14.4033 11.5762C16.1293 11.5762 17.5281 12.9753 17.5283 14.7012C17.5283 15.6268 17.1256 16.458 16.4863 17.0303L17.9951 19.7422L17.5283 21.7031L15.6865 20.8848L14.4072 18.6348L13.1221 20.8848L11.2803 21.7031L10.8135 19.7422L12.3252 17.0352C11.6832 16.4628 11.2783 15.6289 11.2783 14.7012C11.2785 12.9754 12.6775 11.5762 14.4033 11.5762ZM19 1.49805C20.1046 1.49805 21 2.39348 21 3.49805V15.0625C21 16.1671 20.1046 17.0625 19 17.0625H18.7617C19.155 16.3377 19.3608 15.5258 19.3613 14.7012C19.3611 11.9683 17.1378 9.74519 14.4053 9.74512C11.6546 9.74512 9.44847 11.989 9.44824 14.7012C9.44876 15.5258 9.65544 16.3377 10.0488 17.0625H3C1.89544 17.0625 1.00001 16.1671 1 15.0625V3.49805C1 2.39348 1.89543 1.49805 3 1.49805H19ZM3.15918 12.7959V14.627H7.62891V12.7959H3.15918ZM3.15918 8.36426V10.1953H9.09863V8.36426H3.15918ZM3.15918 3.93262V5.76367H16.7129V3.93262H3.15918Z" fill="url(#paint0_linear_2743_49044)"/>
<defs>
<linearGradient id="paint0_linear_2743_49044" x1="13" y1="1.49805" x2="2.90451" y2="20.8717" gradientUnits="userSpaceOnUse">
<stop stop-color="#FF70BE"/>
<stop offset="1" stop-color="#FF2583"/>
</linearGradient>
</defs>
</svg>
