<svg width="22" height="22" viewBox="0 0 22 22" fill="none" xmlns="http://www.w3.org/2000/svg">
<path d="M4.11035 14.002C4.39486 14.0057 4.55289 14.1325 4.65625 14.4229C5.05714 15.5669 5.78622 16.4331 6.84375 17.0215C7.07777 17.1504 7.32318 17.2556 7.57715 17.3428C8.03578 17.499 8.13873 17.944 7.7998 18.2871C7.29739 18.7955 6.78966 19.2971 6.28906 19.8037C6.16939 19.9253 6.04027 19.9999 5.8916 20C5.83355 20 5.77136 19.9893 5.70605 19.9639C5.46855 19.8767 5.35463 19.7 5.34375 19.4531C5.33652 19.2972 5.33955 19.1413 5.33594 18.9854C5.3305 18.8004 5.32903 18.7327 5.25684 18.7324C5.21697 18.7324 5.15681 18.7524 5.06445 18.7832C4.50027 18.9702 3.93723 19.1596 3.37305 19.3467C3.28794 19.3756 3.20048 19.3955 3.11719 19.3955C3.03752 19.3954 2.9576 19.3775 2.87793 19.334C2.63673 19.1978 2.54657 18.956 2.64258 18.6602C2.82943 18.0809 3.02729 17.5031 3.21777 16.9238C3.30119 16.6733 3.29543 16.6676 3.02539 16.6621C2.86212 16.6603 2.69842 16.6625 2.53516 16.6553C2.29761 16.6443 2.12891 16.5278 2.04004 16.3027C1.95478 16.083 2.00931 15.8921 2.16895 15.7305C2.69318 15.2039 3.21907 14.6771 3.74512 14.1523C3.83934 14.058 3.95186 14.0001 4.07324 14C4.08594 14 4.09947 14.0001 4.11035 14.002ZM18.584 2C18.8969 2 19.2084 2.02246 19.5195 2.08008C19.8553 2.1412 19.8728 2.15564 19.9238 2.48047C19.9677 2.75973 20.0043 3.0407 19.999 3.3252C19.999 3.37048 19.9978 3.41782 19.9961 3.46484C19.9451 5.12566 19.5844 6.72223 18.9814 8.26953C18.2607 10.1189 17.2059 11.7483 15.7275 13.0947C15.6063 13.2047 15.5691 13.3219 15.585 13.4756C15.6359 13.9733 15.6785 14.473 15.7295 14.9707C15.8507 16.1319 15.4411 17.0818 14.499 17.7559C13.4882 18.4788 12.435 19.1457 11.3926 19.8232C11.2062 19.9437 11.0072 20 10.8174 20C10.3378 19.9998 9.90741 19.6438 9.85449 19.0889C9.77011 18.2 9.70313 17.3067 9.6416 16.416C9.61 15.9712 9.62227 15.9677 9.18848 15.9102C8.03528 15.7582 7.13129 15.215 6.51074 14.2266C6.19256 13.7184 6.03477 13.1557 5.97852 12.5654C5.96266 12.3875 5.89033 12.3417 5.72168 12.333C4.78822 12.2824 3.85436 12.2271 2.9209 12.1572C2.14594 12.0994 1.75264 11.2859 2.16895 10.6084C2.4625 10.1317 2.77188 9.6668 3.07422 9.19531C3.39944 8.68711 3.72263 8.17833 4.04785 7.67188C4.64379 6.74467 5.50215 6.24408 6.60254 6.23535H6.64453C7.26155 6.23536 7.87888 6.34184 8.49414 6.4082C8.51676 6.40993 8.53769 6.41112 8.55859 6.41113C8.64473 6.41113 8.71347 6.38682 8.78027 6.31348C10.2428 4.69116 12.0498 3.59579 14.0977 2.8623C15.2544 2.44841 16.4472 2.17847 17.6689 2.05273C17.9728 2.02134 18.2784 2.00002 18.584 2ZM14.4639 4.89746C13.0241 4.89746 11.7881 5.94681 11.7529 7.57617C11.723 8.95054 12.9765 10.1936 14.374 10.2041H14.3936C15.8737 10.2041 17.0656 9.03619 17.085 7.56055C17.1025 6.14074 15.919 4.92016 14.5127 4.89746H14.4639Z" fill="url(#paint0_linear_2743_49006)"/>
<defs>
<linearGradient id="paint0_linear_2743_49006" x1="20" y1="2" x2="3.5" y2="17.5" gradientUnits="userSpaceOnUse">
<stop stop-color="#FF697D"/>
<stop offset="1" stop-color="#F6334D"/>
</linearGradient>
</defs>
</svg>
