<svg width="22" height="22" viewBox="0 0 22 22" fill="none" xmlns="http://www.w3.org/2000/svg">
<path d="M15.6094 4.70909C16.0964 5.76364 16.1713 7.50909 15.1599 8.34545C13.5117 2.2 9.39129 1 9.39129 1C9.87825 4.12727 7.6682 7.54545 5.49561 10.1273C5.42069 8.89091 5.34577 8.05455 4.63406 6.78182C4.48423 9.07273 2.68622 10.8909 2.1618 13.1818C1.52501 16.3455 2.68622 18.5636 7.10632 21C6.5 19 6.47515 17.9091 7.56144 16.4545C8.72266 14.7818 9.02233 13.1818 9.02233 13.1818C9.02233 13.1818 9.95879 14.3091 9.5842 16.0909C11.1575 14.3455 11.4571 11.5455 11.2324 10.5273C14.8284 12.9636 16.4335 17.0364 14.3358 20.9273C25.4235 14.7818 17.0703 5.65455 15.6094 4.70909Z" fill="url(#paint0_linear_2743_49018)"/>
<defs>
<linearGradient id="paint0_linear_2743_49018" x1="10.9999" y1="1" x2="9.05696" y2="19.0127" gradientUnits="userSpaceOnUse">
<stop stop-color="#FFD733"/>
<stop offset="1" stop-color="#F48A00"/>
</linearGradient>
</defs>
</svg>
