<svg width="22" height="22" viewBox="0 0 22 22" fill="none" xmlns="http://www.w3.org/2000/svg">
<path d="M7.7 9.10837C7.7 8.55609 7.25228 8.10837 6.7 8.10837H5.08788C4.53559 8.10837 4.08788 8.55609 4.08788 9.10837V15.1466C4.08788 15.6989 4.53559 16.1466 5.08787 16.1466H6.7C7.25228 16.1466 7.7 15.6989 7.7 15.1466V9.10837ZM13.1244 3.75C13.1244 3.19771 12.6767 2.75 12.1244 2.75H10.5081C9.95584 2.75 9.50813 3.19772 9.50813 3.75V15.1466C9.50813 15.6989 9.95584 16.1466 10.5081 16.1466H12.1244C12.6767 16.1466 13.1244 15.6989 13.1244 15.1466V3.75ZM18.5474 6.42988C18.5474 5.87759 18.0997 5.42987 17.5474 5.42987H15.9311C15.3788 5.42987 14.9311 5.87759 14.9311 6.42987V15.1466C14.9311 15.6989 15.3788 16.1466 15.9311 16.1466H17.5474C18.0997 16.1466 18.5474 15.6989 18.5474 15.1466V6.42988ZM1.375 17.9327V19.6126C1.375 20.1649 1.82272 20.6126 2.375 20.6126H20.2575C20.8098 20.6126 21.2575 20.1649 21.2575 19.6126V18.9314C21.2575 18.3791 20.8098 17.9314 20.2575 17.9314H1.37637C1.37562 17.9314 1.375 17.932 1.375 17.9327Z" fill="url(#paint0_linear_2743_49026)"/>
<defs>
<linearGradient id="paint0_linear_2743_49026" x1="11" y1="3" x2="9.5" y2="21" gradientUnits="userSpaceOnUse">
<stop stop-color="#9582FF"/>
<stop offset="1" stop-color="#6B57DC"/>
</linearGradient>
</defs>
</svg>
