<svg width="22" height="22" viewBox="0 0 22 22" fill="none" xmlns="http://www.w3.org/2000/svg">
<path d="M17.9961 2C18.5342 2 18.9999 2.44942 19 2.96582C19 3.48229 18.5252 3.93164 17.9961 3.93164H16.9932V5.86426C16.9931 8.11173 15.6613 10.034 13.7275 11C15.6613 11.9564 16.9931 13.8883 16.9932 16.1357V18.0684H17.9961C18.5252 18.0684 18.9912 18.5177 18.9912 19.0342C18.9911 19.5506 18.5163 20 17.9873 20H4.00391C3.46577 20 3.0001 19.5506 3 19.0342C3 18.5177 3.47483 18.0684 4.00391 18.0684H5.00684V16.1357C5.00695 13.8883 6.3387 11.966 8.27246 11C6.3387 10.0436 5.00695 8.11173 5.00684 5.86426V3.93164H4.00391C3.46571 3.93164 3 3.48229 3 2.96582C3.00011 2.44942 3.47489 2 4.00391 2H17.9961ZM6.33887 3.93164V5.85449C6.3389 7.52816 7.33285 9.06805 8.86523 9.84277C9.33046 10.101 9.59473 10.5505 9.59473 11C9.59473 11.5165 9.33046 11.9659 8.86523 12.1572C7.34197 12.9319 6.3389 14.4718 6.33887 16.1455V18.0869H6.98535V17.0723C6.98535 15.5983 7.86458 13.8366 9.22852 13.0996C9.78952 12.8796 10.351 12.5826 10.835 12.1426L11 12L11.165 12.2197C11.6489 12.5826 12.2096 12.8798 12.7705 13.1768C14.1345 13.8368 15.0146 15.5983 15.0146 17.0723V18.0869H15.6611V16.1553C15.6611 14.4816 14.6671 12.9417 13.1348 12.167C12.6696 11.9088 12.4054 11.4592 12.4053 11.0098C12.4053 10.4933 12.6695 10.0438 13.1348 9.85254C14.658 9.07786 15.661 7.53787 15.6611 5.86426V3.93164H6.33887ZM14.2119 7.3916C13.8929 7.8426 13.4087 8.28293 12.8477 8.50293C12.2867 8.79988 11.7261 9.09721 11.2422 9.53711L11 9.75684L10.7578 9.53711C10.2739 9.0972 9.71323 8.79987 9.15234 8.50293C8.59134 8.20593 8.19509 7.8316 7.78809 7.3916H14.2119Z" fill="url(#paint0_linear_2743_49012)"/>
<defs>
<linearGradient id="paint0_linear_2743_49012" x1="16.5" y1="-1" x2="3" y2="21.5" gradientUnits="userSpaceOnUse">
<stop stop-color="#FF9861"/>
<stop offset="1" stop-color="#FF6512"/>
</linearGradient>
</defs>
</svg>
