<svg width="22" height="22" viewBox="0 0 22 22" fill="none" xmlns="http://www.w3.org/2000/svg">
<path d="M11 1C16.5227 1 21 5.47727 21 11C21 16.5227 16.5227 21 11 21C5.47727 21 1 16.5227 1 11C1 5.47727 5.47727 1 11 1ZM5.95898 12C5.63362 12.0002 5.3282 12.2076 5.20605 12.5352C5.08396 12.8631 5.14585 13.2349 5.37988 13.4863L8.00488 16.3066C8.16769 16.4815 8.37126 16.5576 8.58496 16.5576C8.79858 16.5576 9.00227 16.4706 9.16504 16.3066C9.48034 15.9678 9.48043 15.4101 9.16504 15.0713L7.92383 13.7383H16.0635C16.5112 13.7492 16.8779 13.355 16.8779 12.874C16.8777 12.3933 16.5111 12 16.0635 12H5.95898ZM14.0186 5.93164C13.7031 5.59277 13.1836 5.59277 12.8682 5.93164C12.5531 6.2704 12.5531 6.82723 12.8682 7.16602L14.1094 8.5H5.96973C5.51191 8.48909 5.14564 8.88245 5.14551 9.36328C5.14551 9.8442 5.51129 10.2382 5.95898 10.2383H16.0635C16.3891 10.2383 16.6943 10.0301 16.8164 9.70215C16.9384 9.37427 16.8775 9.00234 16.6436 8.75098L14.0186 5.93164Z" fill="url(#paint0_linear_2743_49038)"/>
<defs>
<linearGradient id="paint0_linear_2743_49038" x1="13" y1="1" x2="3.06556" y2="20.2601" gradientUnits="userSpaceOnUse">
<stop stop-color="#709DFF"/>
<stop offset="1" stop-color="#3A54FF"/>
</linearGradient>
</defs>
</svg>
