<svg width="22" height="22" viewBox="0 0 22 22" fill="none" xmlns="http://www.w3.org/2000/svg">
<path d="M17.7576 10.0719L17.8206 10.129L19.8053 12.1673C19.9089 12.2741 19.9752 12.4116 19.9942 12.5592L20 12.6478L19.9942 19.6046C19.9942 19.6665 19.9696 19.7258 19.9259 19.7695C19.8821 19.8133 19.8228 19.8379 19.761 19.8379L3.06261 19.8425C3.01735 19.8429 2.97296 19.83 2.93487 19.8056C2.89678 19.7811 2.86662 19.7461 2.84808 19.7049C2.82953 19.6636 2.8234 19.6178 2.83044 19.5731C2.83748 19.5283 2.85737 19.4866 2.8877 19.453L8.28201 13.471C8.39657 13.366 8.54499 13.3056 8.70032 13.3006C8.85566 13.2957 9.00761 13.3467 9.12859 13.4442L9.18806 13.499L10.9267 15.2843C11.039 15.4013 11.191 15.472 11.3529 15.4826C11.5147 15.4932 11.6747 15.4428 11.8013 15.3414L11.8631 15.2843L16.8842 10.129C16.9967 10.0123 17.1487 9.9417 17.3104 9.93113C17.4722 9.92056 17.6321 9.97076 17.7588 10.0719H17.7576ZM2.06911 13.0361L8.32865 6.85233C8.45333 6.73489 8.61934 6.67146 8.79056 6.67582C8.96178 6.68019 9.12434 6.75201 9.24286 6.87565L11.3966 9.08422L15.5945 4.77203L14.4646 3.6351C14.4346 3.60497 14.4133 3.5672 14.4032 3.52588C14.3931 3.48456 14.3945 3.44125 14.4072 3.40066C14.42 3.36007 14.4435 3.32373 14.4754 3.29558C14.5073 3.26743 14.5463 3.24855 14.5882 3.24096C15.015 3.164 15.2902 3.11269 15.4126 3.08704L19.6677 2.24746C19.7049 2.24021 19.7433 2.24216 19.7797 2.25313C19.816 2.2641 19.8491 2.28376 19.8761 2.31042C19.9031 2.33707 19.9232 2.3699 19.9346 2.40608C19.946 2.44225 19.9485 2.48066 19.9417 2.51799L18.9995 7.69891C18.9919 7.74063 18.9732 7.77951 18.9452 7.81135C18.9172 7.8432 18.881 7.86681 18.8406 7.87964C18.8002 7.89247 18.757 7.89404 18.7158 7.88418C18.6745 7.87432 18.6368 7.8534 18.6065 7.82368L17.4661 6.69491L11.8642 12.4495C11.7517 12.5664 11.5996 12.6369 11.4378 12.6472C11.276 12.6576 11.1161 12.607 10.9897 12.5055L10.9279 12.4495L8.70063 10.1617L3.95233 15.0476C3.93031 15.0703 3.9039 15.0883 3.8747 15.1005C3.8455 15.1126 3.81413 15.1187 3.7825 15.1184C3.75087 15.1181 3.71963 15.1113 3.69069 15.0986C3.66175 15.0858 3.63572 15.0672 3.61417 15.0441L2.06211 13.3603C2.021 13.3159 1.99875 13.2572 2.00005 13.1968C2.00136 13.1363 2.02612 13.0787 2.06911 13.0361Z" fill="url(#paint0_linear_2743_49022)"/>
<defs>
<linearGradient id="paint0_linear_2743_49022" x1="19" y1="2.00008" x2="5.5" y2="20.0001" gradientUnits="userSpaceOnUse">
<stop stop-color="#83C9FF"/>
<stop offset="1" stop-color="#008BC7"/>
</linearGradient>
</defs>
</svg>
