<svg width="22" height="22" viewBox="0 0 22 22" fill="none" xmlns="http://www.w3.org/2000/svg">
<path d="M10.6152 12C13.4965 12 15.9998 14.4159 16 17.3936V18.543C15.9999 19.3475 15.3684 20 14.5898 20H3.7959C2.80496 19.9998 2 19.1677 2 18.1436C2.00004 14.7497 4.10089 12 7.38477 12H10.6152ZM16.8242 13C19.1295 13 21 15.1132 21 17.7217V18.7246C21 19.4282 20.4939 20 19.8711 20H18.2363C18.125 19.9999 18.0613 19.8578 18.125 19.7559C18.2682 19.524 18.3516 19.2441 18.3516 18.9424V17.8213C18.3516 15.8924 17.4349 14.2075 16.0674 13.29C15.9472 13.2082 15.9983 13.0005 16.1377 13H16.8242ZM15.2207 7.05371C15.5677 6.96209 15.9395 6.9472 16.3164 7.01758C17.6517 7.26885 18.5473 8.55444 18.3203 9.89258C18.0876 11.2617 16.7842 12.177 15.417 11.9355C14.7223 11.8128 14.1437 11.4144 13.7783 10.8721C13.7263 10.793 13.7417 10.6878 13.8145 10.6289C14.4376 10.1179 14.887 9.39106 15.0381 8.53613C15.1109 8.12425 15.1088 7.71813 15.0391 7.33203C15.0176 7.2074 15.0977 7.08673 15.2207 7.05371ZM9 3C10.0609 3 11.079 3.42173 11.8291 4.17188C12.579 4.92199 13 5.93929 13 7C13 7.52508 12.8972 8.04513 12.6963 8.53027C12.4953 9.01543 12.2004 9.45676 11.8291 9.82812C11.4577 10.1995 11.0165 10.4943 10.5312 10.6953C10.0459 10.8963 9.52529 11 9 11C8.47484 11 7.95492 10.8963 7.46973 10.6953C6.98442 10.4943 6.54331 10.1996 6.17188 9.82812C5.80052 9.45672 5.50568 9.01551 5.30469 8.53027C5.10379 8.0451 5 7.52513 5 7C5 5.93921 5.42183 4.92201 6.17188 4.17188C6.92195 3.4218 7.93925 3.00008 9 3Z" fill="url(#paint0_linear_2743_49030)"/>
<defs>
<linearGradient id="paint0_linear_2743_49030" x1="11.4778" y1="2.07229" x2="5.92427" y2="18.7249" gradientUnits="userSpaceOnUse">
<stop stop-color="#13CCD0"/>
<stop offset="1" stop-color="#07A2A5"/>
</linearGradient>
</defs>
</svg>
