<svg width="32" height="32" viewBox="0 0 32 32" fill="none" xmlns="http://www.w3.org/2000/svg">
<g clip-path="url(#clip0_3930_82715)">
<path d="M20.5474 10.2744C20.8728 9.94914 21.3997 9.94903 21.7251 10.2744C22.0502 10.5998 22.0503 11.1268 21.7251 11.4521L17.1772 16L21.7241 20.5469C22.0494 20.8723 22.0495 21.3992 21.7241 21.7246C21.3987 22.0499 20.8718 22.0499 20.5464 21.7246L15.9995 17.1777L11.4526 21.7246C11.1273 22.0499 10.6003 22.0497 10.2749 21.7246C9.94948 21.3992 9.94951 20.8723 10.2749 20.5469L14.8218 16L10.2739 11.4521C9.94857 11.1267 9.9486 10.5998 10.2739 10.2744C10.5993 9.94899 11.1262 9.94902 11.4517 10.2744L15.9995 14.8223L20.5474 10.2744Z" fill="#B7BDC6"/>
</g>
<defs>
<clipPath id="clip0_3930_82715">
<rect width="32" height="32" fill="white"/>
</clipPath>
</defs>
</svg>
