<?xml version="1.0" standalone="no"?><!DOCTYPE svg PUBLIC "-//W3C//DTD SVG 1.1//EN" "http://www.w3.org/Graphics/SVG/1.1/DTD/svg11.dtd"><svg t="1755075219515" class="icon" viewBox="0 0 1024 1024" version="1.1" xmlns="http://www.w3.org/2000/svg" p-id="1276" xmlns:xlink="http://www.w3.org/1999/xlink" width="64" height="64"><path d="M512 1012.98572402C235.30580079 1012.98572402 11.01427598 788.69419921 11.01427598 512S235.30580079 11.01427598 512 11.01427598 1012.98572402 235.30580079 1012.98572402 512 788.69419921 1012.98572402 512 1012.98572402zM262.15822323 825.41681548A399.08530737 399.08530737 0 0 0 512 912.7878747a399.28491871 399.28491871 0 0 0 258.85951276-94.78603353 349.63688085 349.63688085 0 0 0-250.84335604-105.60731673 349.7378607 349.7378607 0 0 0-257.85793349 113.02229104z m-69.98725957-71.94227655a449.63394463 449.63394463 0 0 1 327.84401887-141.2778638 449.48364904 449.48364904 0 0 1 318.72765141 131.95953662 400.7878747 400.7878747 0 1 0-646.57167028 9.36881711zM512 562.09892467a200.39452444 200.39452444 0 1 1 0-400.78904889 200.39452444 200.39452444 0 0 1 0 400.78904889z m0-100.19784934a100.19667513 100.19667513 0 1 0 0-200.39335026 100.19667513 100.19667513 0 0 0 0 200.39335026z" fill="#707070" p-id="1277"></path></svg>