<svg width="22" height="12" viewBox="0 0 22 12" fill="none" xmlns="http://www.w3.org/2000/svg">
<path d="M7 1.2002H20.7529C21.2647 1.20019 21.6452 1.67421 21.5342 2.17383L19.9785 9.17383C19.897 9.53946 19.5729 9.79961 19.1982 9.7998H7C6.55818 9.7998 6.2002 9.44182 6.2002 9V2C6.20029 1.55826 6.55823 1.2002 7 1.2002Z" fill="url(#paint0_linear_2377_44168)" stroke="#F3BC91" stroke-width="0.4"/>
<path d="M2.85 0.2C2.94443 0.0740971 3.09262 0 3.25 0H10.75C10.9074 0 11.0556 0.0740971 11.15 0.2L13.7568 3.67576C13.8986 3.86477 13.8887 4.12721 13.7331 4.30502L7.37629 11.57C7.17708 11.7976 6.82292 11.7976 6.62371 11.57L0.266889 4.30502C0.111309 4.12721 0.10142 3.86477 0.243177 3.67576L2.85 0.2Z" fill="url(#paint1_linear_2377_44168)"/>
<path d="M3.75684 0.75H10.1084C10.1867 0.750074 10.2604 0.787103 10.3076 0.849609L12.5576 3.8291C12.6284 3.92286 12.6243 4.05338 12.5479 4.14258L7.18945 10.3945C7.08971 10.5106 6.91029 10.5106 6.81055 10.3945L1.44434 4.13477C1.36957 4.04745 1.36385 3.91972 1.43066 3.82617L3.55371 0.854492C3.60055 0.788954 3.6763 0.750152 3.75684 0.75Z" stroke="url(#paint2_linear_2377_44168)" stroke-width="0.5"/>
<path d="M6.50084 7L4.6586 3.5H4.20393L3.97656 3.1123H5.5009L7.50084 7H6.50084ZM7.50084 6.5L7.00084 5.5L8.25946 3.11244L9.75912 3.1123L9.50098 3.5H9.07545L7.50084 6.5Z" fill="url(#paint3_linear_2377_44168)"/>
<path d="M17.9989 7.92404H14.9989L15.1779 6.90906L17.2065 4.98882C17.4106 4.79679 17.4979 4.67335 17.5342 4.46761C17.5813 4.20015 17.4699 4.01498 17.1948 4.01498C16.9983 4.01498 16.7455 4.11099 16.679 4.48818H15.6048C15.7741 3.52807 16.5615 3 17.3737 3C18.2384 3 18.7692 3.5555 18.6072 4.47447C18.5165 4.98882 18.2651 5.26314 17.8192 5.67462L16.488 6.90906H18.1779L17.9989 7.92404Z" fill="#5E3C17"/>
<defs>
<linearGradient id="paint0_linear_2377_44168" x1="6.68085" y1="3.49995" x2="22.1558" y2="4.88653" gradientUnits="userSpaceOnUse">
<stop stop-color="#D9AE6A"/>
<stop offset="1" stop-color="#B27C36"/>
</linearGradient>
<linearGradient id="paint1_linear_2377_44168" x1="1.5" y1="-8.92296e-08" x2="9.5" y2="9.5" gradientUnits="userSpaceOnUse">
<stop offset="0.0936008" stop-color="#FFF3D4"/>
<stop offset="0.941348" stop-color="#B0762E"/>
</linearGradient>
<linearGradient id="paint2_linear_2377_44168" x1="3" y1="0.5" x2="10" y2="11" gradientUnits="userSpaceOnUse">
<stop stop-color="#BC9052"/>
<stop offset="1" stop-color="#5C2813"/>
</linearGradient>
<linearGradient id="paint3_linear_2377_44168" x1="8.50098" y1="8" x2="4.00098" y2="1.5" gradientUnits="userSpaceOnUse">
<stop stop-color="#682C03"/>
<stop offset="1" stop-color="#B07B3C"/>
</linearGradient>
</defs>
</svg>
