<svg width="18" height="18" viewBox="0 0 18 18" fill="none" xmlns="http://www.w3.org/2000/svg">
<circle cx="9" cy="9" r="8.5" fill="#FF2655" stroke="#111319"/>
<g clip-path="url(#clip0_1976_23045)">
<path d="M13.0506 5.16987C13.038 5.11624 13.0108 5.06719 12.9718 5.02825C12.9329 4.98931 12.8838 4.96204 12.8302 4.94952C11.2188 4.57932 9.46091 5.01987 8.20841 6.27237C8.0319 6.44911 7.86908 6.639 7.72136 6.84042C7.67951 6.89742 7.61966 6.93687 7.55111 6.95382C6.89681 7.11582 6.26651 7.45767 5.74316 7.98102C5.50897 8.21482 5.30503 8.47706 5.13611 8.76162C4.99301 9.00327 5.23826 9.28827 5.50166 9.19092C5.91731 9.03732 6.36641 8.96187 6.82931 8.96157C6.82286 9.00102 6.81356 9.04002 6.80801 9.07947C7.13285 9.45757 7.47173 9.82338 7.82396 10.1761C8.17666 10.5284 8.54247 10.8673 8.92061 11.1921C8.96006 11.1865 8.99906 11.1772 9.03836 11.1708C9.03806 11.6337 8.96261 12.0828 8.80901 12.4984C8.71166 12.7618 8.99666 13.0071 9.23831 12.864C9.52291 12.695 9.7852 12.4911 10.0191 12.2569C10.5423 11.7337 10.8841 11.1033 11.0461 10.4491C11.0631 10.3806 11.1027 10.3207 11.1595 10.2789C11.3609 10.1311 11.5508 9.96832 11.7276 9.79182C12.9802 8.53902 13.4208 6.78132 13.0506 5.16987ZM11.0319 8.38527C10.8439 8.5732 10.589 8.67878 10.3233 8.67878C10.0575 8.67878 9.80259 8.5732 9.61466 8.38527C9.42673 8.19734 9.32115 7.94244 9.32115 7.67667C9.32115 7.41089 9.42673 7.156 9.61466 6.96807C9.80259 6.78014 10.0575 6.67456 10.3233 6.67456C10.4549 6.67456 10.5852 6.70048 10.7067 6.75084C10.8283 6.8012 10.9388 6.87501 11.0319 6.96807C11.1249 7.06112 11.1987 7.1716 11.2491 7.29318C11.2994 7.41476 11.3254 7.54507 11.3254 7.67667C11.3254 7.80827 11.2994 7.93858 11.2491 8.06016C11.1987 8.18174 11.1249 8.29221 11.0319 8.38527Z" fill="white"/>
<path d="M6.11263 10.5601C5.80888 10.8638 4.52113 12.7459 4.88773 13.1125C5.25433 13.4791 7.13638 12.1912 7.44013 11.8876C7.74388 11.5838 7.69288 11.0405 7.32628 10.6741C6.95968 10.3073 6.41623 10.2563 6.11263 10.5601Z" fill="white"/>
</g>
<defs>
<clipPath id="clip0_1976_23045">
<rect width="9" height="9" fill="white" transform="translate(4.5 4.5)"/>
</clipPath>
</defs>
</svg>
