<svg width="22" height="12" viewBox="0 0 22 12" fill="none" xmlns="http://www.w3.org/2000/svg">
<path d="M7 1.2002H20.7529C21.2647 1.20019 21.6452 1.67421 21.5342 2.17383L19.9785 9.17383C19.897 9.53946 19.5729 9.79961 19.1982 9.7998H7C6.55818 9.7998 6.2002 9.44182 6.2002 9V2C6.20029 1.55826 6.55823 1.2002 7 1.2002Z" fill="url(#paint0_linear_2253_37789)" stroke="url(#paint1_linear_2253_37789)" stroke-width="0.4"/>
<path d="M2.85 0.2C2.94443 0.0740971 3.09262 0 3.25 0H10.75C10.9074 0 11.0556 0.0740971 11.15 0.2L13.7568 3.67576C13.8986 3.86477 13.8887 4.12721 13.7331 4.30502L7.37629 11.57C7.17708 11.7976 6.82292 11.7976 6.62371 11.57L0.266889 4.30502C0.111309 4.12721 0.10142 3.86477 0.243177 3.67576L2.85 0.2Z" fill="url(#paint2_linear_2253_37789)"/>
<path d="M3.75684 0.75H10.1084C10.1867 0.750074 10.2604 0.787103 10.3076 0.849609L12.5576 3.8291C12.6284 3.92286 12.6243 4.05338 12.5479 4.14258L7.18945 10.3945C7.08971 10.5106 6.91029 10.5106 6.81055 10.3945L1.44434 4.13477C1.36957 4.04745 1.36385 3.91972 1.43066 3.82617L3.55371 0.854492C3.60055 0.788954 3.6763 0.750152 3.75684 0.75Z" stroke="url(#paint3_linear_2253_37789)" stroke-width="0.5"/>
<path d="M6.50084 7L4.6586 3.5H4.20393L3.97656 3.1123H5.5009L7.50084 7H6.50084ZM7.50084 6.5L7.00084 5.5L8.25946 3.11244L9.75912 3.1123L9.50098 3.5H9.07545L7.50084 6.5Z" fill="url(#paint4_linear_2253_37789)"/>
<path d="M16.6158 7.92404H15.5778L16.6158 4.21026L15.4928 5.12315L15.7062 3.91288L16.8292 3H17.8672L16.6158 7.92404Z" fill="#394159"/>
<defs>
<linearGradient id="paint0_linear_2253_37789" x1="6.68085" y1="3.49995" x2="19.3551" y2="4.43287" gradientUnits="userSpaceOnUse">
<stop stop-color="#A6B1C7"/>
<stop offset="1" stop-color="#7B87AC"/>
</linearGradient>
<linearGradient id="paint1_linear_2253_37789" x1="18.9362" y1="7.49987" x2="6.20135" y2="4.5551" gradientUnits="userSpaceOnUse">
<stop stop-color="#C6D0E4"/>
<stop offset="1" stop-color="#B0C0E4"/>
</linearGradient>
<linearGradient id="paint2_linear_2253_37789" x1="0.5" y1="-0.5" x2="8.5" y2="8.5" gradientUnits="userSpaceOnUse">
<stop stop-color="white"/>
<stop offset="1" stop-color="#B2BBD8"/>
</linearGradient>
<linearGradient id="paint3_linear_2253_37789" x1="3" y1="0.5" x2="11" y2="8" gradientUnits="userSpaceOnUse">
<stop stop-color="#7A86A7"/>
<stop offset="1" stop-color="#5A6277"/>
</linearGradient>
<linearGradient id="paint4_linear_2253_37789" x1="8.50098" y1="8" x2="4.00098" y2="1.5" gradientUnits="userSpaceOnUse">
<stop stop-color="#343B50"/>
<stop offset="1" stop-color="#B6BFD7"/>
</linearGradient>
</defs>
</svg>
