<svg width="18" height="18" viewBox="0 0 18 18" fill="none" xmlns="http://www.w3.org/2000/svg">
<rect x="0.5" y="0.5" width="17" height="17" rx="8.5" fill="#FF7E1C"/>
<rect x="0.5" y="0.5" width="17" height="17" rx="8.5" stroke="#111319"/>
<path d="M12.7705 10.7139C12.9183 10.8927 12.9998 11.0847 13 11.2852C13 12.2319 11.2091 13 9 13C6.79086 13 5 12.2319 5 11.2852C5.00015 11.0848 5.08102 10.8926 5.22852 10.7139C5.77792 11.3795 7.25876 11.8564 9 11.8564C10.7408 11.8564 12.2208 11.3792 12.7705 10.7139Z" fill="white"/>
<path d="M12.7705 8.42871C12.9183 8.60764 13 8.79937 13 9C12.9998 9.94671 11.209 10.7148 9 10.7148C6.79097 10.7148 5.00018 9.94671 5 9C5.00004 8.79955 5.08096 8.6075 5.22852 8.42871C5.77798 9.09426 7.25884 9.57129 9 9.57129C10.7407 9.57129 12.2207 9.09401 12.7705 8.42871Z" fill="white"/>
<path d="M9 5C11.2088 5 12.9995 5.76729 13 6.71387C13 7.66064 11.2091 8.42871 9 8.42871C6.79086 8.42871 5 7.66064 5 6.71387C5.00053 5.76729 6.79119 5 9 5Z" fill="white"/>
</svg>
