<svg width="14" height="14" viewBox="0 0 14 14" fill="none" xmlns="http://www.w3.org/2000/svg">
<path d="M12.6558 10.5708C12.8774 10.839 12.9998 11.127 13 11.4277C13 12.8479 10.3137 14 7 14C3.68629 14 1 12.8479 1 11.4277C1.00023 11.1272 1.12152 10.8388 1.34277 10.5708C2.16688 11.5692 4.38814 12.2847 7 12.2847C9.61123 12.2847 11.8312 11.5688 12.6558 10.5708Z" fill="#FF7E1C"/>
<path d="M12.6558 7.14307C12.8775 7.41146 12.9999 7.69906 13 8C12.9997 9.42006 10.3135 10.5723 7 10.5723C3.68645 10.5723 1.00026 9.42006 1 8C1.00005 7.69933 1.12144 7.41125 1.34277 7.14307C2.16697 8.14139 4.38826 8.85693 7 8.85693C9.61112 8.85693 11.8311 8.14101 12.6558 7.14307Z" fill="#FF7E1C"/>
<path d="M7 2C10.3132 2 12.9992 3.15093 13 4.5708C13 5.99096 10.3137 7.14307 7 7.14307C3.68629 7.14307 1 5.99096 1 4.5708C1.00079 3.15093 3.68678 2 7 2Z" fill="#FF7E1C"/>
</svg>
