<svg width="11" height="10" viewBox="0 0 11 10" fill="none" xmlns="http://www.w3.org/2000/svg">
<path d="M9.56286 5.81807C9.36565 5.81807 9.20564 5.97808 9.20564 6.17523V8.58365C9.20564 8.64925 9.1522 8.70274 9.08661 8.70274H1.98239C1.9168 8.70274 1.8633 8.64924 1.8633 8.58365V1.51901C1.8633 1.45328 1.91681 1.39992 1.98239 1.39992H4.56392C4.76113 1.39992 4.92114 1.24003 4.92114 1.04271C4.92114 0.845399 4.76113 0.685547 4.56392 0.685547H1.98239C1.52284 0.685547 1.14893 1.05946 1.14893 1.51901V8.58365C1.14893 9.0432 1.52289 9.41712 1.98239 9.41712H9.08661C9.54609 9.41712 9.92007 9.0432 9.92007 8.58365V6.17523C9.92007 5.97808 9.76007 5.81807 9.56286 5.81807Z" fill=""/>
<path d="M9.83863 0.814015C9.78958 0.760302 9.72094 0.722347 9.63268 0.712734C9.59887 0.706288 9.56404 0.705079 9.52913 0.710276C8.67278 0.710276 7.81643 0.710276 6.96008 0.710276C6.50276 0.710276 6.50276 1.41944 6.96008 1.41944C7.55651 1.41944 8.15293 1.41944 8.74935 1.41944C7.4595 2.74789 6.16965 4.07635 4.87981 5.40481C4.56123 5.73292 5.06223 6.23484 5.38127 5.90627C6.66525 4.58386 7.94923 3.26144 9.23322 1.93902C9.23322 2.52354 9.23322 3.10806 9.23322 3.69257C9.23322 4.14989 9.94239 4.14989 9.94239 3.69257C9.94239 2.81667 9.94239 1.94076 9.94239 1.06487C9.94238 0.95466 9.90114 0.871107 9.83863 0.814015Z" fill=""/>
</svg>
