<svg width="13" height="13" viewBox="0 0 13 13" fill="none" xmlns="http://www.w3.org/2000/svg">
<path d="M5.73551 0.878317C5.98005 0.382819 6.68661 0.382819 6.93116 0.878316L8.33343 3.71964C8.43054 3.9164 8.61825 4.05278 8.83539 4.08433L11.971 4.53996C12.5178 4.61941 12.7361 5.29139 12.3404 5.67708L10.0715 7.88874C9.9144 8.0419 9.8427 8.26257 9.87979 8.47883L10.4154 11.6017C10.5088 12.1463 9.9372 12.5617 9.44811 12.3045L6.64356 10.8301C6.44935 10.728 6.21732 10.728 6.02311 10.8301L3.21856 12.3045C2.72947 12.5617 2.15785 12.1463 2.25126 11.6017L2.78688 8.47883C2.82397 8.26257 2.75227 8.0419 2.59515 7.88874L0.326218 5.67709C-0.0694595 5.29139 0.14888 4.61941 0.695694 4.53996L3.83128 4.08433C4.04842 4.05278 4.23613 3.9164 4.33323 3.71964L5.73551 0.878317Z" fill="#656A79"/>
</svg>
