<svg width="12" height="12" viewBox="0 0 12 12" fill="none" xmlns="http://www.w3.org/2000/svg">
<path opacity="0.8" d="M9.47718 2.6719C8.81923 2.35318 8.12438 2.12727 7.41054 2C7.31959 2.16534 7.21864 2.38947 7.14769 2.56536C6.38857 2.44805 5.61731 2.44805 4.85819 2.56536C4.78724 2.38947 4.68058 2.16534 4.59487 2C3.88039 2.12577 3.18504 2.35174 2.52727 2.6719C1.2192 4.70922 0.865393 6.69879 1.04253 8.66122C1.809 9.25512 2.66522 9.70778 3.57488 10C3.77923 9.70888 3.96018 9.40025 4.11582 9.07733C3.81726 8.95973 3.53488 8.81601 3.26155 8.64514C3.3325 8.59187 3.40298 8.53307 3.46869 8.47428C5.11629 9.2693 6.90055 9.2693 8.52767 8.47428C8.59862 8.53307 8.66433 8.59187 8.73481 8.64514C8.46195 8.81601 8.1791 8.95973 7.88101 9.07733C8.0365 9.40023 8.21729 9.70887 8.42148 10C9.33147 9.70865 10.1878 9.25592 10.9538 8.66122C11.1714 6.38972 10.61 4.41573 9.47766 2.6719H9.47718ZM4.34249 7.45059C3.84726 7.45059 3.44298 6.97569 3.44298 6.39475C3.44298 5.81331 3.83726 5.3384 4.34296 5.3384C4.84296 5.3384 5.25248 5.81331 5.242 6.39475C5.242 6.97569 4.84296 7.45009 4.34249 7.45009V7.45059ZM7.66339 7.45059C7.16816 7.45059 6.76341 6.97569 6.76341 6.39475C6.76341 5.81331 7.15769 5.3384 7.66339 5.3384C8.16339 5.3384 8.57291 5.81331 8.56291 6.39475C8.56291 6.97569 8.16863 7.45009 7.66292 7.45009L7.66339 7.45059Z" fill="white"/>
</svg>
