<svg width="15" height="14" viewBox="0 0 15 14" fill="none" xmlns="http://www.w3.org/2000/svg">
<mask id="mask0_747_15936" style="mask-type:luminance" maskUnits="userSpaceOnUse" x="0" y="0" width="15" height="14">
<path d="M6.98452 0C3.14303 0 0 3.25946 0 7.21735C0 10.3604 1.97895 13.0378 4.77275 13.969C5.12198 14.0854 5.23839 13.8526 5.23839 13.6198C5.23839 13.5034 5.23839 12.9213 5.23839 12.3393C3.25944 12.8049 2.91022 11.5245 2.91022 11.5245C2.56099 10.7096 2.09536 10.4768 2.09536 10.4768C1.51331 10.0111 2.09536 10.0111 2.09536 10.0111C2.79381 10.0111 3.14303 10.7096 3.14303 10.7096C3.72508 11.7573 4.77275 11.5245 5.12198 11.2917C5.12198 10.826 5.3548 10.4768 5.58761 10.3604C4.0743 10.244 2.44458 9.54554 2.44458 6.86814C2.44458 6.05328 2.6774 5.47122 3.14303 4.88918C3.02662 4.65636 2.79381 3.95787 3.25944 3.0266C3.25944 3.0266 3.84148 2.79382 5.23839 3.72509C5.82043 3.60868 6.40247 3.49226 6.98452 3.49226C7.56656 3.49226 8.1486 3.60868 8.73065 3.72509C10.0111 2.79382 10.7096 3.0266 10.7096 3.0266C11.0588 3.95787 10.826 4.77277 10.826 4.88918C11.2916 5.35481 11.5245 6.05328 11.5245 6.86814C11.5245 9.66195 9.89473 10.244 8.38142 10.3604C8.61424 10.5932 8.84706 11.0588 8.84706 11.6409C8.84706 12.5721 8.84706 13.387 8.84706 13.6198C8.84706 13.8526 8.96346 14.0854 9.31269 13.969C12.1065 13.0378 14.0854 10.3604 14.0854 7.21735C13.969 3.25946 10.826 0 6.98452 0Z" fill="white"/>
</mask>
<g mask="url(#mask0_747_15936)">
<mask id="mask1_747_15936" style="mask-type:luminance" maskUnits="userSpaceOnUse" x="-12" y="-1040" width="1863" height="1165">
<path d="M1850.9 -1039.53H-11.6398V124.556H1850.9V-1039.53Z" fill="white"/>
</mask>
<g mask="url(#mask1_747_15936)">
<path d="M15.1331 -1.16467H-1.16406V15.1325H15.1331V-1.16467Z" fill="white"/>
</g>
</g>
</svg>
