<svg width="12" height="12" viewBox="0 0 12 12" fill="none" xmlns="http://www.w3.org/2000/svg">
<path opacity="0.8" d="M8.63308 2.5102H8.94738C9.22663 2.5102 9.49445 2.62816 9.69179 2.83755C9.88914 3.04694 10 3.33143 10 3.62735V9.88326C10 10.1792 9.88914 10.4633 9.69141 10.6731C9.49324 10.8827 9.22589 11.0002 8.94738 11H3.05224C2.77378 11.0003 2.50644 10.883 2.30821 10.6735C2.21067 10.5702 2.13321 10.4472 2.08031 10.3116C2.02741 10.1761 2.00011 10.0306 2 9.88367V2.11714C2 1.82082 2.11086 1.53673 2.30859 1.32735C2.50651 1.11774 2.77356 1.00013 3.05186 1H8.10658C8.24601 1 8.37973 1.05918 8.4784 1.16367C8.57746 1.26857 8.6327 1.41061 8.6327 1.55878L8.63308 2.5102ZM2.68384 3.23673V9.88326C2.68384 9.98694 2.7227 10.0861 2.79166 10.1596C2.86099 10.2331 2.95471 10.2739 3.05224 10.2739H8.94738C9.0449 10.274 9.13854 10.233 9.20796 10.1596C9.24208 10.1234 9.26918 10.0804 9.28769 10.033C9.30619 9.98556 9.31574 9.93467 9.31578 9.88326V3.62735C9.31574 3.57594 9.30619 3.52505 9.28769 3.47762C9.26918 3.43019 9.24208 3.38716 9.20796 3.35102C9.13854 3.27765 9.0449 3.23658 8.94738 3.23673H2.68384ZM7.94885 2.50816V1.72653H3.05224C2.95471 1.72653 2.86099 1.76776 2.79166 1.84082C2.75747 1.877 2.73033 1.92009 2.7118 1.96759C2.69327 2.0151 2.68374 2.06607 2.68374 2.11755C2.68374 2.16903 2.69327 2.22001 2.7118 2.26751C2.73033 2.31501 2.75747 2.35811 2.79166 2.39429C2.86099 2.46776 2.95471 2.50857 3.05224 2.50857L7.94885 2.50816ZM4.17344 4.9098H7.19339C7.29549 4.9098 7.39378 4.95306 7.46578 5.02939C7.50145 5.06719 7.52976 5.1122 7.54908 5.1618C7.5684 5.2114 7.57835 5.26462 7.57835 5.31837C7.57835 5.37212 7.5684 5.42533 7.54908 5.47493C7.52976 5.52454 7.50145 5.56954 7.46578 5.60735C7.3934 5.68408 7.29549 5.72694 7.19339 5.72694H4.17344C4.07134 5.72694 3.97343 5.68408 3.90104 5.60735C3.86538 5.56954 3.83707 5.52454 3.81775 5.47493C3.79843 5.42533 3.78848 5.37212 3.78848 5.31837C3.78848 5.26462 3.79843 5.2114 3.81775 5.1618C3.83707 5.1122 3.86538 5.06719 3.90104 5.02939C3.97343 4.95306 4.07134 4.9098 4.17344 4.9098ZM4.17344 6.58571H6.14191C6.24401 6.58571 6.34192 6.62857 6.41431 6.70531C6.44991 6.7431 6.47817 6.78808 6.49746 6.83765C6.51675 6.88721 6.52668 6.94038 6.52668 6.99408C6.52668 7.04778 6.51675 7.10095 6.49746 7.15051C6.47817 7.20008 6.44991 7.24506 6.41431 7.28286C6.34192 7.35959 6.24401 7.40286 6.14191 7.40286H4.17344C4.07134 7.40286 3.97343 7.35959 3.90104 7.28286C3.86544 7.24506 3.83718 7.20008 3.81789 7.15051C3.7986 7.10095 3.78867 7.04778 3.78867 6.99408C3.78867 6.94038 3.7986 6.88721 3.81789 6.83765C3.83718 6.78808 3.86544 6.7431 3.90104 6.70531C3.97343 6.62857 4.07134 6.58571 4.17344 6.58571Z" fill="white"/>
</svg>
